<svg width="71" height="75" xmlns="http://www.w3.org/2000/svg" viewBox="0 0 2044.6 1088.6277"><path d="M906.6057,1088.6277c44.08-8.8755,50.0472-46.4487,57.784-85.4,26.16,15.6974,47.76,29.4537,70.1288,41.8191,16.6935,9.2279,34.6272,18.42,54.1207,15.856,28.0616-3.6912,48.4811-20.0547,54.6183-48.1232,6.0823-27.8176-14.07-42.1156-34.9068-53.8617-15.822-8.9191-36.6732-9.1454-53.2224-31.8253,49.115,9.485,91.4775,17.6881,133.8519,25.83,8.03,1.5429,16.06,3.2458,24.17,4.1941,103.9708,12.1559,124.9383-3.6395,139.9427-105.8338,2.7714-18.8758,4.5276-37.9051,6.556-56.8845,5.6448-52.8182,16.4088-99.0838,75.9034-122.16,38.0552-14.7608,61.5339-53.12,84.085-87.3766,35.9664-54.6359,71.6676-109.54,104.87-165.87,24.3783-41.3584,58.0108-66.6406,103.9632-79.3829,69.5579-19.288,138.4721-40.9039,207.6069-61.7066,51.5211-15.5027,94.3674-40.8059,108.5222-97.8278V114.5924c-18.0088-29.2894-46.3363-34.9334-77.4247-32.93-45.373,2.9232-85.3118-8.2474-120.12-39.1163-20.7368-18.39-47.3775-24.2-74.8941-28.3552C1726.6794,7.3218,1679.7043,15.6629,1635.25,0h-40.935c-28.5331,12.363-60.2069,16.73-86.4291,35.16-21.5845,15.17-41.055,31.6712-49.3879,57.9141-13.9016,43.7811-42.147,67.58-88.6147,64.4668-77.9849-5.2253-155.0232-3.1091-232.3008,9.1714-40.3512,6.4124-77.36-13.0751-114.4821-25.9528C925.8613,107.0276,827.7577,92.5481,726.165,120.07c-46.68,12.6456-90.6282,30.7551-127.9981,61.39-33.8,27.7082-71.8719,39.4411-114.0777,34.4855-42.3664-4.9745-81.4634,2.9079-118.8041,21.6256-98.89,49.57-201.4687,82.5027-314.147,75.6858-19.5581-1.1832-46.21-.6307-50.5176,24.3-4.95,28.6486,20.6638,40.7533,42.9988,45.8517,105.2389,24.0229,208.3649,13.978,309.0024-24.3168,16.4826-6.272,32.6391-14.2769,49.7061-17.9852,72.5359-15.7605,92.38-3.768,99.2641,67.7983,6.3273,65.7759,35.8479,116.2216,86.6917,155.6361,36.6151,28.3844,74.594,55.0128,111.154,83.4652,41.0709,31.9628,50.6162,62.4824,32.0306,110.5343-15.1592,39.1929-5.4387,69.3556,26.6009,93.543,37.8816,28.5977,76.46,56.2726,115.1728,84.6676-96.587,65.9588-79.2322,134.3207-15.7583,151.8768ZM1672.5635,40.1731c54.1365,3.4039,106.0412-6.5848,145.7807,22.8541,49.9282,36.9868,102,55.6428,163.2409,51.2036,23.132-1.6768,30.92,9.9723,30.0945,32.3709-1.58,42.8866-14.622,74.7843-59.44,91.6808-78.0037,29.4073-158.7009,49.223-238.3587,72.6929-49.5777,14.6073-87.4227,42.0779-113.6433,87.0261-24.7092,42.3574-53.3238,82.483-77.17,125.289-51.26,92.0164-124.1929,152.7174-229.5075,174.3336-68.3625,14.0317-125.7218,49.19-173.2788,101.8658-31.6687,35.0771-70.4083,63.0592-110.1419,90.5551-14.4073-13.1673-26.3116-24.0471-39.4869-36.0883,27.0852-41.4556,54.6063-80.3308,78.5923-121.2759,20.7163-35.3641,9.5412-53.1061-31.67-56.4559-6.3346-.5148-13.3256,3.2908-19.22-4.1187,18.47-75.1084,25.496-149.2821-31.2808-214.2687-17.1767,6.4156-27.4522,12.6165-15.9273,30.3275,48.6909,74.8265,28.5092,147.4269-5.0632,221.2062-16.3245,35.8748-60.77,64.4809-47.1617,106.9553,12.8012,39.9548,54.7347,62.796,84.3226,92.8207,38.0072,38.5683,81.0919,69.7011,131.3,91.8777-19.7141,39.937-44.4853,28.5142-66.9745,14.6478C954.658,958.384,867.664,892.5062,779.3379,828.5825c-23.4007-16.9355-26.1967-37.3034-15.8647-64.4626,20.1545-52.98,6.64-98.0349-36.8214-134.958a314.96,314.96,0,0,0-36.0933-26.7979C599.211,544.98,524.16,477.63,531.1165,356.1911c1.1687-20.3977-9.7492-38.55-31.7281-42.0489-47.2193-7.5164-95.4385-14.4642-140.8189,6.9745C271.83,362.0942,180.6173,369.18,86.972,360.4885c-11.4459-1.0623-25.0713,1.7695-35.7207-18.2431,131.0055,15.2594,242.1185-35.9039,353.3837-86.794,23.0039-10.5214,47.7761-10.3953,72.4041-7.9754q88.1862,8.6648,155.4359-48.7616c35.2468-29.9985,76.5919-45.05,121.846-53.6954,94.4889-18.0525,184.4207-1.874,272.6573,31.155,49.2478,18.4347,99.1664,29.7513,151.967,18.4511,45.7245-9.7859,91.9112-11.4054,138.3618-7.1713,50.6374,4.6158,100.7962,6.9839,143.2418-31.4216,13.459,24.6743,23.3867,47.1088,37.081,66.9441,18.4949,26.7887,42.6308,47.5463,78.6483,40.3342,33.0438-6.6167,43.4606-33.6329,51.5786-62.1522,9.6487-33.8974,12.49-70.1039,32.635-100.5183C1672.0626,83.171,1679.0958,64.7919,1672.5635,40.1731ZM1229.8469,754.3737c35.6594-15.86,69.8307-29.4989,108.6241-33.2512-7.6851,55.96-16.132,108.2454-21.6187,160.84-3.346,32.0757-19.0848,45.9075-50.1832,45.9983-68.3486.2-133.0491-18.6466-201.4223-33.6613,21.9131-28.9535,41.048-41.3549,73.6014-21.0807,23.1,14.3866,52.6143,11.6453,80.02,10.95,31.7777-.8065,45.5488-14.2,35.1663-46.8908C1245.8013,811.3537,1238.7453,785.0559,1229.8469,754.3737ZM1610.15,34.4574c20.2447,2.2536,39.8,16.0822,28.8577,35.7652-24.2839,43.6821-31.0968,91.9626-47.141,137.6268-10.7165,30.5008-32.6272,34.0442-56.2148,10.5621-27.8465-27.7219-40.45-63.5336-47.3018-101.3238-2.5788-14.2226,4.0527-26.58,14.0432-36.5687C1531.5864,51.3305,1568.2541,39.1661,1610.15,34.4574ZM938.04,982.4c-5.9458,20.7448-11.2808,36.1522-14.6708,51.9762-4.5194,21.0939-22.2193,17.9514-35.6613,18.8623-16.6984,1.1314-37.4434,4.72-46.3106-15.0365-6.4212-14.3068-2.2449-30.3607,10.3866-40.9727,16.4372-13.8094,34.19-26.0537,52.1053-39.5193Zm196.6245-147.7875c19.4816-23.4931,37.1365-45.7667,65.41-60.1009,10.6653,26.0441,19.2389,49.3013,21.1017,77.3234C1190.1964,851.2834,1161.8324,854.9593,1134.6645,834.6127Zm-187.767-4.3253c-17.5351-27.289-18.3184-27.7559-9.0966-43.2193,19.6666-32.9781,33.7763-72.7428,90.0042-77.598Z"/><path d="M1672.5635,40.1731c6.5323,24.6188-.5009,42.9979-12.0717,60.4669-20.1453,30.4144-22.9863,66.6209-32.635,100.5183-8.118,28.5193-18.5348,55.5355-51.5786,62.1522-36.0175,7.2121-60.1534-13.5455-78.6483-40.3342-13.6943-19.8353-23.622-42.27-37.081-66.9441-42.4456,38.4055-92.6044,36.0374-143.2418,31.4216-46.4506-4.2341-92.6373-2.6146-138.3618,7.1713-52.8006,11.3-102.7192-.0164-151.967-18.4511C938.7417,143.145,848.81,126.9665,754.321,145.019c-45.2541,8.6459-86.5992,23.6969-121.846,53.6954q-67.4289,57.3886-155.4359,48.7616c-24.628-2.42-49.4-2.546-72.4041,7.9754-111.2652,50.89-222.3782,102.0534-353.3837,86.794,10.6494,20.0126,24.2748,17.1808,35.7207,18.2431C180.6173,369.18,271.83,362.0942,358.57,321.1167c45.38-21.4387,93.6-14.4909,140.8189-6.9745,21.9789,3.4986,32.8968,21.6512,31.7281,42.0489C524.16,477.63,599.211,544.98,690.5585,602.364a314.96,314.96,0,0,1,36.0933,26.7979c43.4614,36.9231,56.9759,81.9782,36.8214,134.958-10.332,27.1592-7.536,47.5271,15.8647,64.4626,88.3261,63.9237,175.32,129.8015,268.2324,187.09,22.4892,13.8664,47.26,25.2892,66.9745-14.6478-50.2083-22.1766-93.293-53.3094-131.3-91.8777-29.5879-30.0247-71.5214-52.8659-84.3226-92.8207-13.6084-42.4744,30.8372-71.0805,47.1617-106.9553,33.5724-73.7793,53.7541-146.38,5.0632-221.2062-11.5249-17.711-1.2494-23.9119,15.9273-30.3275,56.7768,64.9866,49.7512,139.16,31.2808,214.2687,5.8943,7.41,12.8853,3.6039,19.22,4.1187,41.2108,3.35,52.3859,21.0918,31.67,56.4559-23.986,40.9451-51.5071,79.82-78.5923,121.2759,13.1753,12.0412,25.08,22.921,39.4869,36.0883,39.7336-27.4959,78.4732-55.478,110.1419-90.5551,47.557-52.6755,104.9163-87.8341,173.2788-101.8658,105.3146-21.6162,178.2476-82.3172,229.5075-174.3336,23.8461-42.806,52.4607-82.9316,77.17-125.289,26.2206-44.9482,64.0656-72.4188,113.6433-87.0261,79.6578-23.47,160.355-43.2856,238.3587-72.6929,44.8184-16.8965,57.8607-48.7942,59.44-91.6808.8251-22.3986-6.9625-34.0477-30.0945-32.3709-61.2407,4.4392-113.3127-14.2168-163.2409-51.2036C1778.6047,33.5883,1726.7,43.577,1672.5635,40.1731Z" fill="#fcfafa"/><path d="M1229.8469,754.3737c8.8984,30.6822,15.9544,56.98,24.1877,82.9041,10.3825,32.6909-3.3886,46.0843-35.1663,46.8908-27.4058.6954-56.9205,3.4367-80.02-10.95-32.5534-20.2742-51.6883-7.8728-73.6014,21.0807,68.3732,15.0147,133.0737,33.8608,201.4223,33.6613,31.0984-.0908,46.8372-13.9226,50.1832-45.9983,5.4867-52.5945,13.9336-104.88,21.6187-160.84C1299.6776,724.8748,1265.5063,738.5136,1229.8469,754.3737Z" fill="#fcfafa"/><path d="M1610.15,34.4574c-41.8963,4.7087-78.564,16.8731-107.7567,46.0616-9.9905,9.9891-16.622,22.3461-14.0432,36.5687,6.852,37.79,19.4553,73.6019,47.3018,101.3238,23.5876,23.4821,45.4983,19.9387,56.2148-10.5621,16.0442-45.6642,22.8571-93.9447,47.141-137.6268C1649.95,50.54,1630.3951,36.711,1610.15,34.4574Z" fill="#fcfafa"/><path d="M938.04,982.4l-34.1508-24.69c-17.9153,13.4656-35.6681,25.71-52.1053,39.5193-12.6315,10.612-16.8078,26.6659-10.3866,40.9727,8.8672,19.757,29.6122,16.1679,46.3106,15.0365,13.442-.9109,31.1419,2.2316,35.6613-18.8623C926.7592,1018.5524,932.0942,1003.145,938.04,982.4Z" fill="#fcfafa"/><path d="M24.4554,339.6846c12.7349-.8725,19.2-14.5739,34.86-12.8857,108.6028,11.7067,207.6976-22.6779,302.4559-69.7662,47.7517-23.7293,96.267-31.3362,147.7491-27.64,35.4734,2.5468,67.3741-7.1733,93.9182-29.1545,111.3174-92.182,237.9569-89.102,368.57-60.6635,23.8483,5.1925,46.8405,15.0711,69.6059,24.3174,42.3791,17.2126,86.4245,25.1557,130.94,15.5824,58.6252-12.6077,117.5381-7.8907,176.1283-6.6128,44.1518.963,82.08-7.9664,114.6394-37.8063" fill="none" stroke="#000" stroke-linecap="round" stroke-linejoin="round" stroke-width="2"/><path d="M1651.6235,32.7407c9.587,26.8351,5.5651,49.8646-11.5309,74.193-19.95,28.39-19.3879,65.0871-29.3482,97.7126-15.1711,49.694-49.3991,60.0267-85.8179,24.3329-28.55-27.9817-49.8911-62.3655-52.4408-102.1716-3.1542-49.2424,37.7616-97.8507,97.3478-100.3236C1671.8206,22.2513,1778.61,3.23,1868.9917,77.2558c23.7131,19.4219,54.8407,21.8674,85.5565,21.2174,27.0551-.5725,63.4368-9.2987,71.8875,24.7485,8.47,34.1249,4.3022,73.223-23.1979,101.4546-19.5392,20.059-46.605,28.2393-72.986,37.98-53.7107,19.8317-108.1338,37.1621-164.1093,47.8618-92.2447,17.6325-145.6936,76.2993-189.7409,155.1778-39.639,70.9843-78.5809,144.739-149.4682,193.8632-40.5009,28.0669-83.7573,43.1707-131.2526,53.4392-52.1989,11.2855-99.8286,35.4371-139.3139,72.8388-31.625,29.9561-61.4217,61.15-97.4729,87.0372-43.8491,31.4865-35.6245,65.8821,15.5558,88.86,9.4783,4.2555,20.1164,6.7582,28.42,12.618,14.9506,10.55,35.6645,19.1979,20.8616,44.8-13.3336,23.061-31.7932,32.2872-57.4518,24.3681-39.1736-12.09-75.455-35.6854-104.5384-59.5466-60.3561-49.5188-127.3161-89.6291-186.9128-139.9723-30.953-26.1469-38.49-50.1217-24.3623-87.0969,18.0723-47.3,5.2367-80.94-40.4551-118.3313-22.5848-18.4818-44.9734-37.7352-69.7231-52.9434-82.9745-50.9861-126.1588-124.57-125.7929-221.3863.1126-29.83-17.25-39.0948-37.7485-39.9687-43.0508-1.8353-84.9734-1.4581-127.455,18.2131-87.8071,40.659-182.8969,40.8964-277.7575,33.9822-26.5108-1.9324-38.76-28.1376-61.4061-36.7854" fill="none" stroke="#000" stroke-linecap="round" stroke-linejoin="round" stroke-width="2"/><path d="M1352.7977,708.0172c-2.2614,66.2219-13.9605,131.3073-25.0126,196.3674-4.6991,27.6621-24.3563,36.4108-52.732,37.6461-80.6931,3.513-156.4755-19.6545-233.3618-37.5694" fill="none" stroke="#000" stroke-linecap="round" stroke-linejoin="round" stroke-width="2"/><path d="M1209.525,757.1283c17.0589,24.6569,17.9022,55.0506,28.9526,81.7283,9.4392,22.7878-.797,28.6494-20.7656,28.7627-34.8362.1977-70.2369,2.5976-98.2441-24.5468" fill="none" stroke="#000" stroke-linecap="round" stroke-linejoin="round" stroke-width="2"/><path d="M963.9147,482.9251c45.62,51.95,33.9416,112.39,24.2442,171.8369C980.3572,702.59,947.59,738.102,923.2058,777.73c-12.4879,20.2949-15.3392,40.0471,7.7706,57.41,33.3759,25.0766,50.2859,71.0351,98.4344,77.506" fill="none" stroke="#000" stroke-linecap="round" stroke-linejoin="round" stroke-width="2"/><path d="M894.3251,941.2946c-19.1029,16.37-39.34,31.6162-56.9973,49.42-18.4949,18.6486-21.943,48.1311-6.7623,63.4527,14.8357,14.9731,39.3062,32.4448,68.0051,18.4,21.6751-10.6076,47.5031-14.192,42.0436-49.6155-1.4849-9.6338,12.3846-21.6329,19.207-32.5465" fill="none" stroke="#000" stroke-linecap="round" stroke-linejoin="round" stroke-width="2"/><path d="M984.3822,695.74c5.4581,0,11.5568,1.59,16.2525-.3015,13.4753-5.428,29.02-7.8555,35.9,4.9645,5.401,10.0637,3.1241,24.2563-6.6585,36.63-28.5089,36.061-47.7428,78.8727-80.2885,112.1784" fill="none" stroke="#000" stroke-linecap="round" stroke-linejoin="round" stroke-width="2"/><path d="M1807.5435,85.2845c-11.8263,16.0936-23.0882,33.4161-49.8739,28.4387,5.3757-44.9564,26.11-40.9319,51.2847-26.5955C1809.1444,87.3717,1807.5435,85.2845,1807.5435,85.2845Z"/></svg>