<svg width="71" height="75" xmlns="http://www.w3.org/2000/svg" viewBox="0 0 1613.43 998.8"><g id="Layer_2" data-name="Layer 2"><g id="Layer_2-2" data-name="Layer 2"><path d="M1027.26,736.29s68.14,99.08,53.13,108.2-123.68-4.15-134.61-5.26-41,47.6-29.41,54.24,224.08,27.68,240.25,15.5,16.17-180.43,0-213.64-41.58-67.52-57.75-62-75.08,35.43-79.7,45.39S1027.26,736.29,1027.26,736.29Z" fill="#e0dfd9"/><path d="M609.14,650s12.7,153.86,25.41,162.72S781.24,852,792.79,844.49s0-54-9.24-62.82S609.14,650,609.14,650Z" fill="#d0cecb"/><path d="M1613.23,286.87s-77.77-23.61-94.71-28-41.58-57.56-41.58-57.56h-29.26s-124.74,22.14-149.38,32.47-117,94.46-117,94.46L1095,347.39,762.37,374,653,424.13l52.36,230.25,37,183L804,869.86s-12.32-3-20-4.43-12.32,4.43-38.5,45.75-16.94,44.28,15.4,51.66,13.86-10.33,24.64-31,118.58,11.8,134,0,97,42.8,120.13,59,29.26,3,57,0,49.28-20.66,60.06-39.85,0-20.66-15.4-26.56-12.32-4.43-27.72,7.38-37,0-53.9,0S958,871.33,958,871.33l72.39-95.93,29.26-72.32,26.18,8.86c170.94,16.23,201.74-54.61,255.64-116.6s30.8-90,30.8-90c49.28-17.71,64.68-124,64.68-124,23.1,7.38,87.78-21.4,109.34-20.66s20-25.09,20-25.09C1597.06,334.84,1615.54,295.73,1613.23,286.87ZM945.63,695.7c-4.62,5.9-47.74,138.74-47.74,138.74s-47.74-10.33-49.28-26.57-50.52-164.6-32.34-152C844,675,950.25,689.8,945.63,695.7Z" fill="#fff"/><path d="M1437.29,259.5s8.37-20.2,26.28-19.92,35.8,3.53,35.8,13.56C1499.37,260.48,1468.65,271.13,1437.29,259.5Z" fill="#231f20"/><path d="M742.35,837.39c3.92,35.07-59.29-67.89-70.84-129.88,0,0-242.55-57.56-270.27-225.82s71.61-210.58,127-203.81,279.51,44.15,383.46,0,166.33-46.35,191.74-10.93,113.77-109.84,221.76-117.34c56.21-3.9,164.51,22.14,164.51,69.84,0,0-15.9-6.37-35.92,14.29s-106.26,45.75-120.12,49.44,43.89,168.26,33.11,219.18-74.69-9.6-153.23,22.87-114.84,226.61-181.72,246.36c-5.39,1.6-88.56-56.7-86.25-75.89s8-37.63.15-44.28S810.88,618,804.72,600s-13.09-96.21-28.49-118.35-26.18-23.61-40-28S711.55,561.39,742.35,837.39Z" fill="#464b4f"/><polygon points="1326.02 162.9 1407.64 37.44 1423.81 178.39 1326.02 162.9" fill="#464b4f"/><path d="M540.61,313.44S255.7,167.32,232.6,140.76,112.48,229.31,90.92,258.83s378.85,88.56,425.05,90S540.61,313.44,540.61,313.44Z" fill="#464b4f"/><path d="M268,183.56c0-4.43-12.32-22.14-35.42-42.8S27.78,59.58,4.68,6.45s44.66,239.1,86.24,252.38S268,183.56,268,183.56Z" fill="#fff"/></g></g></svg>