<svg width="71" height="75" xmlns="http://www.w3.org/2000/svg" viewBox="0 0 989.46 1119.14"><g id="Layer_2" data-name="Layer 2"><g id="Layer_2-2" data-name="Layer 2"><path d="M863.58,1059.64c38.36-15.25,63.23-28,74.23-10.18s22,42,0,48.4-75.6,8.91-94.84,0C843,1097.85,852.3,1064.13,863.58,1059.64Z" fill="#fff"/><path d="M854,489.08l28.22,20.61L854,878.8s-64.6,44.56-68.73,44.56-49.48-6.37-59.09-51-35.74-21.65-15.11-119.72S854,489.08,854,489.08Z" fill="#fff"/><path d="M856.13,201.26c28.18-7.64,77.66-8.91,97.59,0s26.17,40.12,19.95,50.31S883.6,329.89,852,334.34,856.13,201.26,856.13,201.26Z" fill="#fff"/><path d="M987.39,203.18c-3.48-8-33.67-8.28-33.67-1.91s13.8,57.31,19.95,46.49S995,220.53,987.39,203.18Z" fill="#231f20"/><path d="M175,927.1C149,940.32,309.66,1082.49,282.16,1102.87s310.64,23,357.37.05c0,0,191.06,27.58,219.92-2.52,56.72-59.15,167.72-257.24,83.88-285.27s-144.32,0-144.32,0,93.5-282.72,82.51-318.38-39.85-48.4-39.85-48.4,60.5-170.65,56.38-252.16c0,0,56.37-133.72,50.88-179.57S867.83,100.65,822.47,107c0,0-56.35-24.21-110,0,0,0-23.36-105.71-35.73-107s-77,137.53-72.87,164.28c0,0-105.85,166.82-110,219s-46.77,252.16-2.8,407.54c0,0-83.85,5.08-99,39.47S433.37,980.63,454,1003.55C454,1003.55,202.47,913.1,175,927.1Z" fill="#464b4f"/><path d="M189,925.81C162.6,928.37,47.34,977.26.39,1099c-6.87,17.83,78.35-10.18,134.7,0s116.83,22.94,147.07,3.84,108.6-50.93,67.36-76.41S189,925.81,189,925.81Z" fill="#fff"/></g></g></svg>