<svg width="71" height="75" xmlns="http://www.w3.org/2000/svg" viewBox="0 0 2240.4607 1034.1973"><defs><style>.a{fill:#fcfafa;}.b,.c{fill:none;}.b{stroke:#878787;stroke-miterlimit:10;}.c{stroke:#000;stroke-linecap:round;stroke-linejoin:round;stroke-width:2px;}</style></defs><path d="M1848.36,535.9534c15.8863,1.363,28.8592,2.3029,41.7944,3.6167,48.287,4.9043,88.6852,24.93,119.1033,63.326q18.6278,23.5128,35.97,48.0395c28.1893,39.8055,63.6572,69.9905,109.8422,87.328,21.63,8.12,42.7344,17.9408,60.2721,33.6666,22.1558,19.8669,30.5214,47.1571,21.61,70.82-5.1142,13.5791-12.9831,24.3183-29.2059,25.3663-4.3362.28-8.7511.66-11.9664,4.3593-25.0124,28.78-54.2364,22.9376-83.5,9.0067-9.4961-4.5206-17.6758-6.6717-28.2087-4.453-29.5,6.2136-50.7225-6.8172-66.6125-30.966-13.7464-20.89-23.0847-44.4637-38.9563-64.0316-12.3275-15.1987-14.17-15.7273-36.6488-11.9141-.6859,8.8578-1.2708,18.0785-2.1379,27.2725-1.895,20.0934-2.8793,40.7007-26.2134,49.5336a7.283,7.283,0,0,0-3.9725,3.8244c-10.3305,31.13-36.92,29.6982-61.7735,30.1926-41.9886.8353-83.4608-6.4976-125.2195-9.5372-41.0849-2.99-79.0174,1.4073-112.7138,28.9584-22.1562,18.1154-47.1651,32.8551-71.4857,48.17-20.73,13.0541-43.1711,22.48-67.4876,27.0659-33.4446,6.308-62.0849-2.2243-84.7164-27.8522-6.46-7.3154-11.4774-10.2312-22.0014-7.17-32.0864,9.3339-64.047,11.7694-92.7882-10.85-7.0372-5.5383-15.5331-4.238-23.5273-3.157-16.7215,2.2609-33.457,4.6116-50.0273,7.7648-49.3084,9.3827-93.0874-2.4183-131.3761-34.3057-10.3512-8.6207-20.083-11.6437-33.974-9.232-35.4819,6.1605-70.399,7.34-103.0127-14.2622-16.398-10.8612-36.5163-5.6985-55.0112-2.7115-13.8983,2.2446-27.5953,5.7371-44.02,9.236,8.8342,10.02,18.466,12.9751,26.8358,17.6582,15.2911,8.5555,30.8954,16.6372,42.7539,30.0122,14.6167,16.4859,14.9294,35.0931,7.01,54.3765-7.3446,17.8848-23.57,16.2649-38.4719,15.8506-75.5624-2.1005-149.0557,14.644-223.2589,24.546-120.6636,16.1019-239.4666,11.5-355.6362-27.8846-85.7234-29.0624-152.8631-80.617-196.6915-161.2235-24.4742-45.0116-51.2-88.6672-70.6831-136.4136C-12.8592,613.935-5.642,531.328,38.4109,450.9108,92.608,351.9754,175.4167,283.48,273.2883,231.1819a70.3242,70.3242,0,0,1,6.6987-3.3716c163.37-65.95,325.8916-134.294,498.4252-174.0354C825.1489,43.01,872.975,45.9931,920.1889,41.2512c136.21-13.68,272.3382-28.6755,408.8091-39.0722,81.8792-6.2378,163.9015.4272,242.8165,26.3617,100.9908,33.1894,154.3584,103.71,160.0783,210.0055,1.1845,22.0127,13.4954,37.12,28.1783,51.0628,16.9209,16.0675,37.5784,26.8476,57.2811,38.931,63.9776,39.237,79.689,86.0694,52.1465,156.1755C1863.1208,500.95,1856.2086,516.9733,1848.36,535.9534ZM1703.271,217.3154c0-7.4534.2275-9.2613-.0328-10.9958-12.3006-81.9864-64.4285-128.621-138.862-154.0327C1496.6189,29.1545,1426.1669,22.25,1355.2131,27.06c-120.3873,8.1611-240.6717,18.068-360.8712,28.6927C915.3732,62.7329,835.91,64.5979,758,82.8285,627.6379,113.3329,505.3488,166.2836,381.4458,214.843c-45.4272,17.8036-89.72,38.2213-132.211,62.3707-66.02,37.522-123.2361,84.8112-168.7813,146.3378C31.8786,489.1705,18.8008,561.3054,33.87,640.3535c12.9669,68.0211,48.7728,125.1684,83.4969,183.2312,52.1715,87.237,128.8522,139.1261,226.4352,162.8421,96.8127,23.5289,194.566,21.6587,292.81,13.0457,81.4279-7.1388,161.2478-30.0857,243.9361-24.7963,1.5447.0988,3.1885-1.3531,5.968-2.62-4.0493-22.0081-16.9942-37.0339-35.3369-48.0593-18.4738-11.1043-38.9805-16.67-59.8411-21.1363-92.0176-19.7021-185.6739-25.4867-279.1225-33.2476-53.6571-4.4562-107.2119-10.7192-157.8907-30.3339-58.3122-22.5693-105.79-58.778-136.3616-114.5586-10.1365-18.495-15.8431-38.3035-10.1774-59.55,3.0527-11.4473,8.68-20.4368,24.8041-15.4343-15.785,45.9321,9.3307,75.854,38.6456,104.0894,4.0481,3.899,8.4507,7.4317,12.7175,11.1011,48.5151,41.7225,105.2785,63.5311,168.3172,71.5442,62.6525,7.964,125.7252,11.4868,188.354,19.9463,70.9167,9.579,142.2156,20.88,213.0994-1.7837,9.4625-3.0256,19.7166-3.4805,29.3771-5.9978,23.5989-6.15,45.3036-3.3048,66.6117,9.3439,26.411,15.6776,54.7742,10.1571,85.1763,6.3522-10.9222-26.1548-22.1694-49.2332-30.2236-73.3776-9.4994-28.4769-32.7292-43.7059-54.1633-60.39-12.3731-9.6313-27.7037.8441-41.7792.0064-9.9443-.5919-19.99.8158-29.9854.737A889.8791,889.8791,0,0,0,720.09,744.626c-24.9054,4.2968-50.0609,7.1433-75.103,10.6468l-1.0033-6.1025c79.0983-34.2676,162.5525-45.52,249.0639-42.6742-57.8138-17.1-115.1643-32.5425-176.137-26.6892C657.4985,685.51,600.006,700.226,542.1835,713.66c-38.1852,8.8717-76.5754,12.6774-115.0442,2.27-9.4951-2.5689-20.7754-4.333-24.0944-17.2882,7.8947-2.4041,14.5417-.2558,21.1026,1.3776,31.6477,7.8792,63.0152,6.3833,94.6985-.6879q63.1255-14.0889,126.7171-26.07c74.1059-14.0159,148.5553-22.3983,223.4643-6.13,86.3772,18.7593,151.351,63.6148,181.083,150.7385,2.8214,8.2672,6.4575,16.2739,10.01,24.27,22.1913,49.9425,71.6772,74.6747,127.32,63.7266-26.9826-29.3413-32.281-45.4179-27.5855-87.9272,1.7135-15.5123,4.6232-30.9113,7.4844-46.2693,1.3078-7.02,2.3635-12.8867-4.2819-18.47-14.3244-12.0346-21.4814-28.9448-28.5353-45.6954-12.4024-29.4521-20.1684-60.468-30.35-90.6665-30.5788-90.7015-74.1807-173.5875-157.29-226.7849-93.6625-59.952-198.143-84.8381-308.9168-81.5407-56.8325,1.6917-113.0746,13.052-170.1277,12.8034-23.2544-.1014-46.2185-2.4155-67.99-11.4891-11.0959-4.6244-15.2609-10.6038-2.9123-20.8179,5.9288,5.1053,11.2679,10.1261,20.1916,10.311,47.5317.9851,95.0784,2.5572,142.4221-2.8641,79.0474-9.0516,156.7964-12.0008,236.2938,5.6317,163.645,36.2968,275.5678,126.894,327.4952,288.1524q14.6588,45.5226,30.79,90.5657c6.4621,18.065,13.9791,35.8078,26.5359,51.5792,30.8623-46.5821,38.9435-95.7314,20.8069-145.8288-14.8165-40.9271-16.2223-81.7246-8.0538-123.6722,2.0048-10.2945,3.4823-20.6917,5.2022-31.0417-12.1382,21.9356-18.5881,45.97-30.838,67.4836-8.73,15.3322-18.3674,29.7816-33.7889,39.4419-11.8058,7.3954-19.7838,5.1715-24.2326-8.381a87.6976,87.6976,0,0,1-3.4953-38.9339c14.3292-112.0013,61.3024-202.739,166.6342-255.2973,7.7776-3.8808,15.2761-9.4128,29.36-6.7862-44.0117,39.8258-99.2631,61.2411-126.9632,113.9789-26.7388,50.9075-41.9189,104.1322-43.1784,161.7192,19.6777-58.0821,60.4059-104.8741,87.3326-159.7762-9.8557-2.6076-15.4722,6.0954-22.19.4881,17.8759-27.2407,31.7186-34.8806,53.6383-28.0627-24.1432,51.3611-25.6612,107.5814-35.8317,162.0559-6.5167,34.9046-4.9327,68.388,8.5815,101.2134,15.9084,38.64,13.736,77.0341-1.9338,115.046-10.2436,24.8493-21.5329,49.27-31.6266,74.1778-11.0969,27.3834-14.0851,55.7122-6.236,84.5417,3.1237,11.4734,8.0883,22.1161,19.2617,28.14-4.0146-17.4487-10.87-33.5631-11.9108-51.2294-2.3014-39.0856,17.5288-60.35,56.462-60.1018,24.9655.1593,48.0815,7.8516,70.0714,18.74,24.6579,12.21,32.9573,33.4926,23.9623,59.6523-7.825,22.7571-22.9224,39.8158-42.79,53.0312-3.754,2.497-10.1672,2.6746-9.9866,9.4622,40.931,19.6592,68.8667,16.0181,100.2709-15.3275,52.0531-51.9557,93.6328-112.3757,134.9923-172.6977,16.4119-23.9366,35.3559-40.1409,63.9982-47.7269,60.0706-15.91,105.8658-76.975,106.1336-139.2664.1075-24.9808-2.3672-49.9628-2.9657-74.9611-.2553-10.663-.7573-21.8839,7.19-32.1756,9.6236,11.1513,2.6849,27.848,16.2781,36.5279,9.6923-3.6346,20.3488-6.5438,27.26-13.8068-7.11-40.4708-48.9917-43.49-74.8712-71.136,47.5537,3.3248,78.3816,23.1855,99.52,58.9151,17.7276,29.9638,26.0923,63.4686,36.1193,96.3562,2.378,7.7992,2.9325,16.6,10.2759,24.7968,8.3916-31.0884,23.9814-57.0987,33.6359-85.4315,23.6266-69.3363,7.1811-106.7962-47.6638-133.5265-54.346-26.4871-91.4894-68.2019-119.4819-120.11-32.5835-60.4219-75.9012-111.0387-135.5257-146.5272-.9712-.5781-.977-2.7793-2.2639-6.8508C1617.9989,93.5886,1664.3879,147.0641,1703.271,217.3154Zm503.9437,623.214c10.6951-18.6242,6.7892-32.0984-5.7314-44.0738-14.27-13.6483-31.4742-23.197-49.802-29.3115-47.8285-15.9568-82.6881-47.6221-112.2277-87.0254-19.12-25.5043-38.8589-50.6286-62.0647-72.7156-33.7647-32.1371-72.9733-49.5657-120.5237-46.1753-12.3613.8814-19.63,3.9968-20.8554,17.8931-.772,8.7576-1.261,20.6041-12.0278,23.2913-12.53,3.1272-21.05-5.8985-27.9386-15.1691-4.4509-5.99-8.0145-12.6617-11.7317-19.1675-2.4955-4.3674-4.4708-9.0014-10.23-10.0384-18.1643-3.2709-36.3154-6.6141-56.3568-10.2735-2.6379,41.4625-26.8514,70.9207-48.2911,105.3014,68.4374-.3513,130.0944,13.47,191.9641,25.91,4.0258.8094,9.1684,3.9794,12.3509-.0771,7.4164-9.4529,13.5268-2.53,19.1752,1.2761,10.5925,7.1387,16.953,18.154,23.926,28.5646,6.2462,9.3254,12.59,18.6432,19.658,27.34a18.8,18.8,0,0,0,20.27,6.5711c9.0246-2.3609,10.2694-9.6654,11.2072-17.4717.8389-6.9816.1269-14.6653,5.9171-20.7358,14.2684,6.1108,13.2524,17.4928,12.7167,28.8807-.3749,7.9742-5.7332,18.0715.2728,23.6019,25.0055,23.0258,36.5922,55.1042,56.9881,81.0711,8.97,11.4205,18.0148,22.273,36.0715,14.5574,18.5928-7.9447,15.7034-22.2631,12.7661-36.2114-3.1507-14.9621-8.405-29.4809-13.17-45.649,31.279,14.7379,43.8349,36.7312,40.6141,68.3979-2.1567,21.2021,1.5,26.5123,22.19,26.961,37.0977.8045,43.9529-13.7,33.8911-44.9066-2.9776-9.2352-10.1457-17.0783-15.0681-25.7442-2.1751-3.83-8.2908-6.3707-4.2695-13.6952C2184.4465,790.8036,2195.3241,814.5929,2207.2147,840.5294ZM1509.54,897.1875c-6.9724,17.7158-14.687,23.0549-30.8173,21.8362-14.2219-1.0746-26.1611-7.86-37.6082-15.6916-15.4947-10.6007-30.4767-6.483-39.6678,12.434-8.0176,16.5019,6.4225,21.7953,16.68,28.0081,6.9595,4.2154,15.2572,5.3158,23.48,5.7092,24.2525,1.16,47.573-2.9132,68.742-14.8927a1364.67,1364.67,0,0,0,150.28-98.8162c12.6587-9.5581,19.723-22.1148,23.2606-37.274,9.3935-40.2543-16.6364-91.6167-54.5025-107.3337A26.5217,26.5217,0,0,0,1613.05,689.44c-63.77,13.2121-88.438,66.7434-122.384,114.2984,14.9038,3.2561,15.0634-5.9367,17.7758-12.3,11.2435-26.3768,29.9512-44.4724,58.3985-50.6425,12.2449-2.6558,21.8586-7.0375,28.3037-18.7587,6.2645-11.3932,16.119-13.149,27.8765-5.8771-6.4966,10.8936-20.8225,12.0182-23.9816,24.3843-2.9359,11.4919-11.4412,17.8831-22.1175,20.8565-23.9976,6.6835-40.3711,21.4433-49.548,44.4357-4.9976,12.5215-14.3591,19.5363-27.0407,23.7716-14.1594,4.7288-28.5849,9.397-40.4239,19.1789-10.3726,8.57-13.3189,19.5355-8.7763,31.9908,4.2325,11.6052,13.8793,15.15,25.4333,15.3071C1487.1061,896.2282,1497.7314,893.41,1509.54,897.1875ZM1242.8218,795.0191c-11.8086-.1334-23.864,2.1884-29.1281,14.5982-9.7269,22.9309,3.8445,62.0569,25.3836,74.7191,9.016,5.3,18.7705,10.72,29.8889,5.69,16.6088-7.513,32.0146-16.868,43.1279-31.8058,14.5724-19.5872,12.2521-33.3913-8.0576-46.68C1285.6849,799.5332,1264.6953,796.6989,1242.8218,795.0191Zm603.9841-92.1528c-60.9974-17.5945-123.1347-24.3851-189.3678-24.8235,26.74,32.6119,53.6689,52.7334,95.6011,41.9095C1783.623,712.0577,1814.7093,705.0618,1846.8059,702.8663Zm-139.7952,34.8729c1.599,59.2848,7.9807,53.7488-21.07,115.7807l36.1216-3.0806c-3.4155-22.2928,10.4216-40.7956,5.7624-62.3543-6.0419-27.9576,11.5163-41.9836,38.9631-32.5939,9.1591,3.1332,17.87,7.5786,28.0105,11.9525,2.3372-18.17,12.5255-28.987,26.9715-37.1474-19.89-2.6432-37.11,7.25-55.6453,7.4068C1746.8754,737.8655,1727.6235,737.7392,1707.0107,737.7392Zm39.1906,34.2632c-.9749,6.9283-2.06,12.3669-2.4508,17.8549-1.0632,14.9185-1.5684,29.88-2.8157,44.7807-.7614,9.095,3.8129,12.2423,11.851,13.0021,10.8044,1.0214,21.17-.3517,30.9-5.2417,25.0564-12.5923,27.8346-38.2738,5.6781-55.4493C1777.4036,777.6773,1764.0224,771.335,1746.2013,772.0024Zm21.6975-244.9482c-.5174-12.7473-4.0618-24.0123-8.1828-34.9655-2.206-5.8632-4.2542-16.394-12.888-12.2573-10.2377,4.905-26.8241,4.3507-27.5664,20.64-.35,7.6765-3.52,19.9552,7.6995,22.5988C1739.9165,526.1229,1753.4339,529.6838,1767.8988,527.0542Zm52.9249,302.0492c19.4242,1.6508,30.1746-6.4223,33.6545-24.2918-10.01-10.8849-15.9556-31.2355-37.9251-15.6354C1822.3451,801.9219,1820.3959,815.61,1820.8237,829.1034Zm26.2445-65.3658c.4037-14.2613-7.9932-14.3279-16.223-13.729-8.6178.6274-17.1014,2.1277-17.4087,14.603C1825.0138,768.5143,1835.477,766.1491,1847.0682,763.7376Zm17.7588,59.2863c11.46,6.1055,21.43,6.2791,29.9439-2.081a6.0832,6.0832,0,0,0-3.1883-10.3872C1881.1921,808.4942,1870.194,806.9724,1864.827,823.0239Zm10.6695-109.6313c10.7681,6.6925,10.365,25.7523,29.172,26.6669C1901.4614,722.4457,1891.8744,714.3733,1875.4965,713.3926Zm-12.5413,74.2383c13.5291,2.1275,24.0553,5.7382,35.4652-5.7226C1885.0006,778.368,1874.6793,776.2874,1862.9552,787.6309Z"/><path class="a" d="M1703.271,217.3154c-38.8831-70.2513-85.2721-123.7268-161.4476-147.8179,1.2869,4.0715,1.2927,6.2727,2.2639,6.8508,59.6245,35.4885,102.9422,86.1053,135.5257,146.5272,27.9925,51.9086,65.1359,93.6234,119.4819,120.1105,54.8449,26.73,71.29,64.19,47.6638,133.5265-9.6545,28.3328-25.2443,54.3431-33.6359,85.4315-7.3434-8.1973-7.8979-16.9976-10.2759-24.7968-10.027-32.8876-18.3917-66.3924-36.1193-96.3562-21.1386-35.73-51.9665-55.59-99.52-58.9151,25.88,27.6459,67.7615,30.6652,74.8712,71.136-6.9108,7.263-17.5673,10.1722-27.26,13.8068-13.5932-8.68-6.6545-25.3766-16.2781-36.5279-7.9473,10.2917-7.4453,21.5126-7.19,32.1756.5985,24.9983,3.0732,49.98,2.9657,74.9611-.2678,62.2914-46.063,123.3565-106.1336,139.2664-28.6423,7.586-47.5863,23.79-63.9982,47.7269-41.36,60.322-82.9392,120.742-134.9923,172.6977-31.4042,31.3456-59.34,34.9867-100.2709,15.3275-.1806-6.7876,6.2326-6.9652,9.9866-9.4622,19.868-13.2154,34.9654-30.2741,42.79-53.0312,8.995-26.16.6956-47.4426-23.9623-59.6523-21.99-10.8884-45.1059-18.5807-70.0714-18.74-38.9332-.2485-58.7634,21.0162-56.462,60.1018,1.04,17.6663,7.8962,33.7807,11.9108,51.2294-11.1734-6.0234-16.138-16.6661-19.2617-28.1395-7.8491-28.8295-4.8609-57.1583,6.236-84.5417,10.0937-24.9077,21.383-49.3285,31.6266-74.1778,15.67-38.0119,17.8422-76.4057,1.9338-115.046-13.5142-32.8254-15.0982-66.3088-8.5815-101.2134,10.17-54.4745,11.6885-110.6948,35.8317-162.0559-21.92-6.8179-35.7624.822-53.6383,28.0627,6.7182,5.6073,12.3347-3.0957,22.19-.4881-26.9267,54.9021-67.6549,101.6941-87.3326,159.7762,1.26-57.587,16.44-110.8117,43.1784-161.7192,27.7-52.7378,82.9515-74.1531,126.9632-113.9789-14.0839-2.6266-21.5824,2.9054-29.36,6.7862-105.3318,52.5583-152.305,143.296-166.6342,255.2973a87.6976,87.6976,0,0,0,3.4953,38.9339c4.4488,13.5525,12.4268,15.7764,24.2326,8.381,15.4215-9.66,25.0585-24.11,33.7889-39.4419,12.25-21.5135,18.7-45.548,30.838-67.4836-1.72,10.35-3.1974,20.7472-5.2022,31.0417-8.1685,41.9476-6.7627,82.7451,8.0538,123.6722,18.1366,50.0974,10.0554,99.2467-20.8069,145.8288-12.5568-15.7714-20.0738-33.5142-26.5359-51.5792q-16.1075-45.0291-30.79-90.5657c-51.9274-161.2584-163.85-251.8556-327.4952-288.1524-79.4974-17.6325-157.2464-14.6833-236.2938-5.6317-47.3437,5.4213-94.89,3.8492-142.4221,2.8641-8.9237-.1849-14.2628-5.2057-20.1916-10.311-12.3486,10.2141-8.1836,16.1935,2.9123,20.8179,21.7711,9.0736,44.7352,11.3877,67.99,11.4891,57.0531.2486,113.2952-11.1117,170.1277-12.8034C748.74,305.2158,853.22,330.1019,946.8825,390.0539c83.11,53.1974,126.7117,136.0834,157.29,226.7849,10.1811,30.1985,17.9471,61.2144,30.35,90.6665,7.0539,16.7506,14.2109,33.6608,28.5353,45.6954,6.6454,5.5831,5.59,11.4494,4.2819,18.47-2.8612,15.358-5.7709,30.757-7.4844,46.2693-4.6955,42.5093.6029,58.5859,27.5855,87.9272-55.6427,10.9481-105.1286-13.7841-127.32-63.7266-3.553-7.9964-7.1891-16.0031-10.01-24.27-29.732-87.1237-94.7058-131.9792-181.083-150.7385-74.909-16.2687-149.3584-7.8863-223.4643,6.13q-63.5535,12.02-126.7171,26.07c-31.6833,7.0712-63.0508,8.5671-94.6985.6879-6.5609-1.6334-13.2079-3.7817-21.1026-1.3776,3.319,12.9552,14.5993,14.7193,24.0944,17.2882,38.4688,10.4074,76.859,6.6017,115.0442-2.27,57.8225-13.4342,115.315-28.15,174.7269-33.8533,60.9727-5.8533,118.3232,9.5894,176.137,26.6892C806.536,703.65,723.0818,714.9027,643.9835,749.17l1.0033,6.1025c25.0421-3.5035,50.1976-6.35,75.103-10.6468a889.8791,889.8791,0,0,1,158.6479-13.3193c9.9957.0788,20.0411-1.3289,29.9854-.737,14.0755.8377,29.4061-9.6377,41.7792-.0064,21.4341,16.6845,44.6639,31.9135,54.1633,60.39,8.0542,24.1444,19.3014,47.2228,30.2236,73.3776-30.4021,3.8049-58.7653,9.3254-85.1763-6.3522-21.3081-12.6487-43.0128-15.4934-66.6117-9.3439-9.66,2.5173-19.9146,2.9722-29.3771,5.9978-70.8838,22.6641-142.1827,11.3627-213.0994,1.7837-62.6288-8.46-125.7015-11.9823-188.354-19.9463-63.0387-8.0131-119.8021-29.8217-168.3172-71.5442-4.2668-3.6694-8.6694-7.2021-12.7175-11.1011C241.9211,725.59,216.8054,695.6678,232.59,649.7357c-16.1245-5.0025-21.7514,3.987-24.8041,15.4343-5.6657,21.2466.0409,41.0551,10.1774,59.55,30.5717,55.7806,78.0494,91.9893,136.3616,114.5586,50.6788,19.6147,104.2336,25.8777,157.8907,30.3339,93.4486,7.7609,187.1049,13.5455,279.1225,33.2476,20.8606,4.4665,41.3673,10.032,59.8411,21.1363,18.3427,11.0254,31.2876,26.0512,35.3369,48.0593-2.7795,1.2673-4.4233,2.7192-5.968,2.62C797.86,969.3868,718.04,992.3337,636.6124,999.4725c-98.2444,8.613-195.9977,10.4832-292.81-13.0457-97.583-23.716-174.2637-75.6051-226.4352-162.8421-34.7241-58.0628-70.53-115.21-83.4969-183.2312-15.0691-79.0481-1.9913-151.183,46.5836-216.802,45.5452-61.5266,102.7617-108.8158,168.7813-146.3378,42.4908-24.1494,86.7838-44.5671,132.211-62.3707C505.3488,166.2836,627.6379,113.3329,758,82.8285c77.91-18.2306,157.3728-20.0956,236.3415-27.0758,120.2-10.6247,240.4839-20.5316,360.8712-28.6927,70.9538-4.81,141.4058,2.0945,209.1631,25.2269,74.4335,25.4117,126.5614,72.0463,138.862,154.0327C1703.4985,208.0541,1703.271,209.862,1703.271,217.3154ZM1230.6,532.2247c-7.5528,15.0872-2.3556,26.562,7.66,36.1447,12.5765,12.0324,27.5237,16.9531,44.6656,10.4933,13.1279-4.947,27.6545-8.8422,26.0082-28.4914-17.0833-2.7843-26.2363,16.373-43.4183,13.9679C1246.1177,561.6238,1243.9276,541.8167,1230.6,532.2247Zm297.1219,63.0783c-10.3305-7.3541-10.6946-7.8557-21.3228-.1356-15.09,10.961-29.3027,12.3027-44.3379-.1135-5.4886-4.5326-11.48-9.6521-19.687-8.6454-3.9119,16.3844-1.0938,23.547,11.2132,29.149C1475.1471,625.3713,1512.6026,615.1378,1527.7217,595.303Z"/><path class="a" d="M2207.2147,840.5294c-11.8906-25.9365-22.7682-49.7258-50.3095-58.8231-4.0213,7.3245,2.0944,9.8657,4.2695,13.6952,4.9224,8.6659,12.09,16.509,15.0681,25.7442,10.0618,31.2067,3.2066,45.7111-33.8911,44.9066-20.69-.4487-24.3466-5.7589-22.19-26.961,3.2208-31.6667-9.3351-53.66-40.6141-68.3979,4.7651,16.1681,10.0194,30.6869,13.17,45.649,2.9373,13.9483,5.8267,28.2667-12.7661,36.2114-18.0567,7.7156-27.101-3.1369-36.0715-14.5574-20.3959-25.9669-31.9826-58.0453-56.9881-81.0711-6.006-5.53-.6477-15.6277-.2728-23.6019.5357-11.3879,1.5517-22.77-12.7167-28.8807-5.79,6.0705-5.0782,13.7542-5.9171,20.7358-.9378,7.8063-2.1826,15.1108-11.2072,17.4717a18.8,18.8,0,0,1-20.27-6.5711c-7.0682-8.697-13.4118-18.0148-19.658-27.34-6.973-10.4106-13.3335-21.4259-23.926-28.5646-5.6484-3.8064-11.7588-10.729-19.1752-1.2761-3.1825,4.0565-8.3251.8865-12.3509.0771-61.87-12.44-123.5267-26.2615-191.9641-25.91,21.44-34.3807,45.6532-63.8389,48.2911-105.3014,20.0414,3.6594,38.1925,7.0026,56.3568,10.2735,5.7588,1.037,7.7341,5.671,10.23,10.0384,3.7172,6.5058,7.2808,13.1776,11.7317,19.1675,6.8885,9.2706,15.4087,18.2963,27.9386,15.1691,10.7668-2.6872,11.2558-14.5337,12.0278-23.2913,1.2251-13.8963,8.4941-17.0117,20.8554-17.8931,47.55-3.39,86.759,14.0382,120.5237,46.1753,23.2058,22.087,42.9447,47.2113,62.0647,72.7156,29.54,39.4033,64.3992,71.0686,112.2277,87.0254,18.3278,6.1145,35.5323,15.6632,49.802,29.3115C2214.0039,808.431,2217.91,821.9052,2207.2147,840.5294Z"/><path class="a" d="M1509.54,897.1875c-11.8089-3.7779-22.4342-.9593-32.9741-1.1025-11.554-.157-21.2008-3.7019-25.4333-15.3071-4.5426-12.4553-1.5963-23.4205,8.7763-31.9908,11.839-9.7819,26.2645-14.45,40.4239-19.1789,12.6816-4.2353,22.0431-11.25,27.0407-23.7716,9.1769-22.9924,25.55-37.7522,49.548-44.4357,10.6763-2.9734,19.1816-9.3646,22.1175-20.8565,3.1591-12.3661,17.485-13.4907,23.9816-24.3843-11.7575-7.2719-21.612-5.5161-27.8765,5.8771-6.4451,11.7212-16.0588,16.1029-28.3037,18.7587-28.4473,6.17-47.155,24.2657-58.3985,50.6425-2.7124,6.3635-2.872,15.5563-17.7758,12.3,33.946-47.555,58.614-101.0863,122.384-114.2984a26.5217,26.5217,0,0,1,16.3361,1.7266c37.8661,15.717,63.896,67.0794,54.5025,107.3337-3.5376,15.1592-10.6019,27.7159-23.2606,37.274a1364.67,1364.67,0,0,1-150.28,98.8162c-21.169,11.98-44.49,16.0527-68.742,14.8927-8.2225-.3934-16.52-1.4938-23.48-5.7092-10.2573-6.2128-24.6974-11.5062-16.68-28.0081,9.1911-18.917,24.1731-23.0347,39.6678-12.434,11.4471,7.8315,23.3863,14.617,37.6082,15.6916C1494.8533,920.2424,1502.5679,914.9033,1509.54,897.1875Z"/><path class="a" d="M1242.8218,795.0191c21.8735,1.68,42.8631,4.5141,61.2147,16.5218,20.31,13.2887,22.63,27.0928,8.0576,46.68-11.1133,14.9378-26.5191,24.2928-43.1279,31.8058-11.1184,5.03-20.8729-.39-29.8889-5.69-21.5391-12.6622-35.11-51.7882-25.3836-74.7191C1218.9578,797.2075,1231.0132,794.8857,1242.8218,795.0191Z"/><path class="b" d="M1846.8059,702.8663c-32.0966,2.1955-63.1829,9.1914-93.7667,17.086-41.9322,10.8239-68.8614-9.2976-95.6011-41.9095C1723.6712,678.4812,1785.8085,685.2718,1846.8059,702.8663Z"/><path class="a" d="M1707.0107,737.7392c20.6128,0,39.8647.1263,59.1142-.0362,18.5357-.1565,35.7556-10.05,55.6453-7.4068-14.446,8.16-24.6343,18.9773-26.9715,37.1474-10.1407-4.3739-18.8514-8.8193-28.0105-11.9525-27.4468-9.39-45.005,4.6363-38.9631,32.5939,4.6592,21.5587-9.1779,40.0615-5.7624,62.3543l-36.1216,3.0806C1714.9914,791.488,1708.61,797.024,1707.0107,737.7392Z"/><path class="a" d="M1746.2013,772.0024c17.8211-.6674,31.2023,5.6749,43.163,14.9467,22.1565,17.1755,19.3783,42.857-5.6781,55.4493-9.73,4.89-20.096,6.2631-30.9,5.2417-8.0381-.76-12.6124-3.9071-11.851-13.0021,1.2473-14.9008,1.7525-29.8622,2.8157-44.7807C1744.1415,784.3693,1745.2264,778.9307,1746.2013,772.0024Z"/><path class="a" d="M1820.8237,829.1034c-.4278-13.4934,1.5214-27.1815-4.2706-39.9272,21.9695-15.6,27.9155,4.75,37.9251,15.6354C1850.9983,822.6811,1840.2479,830.7542,1820.8237,829.1034Z"/><path class="a" d="M1847.0682,763.7376c-11.5912,2.4115-22.0544,4.7767-33.6317.874.3073-12.4753,8.7909-13.9756,17.4087-14.603C1839.075,749.41,1847.4719,749.4763,1847.0682,763.7376Z"/><path class="a" d="M1864.827,823.0239c5.367-16.0515,16.3651-14.53,26.7556-12.4682a6.0832,6.0832,0,0,1,3.1883,10.3872C1886.2568,829.303,1876.2868,829.1294,1864.827,823.0239Z"/><path class="a" d="M1875.4965,713.3926c16.3779.9807,25.9649,9.0531,29.172,26.6669C1885.8615,739.1449,1886.2646,720.0851,1875.4965,713.3926Z"/><path class="a" d="M1862.9552,787.6309c11.7241-11.3435,22.0454-9.2629,35.4652-5.7226C1887.0105,793.3691,1876.4843,789.7584,1862.9552,787.6309Z"/><path d="M1230.6,532.2247c13.3278,9.592,15.5179,29.3991,34.916,32.1145,17.182,2.4051,26.335-16.7522,43.4183-13.9679,1.6463,19.6492-12.88,23.5444-26.0082,28.4914-17.1419,6.46-32.0891,1.5391-44.6656-10.4933C1228.2442,558.7867,1223.047,547.3119,1230.6,532.2247Z"/><path d="M1527.7217,595.303c-15.1191,19.8348-52.5746,30.0683-74.1345,20.2545-12.307-5.602-15.1251-12.7646-11.2132-29.149,8.207-1.0067,14.1984,4.1128,19.687,8.6454,15.0352,12.4162,29.248,11.0745,44.3379.1135C1517.0271,587.4473,1517.3912,587.9489,1527.7217,595.303Z"/><path class="c" d="M1817.6465,578.81c20.4618-34.03,33.2311-72.1231,43.6144-109.2561,19.4475-69.5481,6.9722-101.2212-60.4627-138.5627-32.5395-18.0184-63.4634-37.8015-80.9932-72.9923-5.7068-11.4562-7.9113-20.8987-4.1192-34.11,6.1178-21.312-4.0016-42.3433-11.2736-61.5-24.1236-63.55-73.1568-101.3638-136.3192-122.1869-54.1759-17.86-110.23-24.2923-166.9582-26.368-85.0217-3.1111-168.8692,11.19-253.2646,17.2162-86.4,6.1691-172.5174,16.6291-258.9637,21.7288C787.4253,58.7656,690.7573,83.814,596.3088,119.1221,500.7915,154.83,404.3805,188.29,311.079,229.7227c-97.03,43.089-180.0077,104.04-242.0205,191.4374-34.6986,48.9025-55.2091,103.2978-55.79,163.285C12.798,632.96,25.6018,679.48,46.624,723.2857c29.2776,61.0081,62.0545,120.2665,105.45,172.3213,27.371,32.8325,63.5452,56.1218,102.7562,73.4977,101.2089,44.85,207.7425,55.1791,317.043,49.13,66.1793-3.6624,131.54-13.8793,196.8689-23.5478,32.6653-4.8347,64.9775-6.5431,97.6791-6.7259,11.5088-.0644,26.1989,3.203,31.2185-9.636,5.1575-13.1916,1.0307-28.6148-9.0286-38.8306-14.8966-15.1284-31.7152-28.3239-52.1375-36.1664-8.379-3.2177-17.4294-6.3-22.5855-14.83"/><path class="c" d="M1209.7631,903.5139c-44.3542-21.5243-43.7047-63.2129-37.4288-105.0924,1.8889-12.6046,4.0889-25.29,7.8-37.4331,1.5572-5.0959,2.4762-10.5657-.5972-12.9949-28.719-22.7-35.7618-56.4072-46.89-88.41-20.6547-59.3967-41.0078-118.4634-74.1106-173.1925-54.7677-90.5478-138.4369-136.74-235.3955-164.2625-40.5-11.4961-82.1014-21.3663-123.8324-25.3243-21.4113-2.0308-45.0207-3.4407-67.5821,3.675-14.68,4.63-31.1122,1.8844-46.82,3.3791-57.2871,5.4516-114.8919,10.9873-172.5185,2.7821-9.6631-1.3759-19.4129-2.8812-15.012-16.8743"/><path class="c" d="M221.9526,655.7625c-16.3861,37.4994,4.236,65.9908,25.7484,91.6156,51.98,61.9164,121.5632,91.4288,200.3326,101.699,59.2133,7.7206,118.7963,11.5544,178.214,17.1392C680.7632,871.34,735.08,878.57,789.51,884.6414c6.7948.7579,13.7472.1035,20.6265.1035"/><path class="c" d="M1221.02,903.5139c-.0253-10.0451-.6421-19.17-7.025-28.4826-7.2985-10.6493-10.3029-24.1473-11.605-37.2222-4.633-46.5188,16.168-58.6037,56.076-53.7748,18.07,2.1865,36.4618,7.2521,52.76,17.8987,24.2273,15.8266,29.0556,36.5576,13.0832,60.3553-13.4324,20.0132-34.6769,30.5641-52.899,44.6333-9.0982,7.0248-21.1352,1.4993-31.5923.0822-12.591-1.7065-22.2046-1.4542-34.3913,6.9207-23.0521,15.8418-50.7339,9.261-76.2722,4.2619-30.44-5.9586-55.5617-24.5682-74.1018-47.4027-13.3315-16.4195-17.7668-40.2907-25.295-61.154-13.5586-37.5754-35.4037-68.4778-69.4863-90.1162-2.1863-1.388-3.4665-4.6788-5.7169-5.422-52.9441-17.4871-103.3106-41.5749-161.2588-44.281-69.3826-3.24-135.8064,9.5371-202.7135,23.2925-28.7036,5.9011-57.0813,13.12-86.1691,17.6925a193.7573,193.7573,0,0,1-99.5324-9.9873"/><path class="c" d="M1838.2845,546.9021c25.9567,5.7314,53.0047,1.33,78.843,9.2435,40.5786,12.4281,70.19,38.6871,95.8079,71.3332,29.5663,37.6774,55.4772,79.347,97.6417,104.83,20.4648,12.3679,43.6688,20.1408,65.3762,30.53,16.7727,8.0278,32.5387,18.0414,43.0226,33.8075,10.2377,15.3955,11.3922,31.5988,2.3688,48.8507-4.6813,8.95-12.309,8.2685-19.1118,8.8558-7.9074.6828-7.9541-7.7267-9.1487-12.8237-5.672-24.2033-15.3715-45.2612-39.6009-56.26"/><path class="c" d="M1237.9059,324.489c-4.5885,3.7176-10.2043,6.3683-9.4962,14.0873,1.127,12.2841-6.5579,22.4189-9.1564,33.7987-3.9448,17.2757-14.6852,31.4972-9.25,52.9432,4.728,18.6535-3.0413,41.272-8.0874,61.4373-9.3079,37.1964,2.6739,70.951,13.4646,105.1956,18.3827,58.3376.1772,108.7727-33.7606,155.78"/><path class="c" d="M1297.9437,229.7053c-51.4085,31.3774-104.7577,60.2182-135.2506,116.278-19.3315,35.54-30.0328,73.704-39.5261,112.6331-6.0428,24.78-4.8762,48.8707.2917,73.27"/><path class="c" d="M1639.4091,676.4085c5.1019,12.7959,16.6188,20.5245,26.6172,27.662,37.62,26.8559,39.5375,93.22,16.6386,128.1889-9.8536,15.0474-23.4786,23.68-39.07,32.5979-35.1521,20.107-67.7316,44.6665-101.8318,66.6793-23.4638,15.1465-48.0337,27.1244-76.7885,30.5829-34.998,4.2094-62.2634-5.1126-80.7265-36.0828"/><path class="c" d="M918.9547,708.3159c-7.9489,9.2421-18.2773,11.4694-30.02,11.3849-34.4361-.2476-68.8927-.9613-103.1969,3.5718a871.9765,871.9765,0,0,0-116.1874,23.05c-8.1211,2.2235-20.1837-4.0837-24.5186,8.9157"/><path class="c" d="M1271.6772,911.0215c23.1872,30.23,55.2184,24.5124,86.2645,20.3487,14.5283-1.9483,26.6028-10.26,35.6964-22.2187,9.2866-12.213,19.7571-23.2216,33.8169-29.9226,5.1661-2.4621,6.6313-6.01,7.7529-11.3121,1.1207-5.2973,3.4452-11.6105,7.3965-14.8412,38.468-31.4534,55.48-78.29,83.35-117.2393,24.4589-34.1827,56.458-49.4751,94.7109-57.4666,9.6256-2.011,18.2913-5.0069,26.4077-11.1352,14.0527-10.61,30.1994-2.1673,44.8325-1.39a818.752,818.752,0,0,1,157.7119,23.4039c7.0327,1.7795,12.5281,4.13,16.81,9.6826"/><path class="c" d="M1541.8475,72.0454c64.481,29.3029,110.2255,78.1646,144.35,138.956,5.5277,9.8475,10.1935,19.884,22.63,22.4577"/><path class="c" d="M1915.208,764.623c-32.6758,2.9922-48.4111-24.9809-70.8885-40.0228-11.0091-7.3673-21.8177-9.176-32.1824-6.4467-39.5382,10.4111-79.5925,13.5847-120.1949,12.6852"/><path class="c" d="M1975.2459,706.439c3.7462,11.0879,4.8466,24.0669,1.0288,33.4388-6.3583,15.6079.117,21.8824,9.5133,32.8649,15.7483,18.4071,27.4719,40.388,39.9744,61.4094,12.0667,20.2886,26.1967,35.3612,52.7079,32.1031,8.89-1.0925,15.0205-9.204,22.6255-8.0424,18.8583-34.77-1.6178-60.9917-18.9075-87.9591"/><path class="c" d="M1620.6472,715.8235c-7.43,2.7438-16.5492,3.2761-20.5006,11.3289-8.1991,16.7092-23.1236,23.2126-39.5269,28.1206-22.8215,6.8283-34.3885,24.6465-43.1451,45.0187-6.9554,16.1816-19.36,20.594-35.6649,16.8846"/><path class="c" d="M811.0742,888.4987c-.1026-13.2617,11.8119-16.1871,19.8465-18.1766,22.09-5.47,44.8773-8.1274,67.3976-11.8443,15.6048-2.5756,29.8981,1.6566,43.11,9.4439,36.6566,21.6059,73.5738,16.72,110.7354,1.8079"/><path class="c" d="M1204.1346,409.8881c-10.2672,2.5283-16.41,9.5184-20.6611,18.7585-11.816,25.6815-24.6148,50.9593-35.2038,77.1339-4.3648,10.7888-10.7954,16.0661-21.0587,18.5988"/><path class="c" d="M1755.7324,464.3183c-7.5047,2.5026-14.9505,5.2021-22.5254,7.47-21.8058,6.5294-31.3831,18.3983-26.8011,43.3066,8.0853,43.9543-12.2113,80.8965-35.1893,116.2105-5.8552,8.9987-13.4823,16.9248-14.9219,28.2107"/><path class="c" d="M1673.18,385.4884c30.8452,11.51,65.3831,20.8718,77.9361,54.75,11.76,31.7389,33.7925,59.714,32.652,97.3325-.3766,12.4193,12.1119,31.2888,26.6753,40.7741,5.24,3.4132,6.6973,6.9432,8.1408,11.7255"/><path class="c" d="M2194.7593,854.7144c-24.3024,32.4154-62.7985,34.02-90.0568,3.7538"/><path class="c" d="M1855.17,728.9618c.4665-8.6165,5.074-15.3722,9.1864-22.633,7.655-13.5149,17.83-15.3877,28.113-5.292,18.0276,17.6994,36.05,35.3532,25.4212,65.7454-3.1349,8.9637-2.9407,22.1536-1.5019,31.442,3.02,19.4985-5.9437,29.8413-17.8112,41.73-11.5287,11.55-24.8205,11.8576-39.592,13.4652-25.0123,2.7222-50.1576,2.082-75.242,6.1055-23.779,3.8141-48.6758.1356-73.03,1.08-14.3392.5558-28.6883,4.5027-41.2861-5.8905"/><path class="c" d="M1232.2773,533.7638c7.0706,39.9949,36.0733,51.421,67.2843,25.96,3.1969-2.608,6.71-3.1076,9.6392-5.3139"/><path class="c" d="M1444.286,586.3171c8.3287,22.2464,35.5075,32.0251,58.1073,20.5388,5.989-3.044,11.3115-7.4,16.94-11.1542"/><path class="c" d="M1508.0763,899.76c-29.6513,14.13-46.123,10.3278-73.1712-16.8922"/><path class="c" d="M1851.4178,775.8844c-5.0032-.6256-10.2749-2.593-14.9647-1.6533-25.3274,5.075-48.8862,5.72-71.9792-10.5782-6.8945-4.8661-23.9432-5.5905-29.38,10.3546"/><path class="c" d="M1843.9131,730.8387c-5.0032,3.1282-9.7361,6.8476-15.0565,9.2818-22.6715,10.3725-30.6523,18.819-23.3939,41.0849,7.9311,24.3285,5.1026,47.6764,4.6791,71.6321"/><path class="c" d="M1780.1228,539.3945c-23.2442,6.8863-45.0232-3.816-67.5426-5.6307"/><path class="c" d="M1729.4659,774.0075c4.0373-.1714,8.784.7722,7.283,5.5612-5.7769,18.4307,3.642,38.3491-6.6351,56.739-2.4833,4.4438,3.1044,13.4016,4.9806,20.2836"/><path class="c" d="M1697.5708,432.411c6.0588,15.734-5.8521,35.6165,11.2571,48.8"/><path class="c" d="M1864.5511,802.1611c-8.886,15.1586-6.6913,32.4489-9.3809,48.7995"/><path class="c" d="M1913.3318,798.4072c-11.8825.6257-23.8643.5111-35.6188,2.0907-11.1454,1.4978-19.6422-3.053-23.9855-11.6933-4.46-8.8718,2.4213-16.1977,8.935-22.3179,2.5773-2.4219,5.0157-4.9919,7.5171-7.4944"/><path class="c" d="M1226.6488,334.8119c-12.8173-3.7447-19.6345,8.5167-30.019,11.2615"/></svg>