<svg width="71" height="75" xmlns="http://www.w3.org/2000/svg" viewBox="0 0 2044.6001 1088.6277"><path d="M906.6057,1088.6277c44.08-8.8755,50.0472-46.4486,57.784-85.4,26.16,15.6974,47.76,29.4536,70.1288,41.819,16.6935,9.2279,34.6273,18.42,54.1207,15.856,28.0617-3.6911,48.4811-20.0546,54.6184-48.1232,6.0823-27.8175-14.07-42.1155-34.9069-53.8617-15.822-8.9191-36.6731-9.1453-53.2224-31.8252,49.1151,9.4849,91.4776,17.688,133.8519,25.83,8.0305,1.5429,16.06,3.2459,24.17,4.1942,103.9707,12.1558,124.9383-3.64,139.9427-105.8339,2.7714-18.8758,4.5275-37.9051,6.5559-56.8845,5.6448-52.8182,16.4088-99.0838,75.9035-122.16,38.0551-14.7608,61.5338-53.12,84.085-87.3766,35.9663-54.6359,71.6675-109.54,104.87-165.87,24.3784-41.3584,58.0108-66.6406,103.9633-79.3829,69.5578-19.288,138.4721-40.9039,207.6068-61.7066,51.5212-15.5027,94.3675-40.8059,108.5223-97.8277V114.5924c-18.0088-29.2894-46.3364-34.9334-77.4247-32.93-45.373,2.9232-85.3118-8.2474-120.12-39.1163-20.7367-18.39-47.3774-24.2-74.8941-28.3552C1726.6794,7.3218,1679.7044,15.6629,1635.25,0h-40.9351c-28.5331,12.363-60.2069,16.73-86.429,35.16-21.5846,15.17-41.0551,31.6712-49.3879,57.9141-13.9016,43.7811-42.147,67.58-88.6147,64.4668-77.985-5.2253-155.0233-3.109-232.3009,9.1714-40.3511,6.4124-77.3594-13.0751-114.4821-25.9528C925.8613,107.0277,827.7578,92.5481,726.165,120.07c-46.68,12.6456-90.6282,30.7551-127.9981,61.39-33.8,27.7082-71.8719,39.4411-114.0777,34.4855-42.3664-4.9745-81.4633,2.9079-118.8041,21.6256-98.89,49.57-201.4687,82.5027-314.147,75.6858-19.5581-1.1832-46.21-.6306-50.5176,24.3-4.95,28.6486,20.6638,40.7533,42.9988,45.8517,105.2389,24.0229,208.3649,13.978,309.0024-24.3168,16.4826-6.2719,32.6391-14.2769,49.7061-17.9852,72.5359-15.7605,92.38-3.768,99.2641,67.7983,6.3273,65.7759,35.8479,116.2216,86.6917,155.6361,36.6152,28.3844,74.594,55.0128,111.154,83.4652,41.071,31.9629,50.6163,62.4825,32.0306,110.5344-15.1591,39.1928-5.4387,69.3555,26.6009,93.5429,37.8817,28.5978,76.46,56.2727,115.1728,84.6677-96.587,65.9587-79.2322,134.3206-15.7583,151.8767ZM1672.5636,40.1731c54.1364,3.404,106.0412-6.5847,145.7806,22.8541,49.9283,36.9868,102,55.6428,163.2409,51.2036,23.1321-1.6768,30.92,9.9723,30.0946,32.3709-1.58,42.8866-14.622,74.7843-59.44,91.6808-78.0037,29.4073-158.7009,49.223-238.3587,72.6929-49.5778,14.6073-87.4227,42.0779-113.6433,87.0262-24.7092,42.3574-53.3239,82.4829-77.17,125.2889-51.26,92.0164-124.1929,152.7174-229.5076,174.3336-68.3624,14.0317-125.7218,49.19-173.2788,101.8658-31.6686,35.0772-70.4083,63.0592-110.1419,90.5551l-39.4868-36.0883c27.0851-41.4556,54.6063-80.3307,78.5922-121.2759,20.7164-35.364,9.5413-53.1061-31.67-56.4558-6.3345-.5149-13.3256,3.2907-19.22-4.1188,18.4705-75.1084,25.496-149.2821-31.2808-214.2686-17.1766,6.4155-27.4521,12.6164-15.9273,30.3274,48.691,74.8265,28.5093,147.4269-5.0631,221.2063-16.3246,35.8748-60.77,64.4808-47.1618,106.9552,12.8012,39.9549,54.7348,62.796,84.3226,92.8208,38.0072,38.5682,81.092,69.7011,131.3,91.8777-19.714,39.937-44.4852,28.5142-66.9745,14.6477-92.9123-57.2886-179.9062-123.1665-268.2324-187.09-23.4006-16.9355-26.1967-37.3034-15.8647-64.4625,20.1546-52.98,6.64-98.035-36.8213-134.9581a314.97,314.97,0,0,0-36.0934-26.7979C599.211,544.98,524.16,477.63,531.1165,356.1911c1.1687-20.3977-9.7491-38.55-31.7281-42.0489-47.2192-7.5163-95.4385-14.4642-140.8189,6.9745C271.83,362.0943,180.6173,369.18,86.972,360.4885c-11.4459-1.0623-25.0713,1.77-35.7207-18.2431,131.0055,15.2594,242.1185-35.9039,353.3837-86.794,23.0039-10.5214,47.7761-10.3953,72.4041-7.9754q88.1862,8.6648,155.4359-48.7616c35.2468-29.9985,76.592-45.05,121.846-53.6954,94.4889-18.0525,184.4207-1.874,272.6573,31.155,49.2478,18.4347,99.1665,29.7513,151.9671,18.4511,45.7244-9.7859,91.9112-11.4054,138.3618-7.1713,50.6374,4.6158,100.7961,6.9839,143.2418-31.4216,13.459,24.6743,23.3867,47.1088,37.081,66.9441,18.4948,26.7887,42.6307,47.5463,78.6483,40.3342,33.0438-6.6167,43.4606-33.6329,51.5785-62.1521,9.6488-33.8975,12.49-70.104,32.6351-100.5184C1672.0627,83.171,1679.0959,64.7919,1672.5636,40.1731ZM1229.8469,754.3737c35.6595-15.86,69.8307-29.4989,108.6242-33.2512-7.6851,55.96-16.132,108.2454-21.6187,160.84-3.3461,32.0758-19.0849,45.9076-50.1833,45.9984-68.3485.2-133.0491-18.6466-201.4223-33.6613,21.9131-28.9536,41.0481-41.355,73.6015-21.0808,23.0995,14.3866,52.6142,11.6453,80.02,10.95,31.7777-.8065,45.5489-14.2,35.1664-46.8907C1245.8014,811.3537,1238.7453,785.0559,1229.8469,754.3737ZM1610.1505,34.4574c20.2447,2.2536,39.8,16.0822,28.8576,35.7652-24.2838,43.6821-31.0967,91.9626-47.1409,137.6268-10.7165,30.5008-32.6273,34.0442-56.2149,10.5621-27.8464-27.7219-40.45-63.5336-47.3017-101.3238-2.5788-14.2226,4.0526-26.58,14.0432-36.5687C1531.5865,51.3305,1568.2542,39.1661,1610.1505,34.4574ZM938.04,982.4c-5.9457,20.7448-11.2807,36.1522-14.6708,51.9761-4.5193,21.094-22.2193,17.9515-35.6612,18.8623-16.6985,1.1315-37.4435,4.7206-46.3107-15.0365-6.4212-14.3067-2.2449-30.3607,10.3867-40.9726,16.4371-13.8094,34.19-26.0537,52.1052-39.5194Zm196.6246-147.7876c19.4816-23.4931,37.1365-45.7666,65.41-60.1009,10.6653,26.0441,19.239,49.3013,21.1018,77.3235C1190.1964,851.2835,1161.8324,854.9593,1134.6646,834.6127Zm-187.7671-4.3253c-17.5351-27.2889-18.3183-27.7559-9.0966-43.2193,19.6667-32.978,33.7763-72.7428,90.0042-77.5979Z"/><path d="M1672.5636,40.1731c6.5323,24.6188-.5009,42.9979-12.0717,60.4669-20.1454,30.4144-22.9863,66.6209-32.6351,100.5184-8.1179,28.5192-18.5347,55.5354-51.5785,62.1521-36.0176,7.2121-60.1535-13.5455-78.6483-40.3342-13.6943-19.8353-23.622-42.27-37.081-66.9441-42.4457,38.4055-92.6044,36.0374-143.2418,31.4216-46.4506-4.2341-92.6374-2.6146-138.3618,7.1713-52.8006,11.3-102.7193-.0164-151.9671-18.4511C938.7417,143.145,848.81,126.9665,754.321,145.019c-45.254,8.6459-86.5992,23.6969-121.846,53.6954q-67.4289,57.3886-155.4359,48.7616c-24.628-2.42-49.4-2.546-72.4041,7.9754-111.2652,50.89-222.3782,102.0534-353.3837,86.794,10.6494,20.0127,24.2748,17.1808,35.7207,18.2431C180.6173,369.18,271.83,362.0943,358.57,321.1167c45.38-21.4387,93.6-14.4908,140.8189-6.9745,21.979,3.4987,32.8968,21.6512,31.7281,42.0489C524.16,477.63,599.211,544.98,690.5585,602.364a314.97,314.97,0,0,1,36.0934,26.7979C770.1133,666.085,783.6278,711.14,763.4732,764.12c-10.332,27.1591-7.5359,47.527,15.8647,64.4625,88.3262,63.9237,175.32,129.8016,268.2324,187.09,22.4893,13.8665,47.26,25.2893,66.9745-14.6477-50.2082-22.1766-93.293-53.3095-131.3-91.8777-29.5878-30.0248-71.5214-52.8659-84.3226-92.8208-13.6083-42.4744,30.8372-71.08,47.1618-106.9552,33.5724-73.7794,53.7541-146.38,5.0631-221.2063-11.5248-17.711-1.2493-23.9119,15.9273-30.3274,56.7768,64.9865,49.7513,139.16,31.2808,214.2686,5.8943,7.41,12.8854,3.6039,19.22,4.1188,41.2109,3.35,52.386,21.0918,31.67,56.4558-23.9859,40.9452-51.5071,79.82-78.5922,121.2759l39.4868,36.0883c39.7336-27.4959,78.4733-55.4779,110.1419-90.5551,47.557-52.6754,104.9164-87.8341,173.2788-101.8658,105.3147-21.6162,178.2477-82.3172,229.5076-174.3336,23.846-42.806,52.4607-82.9315,77.17-125.2889,26.2206-44.9483,64.0655-72.4189,113.6433-87.0262,79.6578-23.47,160.355-43.2856,238.3587-72.6929,44.8184-16.8965,57.8607-48.7942,59.44-91.6808.8251-22.3986-6.9625-34.0477-30.0946-32.3709-61.2406,4.4392-113.3126-14.2168-163.2409-51.2036C1778.6048,33.5884,1726.7,43.5771,1672.5636,40.1731Z" fill="#f0714a"/><path d="M1229.8469,754.3737c8.8984,30.6822,15.9545,56.98,24.1878,82.9042,10.3825,32.6909-3.3887,46.0842-35.1664,46.8907-27.4058.6954-56.9205,3.4367-80.02-10.95-32.5534-20.2742-51.6884-7.8728-73.6015,21.0808,68.3732,15.0147,133.0738,33.8608,201.4223,33.6613,31.0984-.0908,46.8372-13.9226,50.1833-45.9984,5.4867-52.5945,13.9336-104.88,21.6187-160.84C1299.6776,724.8748,1265.5064,738.5136,1229.8469,754.3737Z" fill="#f0714a"/><path d="M1610.1505,34.4574c-41.8963,4.7087-78.564,16.8731-107.7567,46.0616-9.9906,9.9891-16.622,22.3461-14.0432,36.5687,6.852,37.79,19.4553,73.6019,47.3017,101.3238,23.5876,23.4821,45.4984,19.9387,56.2149-10.5621,16.0442-45.6642,22.8571-93.9447,47.1409-137.6268C1649.95,50.54,1630.3952,36.711,1610.1505,34.4574Z" fill="#f0714a"/><path d="M938.04,982.4l-34.1508-24.69c-17.9153,13.4657-35.6681,25.71-52.1052,39.5194-12.6316,10.6119-16.8079,26.6659-10.3867,40.9726,8.8672,19.7571,29.6122,16.168,46.3107,15.0365,13.4419-.9108,31.1419,2.2317,35.6612-18.8623C926.7593,1018.5525,932.0943,1003.1451,938.04,982.4Z" fill="#f0714a"/><path d="M24.4554,339.6846c12.7349-.8725,19.2-14.5739,34.86-12.8857,108.6028,11.7067,207.6976-22.6779,302.4559-69.7662,47.7517-23.7293,96.267-31.3362,147.7491-27.64,35.4734,2.5467,67.3741-7.1734,93.9183-29.1546,111.3174-92.182,237.9568-89.102,368.57-60.6635,23.8484,5.1926,46.8405,15.0711,69.6059,24.3174,42.3792,17.2126,86.4246,25.1557,130.94,15.5824,58.6252-12.6077,117.5382-7.8907,176.1284-6.6128,44.1517.963,82.08-7.9664,114.6394-37.8063" fill="none" stroke="#000" stroke-linecap="round" stroke-linejoin="round" stroke-width="2"/><path d="M1651.6236,32.7407c9.587,26.8351,5.565,49.8646-11.5309,74.193-19.95,28.39-19.3879,65.0871-29.3482,97.7126-15.1711,49.694-49.3991,60.0267-85.818,24.3329-28.55-27.9817-49.891-62.3655-52.4408-102.1716-3.1542-49.2424,37.7617-97.8507,97.3479-100.3236C1671.8206,22.2513,1778.61,3.23,1868.9918,77.2558c23.7131,19.4219,54.8407,21.8674,85.5565,21.2174,27.0551-.5725,63.4368-9.2987,71.8875,24.7485,8.47,34.125,4.3022,73.223-23.1979,101.4546-19.5393,20.059-46.605,28.2393-72.986,37.98-53.7108,19.8316-108.1338,37.162-164.1093,47.8617-92.2448,17.6326-145.6937,76.2993-189.741,155.1778-39.6389,70.9843-78.5809,144.739-149.4682,193.8633-40.5008,28.0668-83.7573,43.1706-131.2526,53.4391-52.1989,11.2856-99.8286,35.4371-139.3138,72.8388-31.625,29.9562-61.4217,61.15-97.4729,87.0372-43.8491,31.4865-35.6246,65.8822,15.5557,88.86,9.4784,4.2554,20.1164,6.7582,28.42,12.618,14.95,10.55,35.6645,19.1979,20.8616,44.8-13.3337,23.0611-31.7933,32.2873-57.4518,24.3681-39.1737-12.09-75.455-35.6854-104.5384-59.5466-60.3561-49.5188-127.3162-89.629-186.9129-139.9722-30.953-26.147-38.49-50.1218-24.3622-87.0969,18.0722-47.3,5.2366-80.94-40.4551-118.3314-22.5849-18.4818-44.9735-37.7352-69.7232-52.9434-82.9745-50.9861-126.1588-124.57-125.7929-221.3863.1127-29.83-17.25-39.0948-37.7485-39.9686-43.0508-1.8354-84.9733-1.4582-127.455,18.213-87.8071,40.659-182.8969,40.8964-277.7575,33.9822-26.5108-1.9323-38.76-28.1376-61.4061-36.7854" fill="none" stroke="#000" stroke-linecap="round" stroke-linejoin="round" stroke-width="2"/><path d="M1352.7977,708.0173c-2.2613,66.2218-13.96,131.3072-25.0125,196.3674-4.6991,27.6621-24.3563,36.4107-52.732,37.6461-80.6931,3.513-156.4755-19.6546-233.3618-37.5694" fill="none" stroke="#000" stroke-linecap="round" stroke-linejoin="round" stroke-width="2"/><path d="M1209.5251,757.1283c17.0588,24.6569,17.9021,55.0506,28.9526,81.7283,9.4392,22.7878-.797,28.6494-20.7657,28.7627-34.8362.1978-70.2369,2.5976-98.244-24.5467" fill="none" stroke="#000" stroke-linecap="round" stroke-linejoin="round" stroke-width="2"/><path d="M963.9148,482.9251c45.62,51.95,33.9415,112.39,24.2442,171.8369C980.3572,702.59,947.59,738.102,923.2058,777.73c-12.4879,20.295-15.3391,40.0471,7.7707,57.41,33.3759,25.0766,50.2858,71.0352,98.4343,77.506" fill="none" stroke="#000" stroke-linecap="round" stroke-linejoin="round" stroke-width="2"/><path d="M894.3252,941.2946c-19.103,16.37-39.34,31.6163-56.9974,49.42-18.4949,18.6487-21.943,48.1311-6.7623,63.4527,14.8357,14.9732,39.3062,32.4448,68.0051,18.4,21.6752-10.6075,47.5032-14.1919,42.0436-49.6155-1.4848-9.6338,12.3846-21.6329,19.2071-32.5464" fill="none" stroke="#000" stroke-linecap="round" stroke-linejoin="round" stroke-width="2"/><path d="M984.3823,695.74c5.458,0,11.5567,1.59,16.2525-.3015,13.4752-5.428,29.0195-7.8554,35.9,4.9645,5.4009,10.0637,3.1241,24.2564-6.6585,36.63-28.5089,36.061-47.7428,78.8727-80.2886,112.1785" fill="none" stroke="#000" stroke-linecap="round" stroke-linejoin="round" stroke-width="2"/><path d="M1807.5436,85.2845c-11.8263,16.0936-23.0882,33.4161-49.8739,28.4387,5.3757-44.9564,26.11-40.9319,51.2846-26.5955C1809.1445,87.3717,1807.5436,85.2845,1807.5436,85.2845Z"/></svg>