<svg width="71" height="75"  xmlns="http://www.w3.org/2000/svg" viewBox="0 0 2042.5651 1425.6"><path d="M1293.5541,874.86c-177.2383,43.5452-344.6193,12.5113-506.905-64.4239C663.7655,752.18,663.594,753.7133,591.5934,865.5887c-16.7782,26.0707-33.7147,54.2245-57.12,73.4579-89.8345,73.82-99.9273,170.399-86.6673,275.6261,2.2663,17.9858-.51,37.238,18.9083,47.8244,25.33,13.809,56.3275,26.1,35.59,63.3055-17.61,31.5935-51.6944,15.7583-78.29,19.7423-36.5031,5.467-51.6268-18.8764-55.4843-50.52-5.9613-48.9062-8.4492-98.27-15.4824-146.996-3.14-21.7477-13.7431-42.4178-21.834-66.1421-55.4638,58.7565-66.9319,191.91-24.4613,253.1243,15.6935,22.6186,48.1423,41.7,23.9011,72.8264-22.3832,28.74-58.1131,14.2108-88.2081,13.2066-34.9747-1.1675-50.6935-25.8365-52.6339-56.799-3.4082-54.4109-.6446-109.2618-5.1705-163.5363-6.502-77.985-13.8917-150.3995,54.6373-213.84,27.4722-25.4327,17.92-81.7281-7.95-130.0853-53.2952,87.7252-103.0135,169.2885-175.3747,232.7391-10.6506,9.3384-25.7448,18.1084-44.83,11.6078-27.5275-33.4243,2.8061-57.4757,18.3009-80.419,69.2826-102.5861,123.0589-212.4992,137.08-335.74,27.9735-245.8817,150.1577-331.4242,427.2033-365.29,135.4495-16.557,275.2672-4.7791,412.5175,3.71,76.1024,4.707,150.1815-1.38,224.9076-8.4927,131.6944-12.5352,188.1777-117.0015,245.6282-212.6295C1540.7754-4.2866,1703.8758-38.3875,1790.2635,52.21c49.2209,51.6186,101.4518,74.3342,170.682,74.8982,78.1229.6366,101.104,42.8278,64.8767,112.2225-30.4055,58.2421-83.73,95.6942-145.1692,88.0159-165.168-20.6416-202.14,107.905-247.853,212.5131-42.2043,96.5795-74.55,197.5959-118.6626,294.5713-61.2475,134.6431-36.7171,280.061-26.0969,422.0624,2.5288,33.81,35.1725,41.6748,56.2032,59.5869,14.95,12.7321,20.1636,29.6454,9.7922,55.7487-44.51,5.6962-92.2962,14.3033-140.42,17.0939-32.0482,1.8584-131.3256-96.1287-132.09-131.598-2.6231-121.6509-2.1153-243.374-1.9552-365.0685.0086-6.6014,7.7007-13.1926,11.87-19.703,60.1641,32.835,78.2134,88.0668,76.566,151.0305-1.7656,67.4566-11.089,134.8147-10.9375,202.2017.3221,143.5556,21.1632,157.2114,169.4538,118.9727-15.46-26.897-53.8592-32.6344-59.6076-67.001-25.1279-150.2275-37.486-304.5269,21.2546-445.2839,39.5974-94.8852,79.9247-177.2988,26.7762-276.0114-.2248-.4175,6.9785-4.8339,11.0661-7.6241,29.7786,10.1756,18.1856,52.3676,55.2961,66.5746,21.6262-79.2949,37.647-160.684,103.8606-217.51-99.1555-57.749-140.6662-157.8954-221.7162-222.2206-25.0745,29.0978-52.2833,59.5771-78.2553,91.0758-35.4174,42.9538,17.5729,80.426,13.3138,122.633-27.0049-3.0248-32.4494-21.9128-40.071-37.86-9.089-19.0143-16.7954-43.0641-43.625-32.1841-29.8767,12.1165-18.39,37.1465-12.45,60.1441,7.0137,27.154,32.5055,51.4572,16.9459,87.7032-41.8575-34.7525-36.8256-89.4014-69.9371-126.27C1081.85,360.0025,912.1949,352.72,744.9288,337.1417,586.2957,322.3676,461.9919,387.2161,335.99,461.5794c-13.01,7.6787-23.6753,20.4523-33.3107,32.5488-59.9445,75.2518-80.1529,157.0771-58.8173,254.2045,23.72,107.9856,75.365,222.56-31.1582,320.0965-13.9765,12.7981-10.3267,33.9362-9.3772,52.2678,3.615,69.7817,6.7612,139.5878,10.4882,209.3633,3.8565,72.2042,13.8993,78.1462,90.9731,55.0965-74.4017-110.3362-63.5762-300.9262,58.81-389.5363,137.8892-99.8344,235.58-235.0133,230.656-419.9555-.2949-11.0815,7.3144-18.4552,22.762-13.3427,10.73,61.1768-.7666,121.6568-18.2913,188.5692,35.8823-1.5836,67.648-2.9854,101.36-4.4733C676.23,678.947,633.7377,620.737,652.111,548.277c23.5195,90.5953,52.4524,181.5667,134.6015,229.3112,135.5743,78.7946,285.0445,109.56,442.9568,84.0387,25.3089-4.0905,43.0628-11.618,47.4153-41.3778,8.62-58.9509,19.874-115.7539,8.099-177.41-14.4248-75.5393-49.2057-144.13-75.72-233.611,45.1981,30.4275,54.17,63.8778,66.0526,93.0645C1325.0592,623.9876,1330.7047,748.58,1293.5541,874.86ZM495.4655,920.8115c12.26,4.1176,17.6082-1.0055,17.6577-13.21,46.4992-24.0278,70.8024-62.0254,71.9944-114.1705q1.2591,1.2935,2.5183,2.5874l.2429-4.68c-34.5579,32.9467-61.5042,70.6394-73.413,117.7-11.2981-2.5971-15.2319,4.2875-17.2728,13.5925q-8.9277,7.0194-17.8554,14.0389c-86.2653,58.3718-154.1163,122.6276-94.7907,240.2785,10.6821,21.1846,5.2206,51.1862,4.9357,77.0917-.7161,65.1529,25.6728,85.4849,91.4543,51.4265-60.015-30.1892-56.7444-83.2948-63.6024-137.6028-11.1065-87.952,32.9363-157.2758,60.5834-232.5669C491.6409,940.0071,498.2335,936.0786,495.4655,920.8115ZM262.2741,481.0633l28.4717-3.199-5.1185-1.8212q3.5924-1.752,7.1852-3.504a15.18,15.18,0,0,1-2.4435,4.897c-9.9046,1.8422-19.8087,3.6845-29.5113,5.5549l.8237,3.8856ZM1830.4393,133.3308l1.757,1.9051c-12.4887-12.8986-25.8568-25.0646-37.3173-38.82-58.7568-70.518-167.3243-89.3436-243.4091-41.6718-61.1035,38.2856-66.5756,85.5219-16.7077,144.2315C1567.364,97.7784,1622.7382,60.75,1732.0984,71.8593c.6594,77.6284-2.5011,157.3588,22.5924,231.7211,140.6367,16.5327,200.1862-4.01,247.2213-82.5091C1969.7744,142.5209,1896.4527,145.1379,1830.4393,133.3308ZM1707.8986,90.7274c-65.2207,19.6669-127.803,20.8756-131.39,92.7355-4.4116,88.3418,53.0941,160.0415,130.47,169.8464C1731.8783,269.2746,1691.91,186.608,1707.8986,90.7274ZM41.1077,1056.55c146.4417-117.7393,214.0464-282.1482,148.325-359.7086C170.8631,830.4472,114.6328,946.3009,41.1077,1056.55Zm1274.5681-99.659v303.84C1307.6407,1159.545,1367.296,1058.0928,1315.6758,956.8911Z"/><path d="M1293.5541,874.86c37.1506-126.28,31.5051-250.8726-18.0378-372.5678-11.8827-29.1867-20.8545-62.637-66.0526-93.0645,26.5142,89.4812,61.2951,158.0717,75.72,233.611,11.775,61.6563.5212,118.4593-8.099,177.41-4.3525,29.76-22.1064,37.2873-47.4153,41.3778-157.9123,25.5211-307.3825-5.2441-442.9568-84.0387C704.5634,729.8437,675.6305,638.8723,652.111,548.277c-18.3733,72.46,24.1193,130.67,47.9732,198.1412-33.7118,1.4879-65.4775,2.89-101.36,4.4733,17.5247-66.9124,29.0215-127.3924,18.2913-188.5692-15.4476-5.1125-23.0569,2.2612-22.762,13.3427,4.9237,184.9422-92.7668,320.1211-230.656,419.9555-122.3863,88.61-133.2118,279.2-58.81,389.5363-77.0738,23.05-87.1166,17.1077-90.9731-55.0965-3.727-69.7755-6.8732-139.5816-10.4882-209.3633-.95-18.3316-4.5993-39.47,9.3772-52.2678,106.5232-97.5364,54.8787-212.1109,31.1582-320.0965-21.3356-97.1274-1.1272-178.9527,58.8173-254.2045,9.6354-12.0965,20.3-24.87,33.3107-32.5488,126.0022-74.3633,250.306-139.2118,408.9391-124.4377,167.2661,15.5782,336.9215,22.8608,504.4449,3.7829,33.1115,36.8683,28.08,91.5172,69.9371,126.27,15.56-36.246-9.9322-60.5492-16.9459-87.7032-5.94-22.9976-17.4262-48.0276,12.45-60.1441,26.83-10.88,34.536,13.17,43.625,32.1841,7.6216,15.9473,13.0661,34.8353,40.071,37.86,4.2591-42.207-48.7312-79.6792-13.3138-122.633,25.972-31.4987,53.1808-61.978,78.2553-91.0758,81.05,64.3252,122.5607,164.4716,221.7162,222.2206-66.2136,56.8257-82.2344,138.2148-103.8606,217.51-37.11-14.207-25.5175-56.399-55.2961-66.5746-4.0876,2.79-11.2909,7.2066-11.0661,7.6241,53.1485,98.7126,12.8212,181.1262-26.7762,276.0114-58.7406,140.757-46.3825,295.0564-21.2546,445.2839,5.7484,34.3666,44.1481,40.104,59.6076,67.001-148.2906,38.2387-169.1317,24.5829-169.4538-118.9727-.1515-67.387,9.1719-134.7451,10.9375-202.2017,1.6474-62.9637-16.4019-118.1955-76.566-151.0305C1291.3865,872.4681,1293.5541,874.86,1293.5541,874.86ZM732.7832,586.4153c-10.2109,57.1019,9.2528,101.4656,56.7368,133.8018C777.19,672.7913,749.72,631.8642,732.7832,586.4153Z" fill="#fcfafb"/><path d="M1830.4393,133.3308c66.0134,11.8071,139.3351,9.19,171.4728,87.7405-47.0351,78.4986-106.5846,99.0418-247.2213,82.5091-25.0935-74.3623-21.933-154.0927-22.5924-231.7211-109.36-11.1092-164.7344,25.9191-197.3362,127.1165-49.8679-58.71-44.3958-105.9459,16.7077-144.2315,76.0848-47.6718,184.6523-28.8462,243.4091,41.6718,11.4605,13.7552,24.8286,25.9212,37.1086,38.597-27.629-13.0842-50.3853-16.7571-56.2851,24.2721C1805.1,163.8278,1817.46,148.0185,1830.4393,133.3308Z" fill="#fcfafb"/><path d="M1707.8986,90.7274c-15.9883,95.8806,23.98,178.5472-.92,262.5819-77.3759-9.8049-134.8816-81.5046-130.47-169.8464C1580.0956,111.603,1642.6779,110.3943,1707.8986,90.7274Z" fill="#fcfafb"/><path d="M477.6711,935.066c-27.4,75.5219-71.4431,144.8457-60.3366,232.7977,6.858,54.308,3.5874,107.4136,63.6024,137.6028-65.7815,34.0584-92.17,13.7264-91.4543-51.4265.2849-25.9055,5.7464-55.9071-4.9357-77.0917-59.3256-117.6509,8.5254-181.9067,94.9155-240.1549C479.5867,936.9168,477.6711,935.066,477.6711,935.066Z" fill="#fcfafb"/><path d="M41.1077,1056.55c73.5251-110.2492,129.7554-226.1029,148.325-359.7086C255.1541,774.4019,187.5494,938.8108,41.1077,1056.55Z" fill="#fcfafb"/><path d="M1315.6758,956.8911c51.62,101.2017-8.0351,202.6539,0,303.84Z" fill="#fcfafb"/><path d="M585.2,793.0839c-1.2744,52.492-25.5776,90.49-72.0763,114.5208l1.3606,1.4525c11.89-47.0794,38.8366-84.7721,73.3945-117.7188Z" fill="#fcfafb"/><path d="M291.01,477.6358l1.8023-5.0967q-3.5924,1.7521-7.1852,3.504c1.706.6071,3.4125,1.2142,4.7164,1.6826C289.9417,477.5871,291.01,477.6358,291.01,477.6358Z" fill="#fff"/><path d="M260.6557,482.9629c9.9046-1.8423,19.8087-3.6846,30.0339-5.4269.3206.1-.7479.0511-.3459.19-9.0885,1.2051-18.579,2.2714-28.07,3.3377Z" fill="#878787"/><path d="M587.8788,791.3384l-.2429,4.68a31.3063,31.3063,0,0,1-2.4769-2.7609A31.2787,31.2787,0,0,1,587.8788,791.3384Z" fill="#fff"/><path d="M262.2741,481.0633l-.5927,5.8133s-.8237-3.8856-.9247-3.9A22.6449,22.6449,0,0,1,262.2741,481.0633Z" fill="#fff"/><path d="M497.0991,922.5266c2.1348-9.2007,6.0686-16.0853,17.3757-13.4789.01.01-1.3506-1.44-1.3511-1.443-.05,12.2013-5.3977,17.3244-17.6582,13.2068Z" fill="#fcfafb"/><path d="M495.4655,920.8115c2.768,15.2671-3.8246,19.1956-17.671,14.37-.1234-.1152,1.7922,1.7356,1.6679,1.6122,5.827-4.8034,11.7788-9.4829,17.6834-14.2147C497.0991,922.5266,495.4655,920.8115,495.4655,920.8115Z" fill="#fcfafb"/><path d="M732.7832,586.4153C749.72,631.8642,777.19,672.7913,789.52,720.2171,742.036,687.8809,722.5723,643.5172,732.7832,586.4153Z"/><path d="M1830.4393,133.3308c-12.9794,14.6877-25.3394,30.497-54.7368,25.9544,5.9-41.0292,28.6561-37.3563,56.2851-24.2722C1832.1963,135.2357,1830.4393,133.3308,1830.4393,133.3308Z"/><path d="M1575.2381,260.4055c27.4413,57.5851,57.1055,113.0777,139.7753,125.103-95.2108,90.3143-109.3345,202.6538-147.5761,304.2025-7.835,20.8037-11.087,45.1857-24.1779,61.848-69.374,88.3028-79.2557,190.9452-77.3673,297.2056.4622,26.01,1.313,52.1061-.1572,78.0412-5.1414,90.6806-4.0876,178.6931,94.6382,234.8027-81.5235-8.3374-175.5061,64.99-219.3007-55.2628" fill="none" stroke="#000" stroke-linecap="round" stroke-linejoin="round" stroke-width="2"/><path d="M1223.99,416.516c22.8811,78.2158,59.63,150.4035,75.6913,233.1089,13.471,69.3632-10.8727,125.9381-13.6254,188.3727-1.4807,33.5472-33.4755,35.07-54.409,37.975-163.8217,22.7344-318.9-5.3768-460.0281-93.1587-87.9431-54.7-106.41-148.9839-125.2376-241.4095" fill="none" stroke="#000" stroke-linecap="round" stroke-linejoin="round" stroke-width="2"/><path d="M724.436,759.9591c-66.6557-6.0355-107.3774,17.7861-135.6677,84.6018-21.418,50.5856-69.5541,89.9927-106.3717,133.8959-74.4231,88.7466-66.6766,254.644,20.0622,331.7869-29.02,26.2663-67.4756,35.8888-97.1012,24.7929-35.8014-13.4088-34.2712-55.943-32.0582-91.1279,3.7679-59.9178-8.0252-116.834-31.3341-171.7287" fill="none" stroke="#000" stroke-linecap="round" stroke-linejoin="round" stroke-width="2"/><path d="M1387.9055,377.4884c-14.601-26.5759-29.2021-53.1517-43.5449-79.258-204.089,64.7233-408.6919,28.5453-612.1239,24.88-90.3609-1.6283-180.9072-1.3532-265.383,38.7672" fill="none" stroke="#000" stroke-linecap="round" stroke-linejoin="round" stroke-width="2"/><path d="M1309.85,916.07c35.0286,21.5131,46.6454,55.2726,46.6225,93.6661-.06,97.3184-25.53,192.004-20.52,289.9387-44.5215-42.7717-57.6829-257.7419-33.9081-383.6048" fill="none" stroke="#000" stroke-linecap="round" stroke-linejoin="round" stroke-width="2"/><path d="M334.16,1056.569c-83.2643,72.7713-86.67,215.8234-7.242,328.6326-23.3174,54.9755-70.5045,23.9625-101.5751,19.449-33.6723-4.8916-23.5038-46.8963-23.7048-74.8895-.5079-70.6323-.2525-141.034-14.9975-210.9137-6.2934-29.8246,6.322-56.2275,30.1087-78.2437,57.914-53.6051,57.561-118.4645,31.55-186.9784" fill="none" stroke="#000" stroke-linecap="round" stroke-linejoin="round" stroke-width="2"/><path d="M1973.32,143.3227c-79.029-6.5636-151.5026-23.4432-203.8374-92.994-39.868-52.9844-190.9085-40.679-240.7506-.2689-67.7353,54.9164-62.4052,106.0892,15.2842,179.1236" fill="none" stroke="#000" stroke-linecap="round" stroke-linejoin="round" stroke-width="2"/><path d="M1707.932,377.4884c42.1853-44.0066,32.3035-103.3061,19.248-147.0611-14.3038-47.9311-8.0914-89.2914-2.9519-140.4222-56.854-25.119-100.196,5.5763-140.7881,38.2-40.24,32.3407-23.8768,75.8189-16.0074,116.59" fill="none" stroke="#000" stroke-linecap="round" stroke-linejoin="round" stroke-width="2"/><path d="M185.8548,666.2928c-28.4117,149.8642-84.2686,288.336-182.6,409.1156,49.3224,27.9818,62.6958-9.0971,80.5445-27.22,61.742-62.6909,97.1093-144.9543,154.3177-212.1962,24.7315-29.0692-2.3463-78.4966-14.894-114.4824-25.6043-73.431-7.694-141.6172,9.4649-211.3277" fill="none" stroke="#000" stroke-linecap="round" stroke-linejoin="round" stroke-width="2"/><path d="M1988.9309,151.1282c48.3548,65.442,33.2363,110.4569-46.66,148.6678-63.013,30.1362-129.5248,21.4214-195.3115,23.0537" fill="none" stroke="#000" stroke-linecap="round" stroke-linejoin="round" stroke-width="2"/><path d="M607.3531,557.0154c15.0508,194.3509-86.5716,329.2753-226.2144,445.0909-14.0994,11.694-26.164,25.8425-39.1734,38.8519" fill="none" stroke="#000" stroke-linecap="round" stroke-linejoin="round" stroke-width="2"/><path d="M1473.7663,143.3227,1356.6834,291.6276" fill="none" stroke="#000" stroke-linecap="round" stroke-linejoin="round" stroke-width="2"/><path d="M451.2426,377.4884c-80.54,28.1754-160.8236,56.7982-225.8356,121.1141,50.3352,21.9871,30.67,40.2,7.281,58.4129" fill="none" stroke="#000" stroke-linecap="round" stroke-linejoin="round" stroke-width="2"/><path d="M1278.6282,330.6552c-2.99,48.937,27.1526,88.129,39.0276,132.6939" fill="none" stroke="#000" stroke-linecap="round" stroke-linejoin="round" stroke-width="2"/><path d="M732.2415,588.2375c.0829,49.5612,24.6052,88.4306,54.6387,124.8884" fill="none" stroke="#000" stroke-linecap="round" stroke-linejoin="round" stroke-width="2"/><path d="M1520.5994,541.4045q19.5134,46.8332,39.0276,93.6663" fill="none" stroke="#000" stroke-linecap="round" stroke-linejoin="round" stroke-width="2"/><path d="M310.7432,447.7381c-1.302,32.9559-36.11,43.5748-46.8331,70.25" fill="none" stroke="#000" stroke-linecap="round" stroke-linejoin="round" stroke-width="2"/></svg>