<svg width="71" height="75" xmlns="http://www.w3.org/2000/svg" viewBox="0 0 1331.65 961.36"><g id="Layer_2" data-name="Layer 2"><g id="Layer_2-2" data-name="Layer 2"><path d="M745.48,698.84s68.15,99.08,53.13,108.21S674.93,802.9,664,801.79s-41,47.6-29.4,54.24,224.07,27.67,240.24,15.5,16.17-180.43,0-213.64-41.58-67.52-57.75-62-75.08,35.42-79.7,45.38S745.48,698.84,745.48,698.84Z" fill="#ddd5cd"/><path d="M327.36,612.5s12.71,153.87,25.41,162.72S499.46,814.53,511,807.05s0-54-9.24-62.82S327.36,612.5,327.36,612.5Z" fill="#cbc0b4"/><path d="M1331.46,249.43s-77.77-23.62-94.71-28-41.58-57.56-41.58-57.56h-29.26S1041.16,186,1016.52,196.3s-117,94.45-117,94.45l-86.24,19.19L480.6,336.51,371.25,386.69l52.36,230.24,37,183,61.61,32.47s-12.32-2.95-20-4.42-12.32,4.42-38.5,45.75-17,44.28,15.4,51.66,13.86-10.33,24.64-31,118.58,11.81,134,0,97,42.8,120.12,59,29.26,2.95,57,0,49.28-20.66,60.06-39.85,0-20.66-15.4-26.57-12.32-4.42-27.72,7.38-37,0-53.9,0-101.64-60.51-101.64-60.51L748.56,738l29.26-72.32L804,674.49c170.94,16.24,201.74-54.61,255.64-116.59s30.8-90,30.8-90c49.28-17.71,64.69-124,64.69-124,23.1,7.38,87.78-21.4,109.34-20.67s20-25.09,20-25.09C1315.29,297.4,1333.77,258.28,1331.46,249.43ZM663.86,658.26C659.24,664.16,616.12,797,616.12,797s-47.74-10.33-49.28-26.56-50.52-164.6-32.34-152C562.22,637.59,668.48,652.35,663.86,658.26Z" fill="#a99682"/><path d="M1155.51,222.06s8.38-20.2,26.28-19.92,35.81,3.53,35.81,13.56C1217.6,223,1186.87,233.68,1155.51,222.06Z" fill="#231f20"/><path d="M460.57,799.94c3.92,35.08-59.29-67.89-70.84-129.88,0,0-242.55-57.56-270.27-225.81s71.61-210.59,127.05-203.81S526,284.58,630,240.44,796.3,194.08,821.71,229.5s113.77-109.83,221.76-117.33C1099.68,108.27,1208,134.31,1208,182c0,0-15.9-6.38-35.92,14.29s-106.27,45.75-120.13,49.44,43.89,168.25,33.11,219.17-74.69-9.59-153.23,22.88S817,714.39,750.1,734.15c-5.39,1.59-88.55-56.71-86.24-75.89s8-37.64.14-44.28-134.89-33.41-141-51.39-13.09-96.2-28.49-118.34-26.18-23.61-40-28S429.77,524,460.57,799.94Z" fill="#262627"/><polygon points="1044.24 125.45 1125.87 0 1142.04 140.95 1044.24 125.45" fill="#262627"/><path d="M75.41,618.24S266,406.79,298,391.6s-87.41-109-118.33-130.43S44.28,556.35,38.2,593.59,75.41,618.24,75.41,618.24Z" fill="#262627"/><path d="M1101.75,119.78c7-24.66,12.43-98.26,12.39-98.61l-41.85,85.68C1070.27,111,1087.92,116.3,1101.75,119.78Z" fill="#f8c1d9"/><path d="M45.46,538.19C35.59,576.09,7.06,669.45.35,686.42s85.34-26.91,102.87-54.75,10.81-81,6.62-86.7-7.13-10.18-20.14-10.18S45.46,538.19,45.46,538.19Z" fill="#a99682"/></g></g></svg>