<svg width="71" height="75" xmlns="http://www.w3.org/2000/svg" viewBox="0 0 2056.0995 949.0961"><path d="M1696.2632,491.8513c14.579,1.2508,26.4845,2.1134,38.3553,3.3191,44.3136,4.5007,81.3875,22.8787,109.3026,58.1151q17.0949,21.5781,33.01,44.0864c25.87,36.53,58.4189,64.2312,100.8035,80.142,19.85,7.4516,39.218,16.4646,55.3125,30.8964,20.3327,18.232,28.01,43.2767,19.8314,64.9922-4.6933,12.4617-11.9147,22.3172-26.8026,23.279-3.9794.2571-8.031.6054-10.9817,4-22.9543,26.4123-49.7735,21.05-76.6291,8.2656-8.7147-4.1486-16.2213-6.1227-25.8875-4.0866-27.0722,5.7023-46.5486-6.2562-61.1311-28.4179-12.6153-19.1715-21.1852-40.8049-35.7507-58.7626-11.3131-13.948-13.0036-14.4331-33.633-10.9337-.63,8.1289-1.1663,16.5909-1.962,25.0283-1.7391,18.44-2.6424,37.3516-24.0564,45.4576a6.6835,6.6835,0,0,0-3.6456,3.51c-9.48,28.5683-33.8817,27.2543-56.69,27.7081-38.5334.7665-76.593-5.963-114.9155-8.7524-37.7041-2.7444-72.5152,1.2915-103.4389,26.5754-20.333,16.6248-43.284,30.1516-65.6033,44.2066-19.0244,11.98-39.6187,20.63-61.9343,24.8386-30.6925,5.7891-56.9761-2.0412-77.7453-25.56-5.9287-6.7135-10.533-9.3894-20.191-6.58-29.446,8.5659-58.7767,10.801-85.1529-9.9572-6.4581-5.0825-14.2549-3.8892-21.5913-2.8972-15.3455,2.0749-30.7039,4.2322-45.9107,7.1259-45.2509,8.6106-85.4275-2.2193-120.5655-31.4828-9.4995-7.9113-18.43-10.6856-31.1784-8.4723-32.5622,5.6535-64.6061,6.7359-94.5361-13.0886-15.0486-9.9675-33.5115-5.23-50.4844-2.4884-12.7547,2.06-25.3246,5.265-40.3977,8.476,8.1073,9.1951,16.9466,11.9074,24.6276,16.2051,14.0328,7.8516,28.3531,15.2682,39.2358,27.5426,13.414,15.1294,13.7008,32.2054,6.4333,49.902-6.74,16.4131-21.63,14.9266-35.3061,14.5463-69.3446-1.9277-136.79,13.4391-204.8876,22.5262-110.7345,14.777-219.7616,10.5538-326.3718-25.59-78.6695-26.671-140.2845-73.9833-180.5064-147.957C62.8275,726.2618,38.301,686.1985,20.421,642.381-11.8011,563.416-5.1777,487.6065,35.25,413.8066c49.7375-90.7943,125.732-153.6534,215.55-201.648a64.5524,64.5524,0,0,1,6.1476-3.0942C406.8742,148.5414,556.0226,85.8211,714.3589,49.35c42.8908-9.8795,86.7815-7.1415,130.11-11.4932C969.4709,25.3025,1094.3974,11.5409,1219.6385,2c75.1415-5.7245,150.4145.3921,222.8358,24.1925,92.6806,30.4583,141.6567,95.1759,146.9059,192.7247,1.087,20.2014,12.385,34.0659,25.86,46.861,15.5286,14.7453,34.4862,24.6384,52.5676,35.7275,58.713,36.0083,73.1316,78.987,47.8555,143.3242C1709.81,459.7278,1703.4664,474.433,1696.2632,491.8513Zm-133.15-292.4182c0-6.84.2088-8.4992-.03-10.091-11.2885-75.24-59.1269-118.0371-127.4355-141.3577-62.1818-21.229-126.8364-27.5653-191.9517-23.1511C1133.2155,32.3228,1022.829,41.4145,912.52,51.165c-72.4706,6.4058-145.395,8.1173-216.8937,24.8478-119.6352,27.9943-231.8615,76.5878-345.5689,121.1514C308.3686,213.5028,267.72,232.24,228.726,254.4026c-60.5871,34.4344-113.0953,77.8323-154.8928,134.296-44.5778,60.2195-56.5794,126.4186-42.75,198.962,11.9,62.4239,44.7595,114.8687,76.6262,168.1536,47.8784,80.0586,118.2493,127.6779,207.8025,149.4423,88.8463,21.5928,178.5557,19.8765,268.7158,11.9722,74.7275-6.5513,147.9792-27.61,223.8634-22.7558,1.4175.0906,2.9261-1.2419,5.4769-2.4048-3.7162-20.1972-15.5958-33.9865-32.4292-44.1047-16.9536-10.19-35.7728-15.2981-54.917-19.397-84.4456-18.0809-170.3953-23.3895-256.1542-30.5118-49.2418-4.09-98.39-9.8371-144.8983-27.8378-53.5139-20.7121-97.0848-53.9413-125.1408-105.1319-9.3024-16.973-14.5394-35.1516-9.34-54.65,2.8014-10.5054,7.9653-18.7552,22.763-14.1643-14.4861,42.1525,8.5629,69.6122,35.4656,95.5242,3.715,3.5781,7.7553,6.82,11.6709,10.1876,44.523,38.2892,96.6155,58.3032,154.4669,65.657,57.497,7.3087,115.38,10.5416,172.8549,18.305,65.0812,8.7908,130.5131,19.1622,195.5641-1.637,8.6838-2.7766,18.0941-3.194,26.96-5.5042,21.657-5.6435,41.5757-3.0328,61.13,8.575,24.2377,14.3875,50.267,9.3213,78.1674,5.8295-10.0234-24.0026-20.3452-45.182-27.7366-67.34-8.7177-26.1336-30.036-40.1094-49.7064-55.421-11.3549-8.8388-25.424.7746-38.3413.0059-9.126-.5433-18.3448.7486-27.5179.6763a816.6472,816.6472,0,0,0-145.5932,12.2233c-22.8561,3.9433-45.9416,6.5555-68.9231,9.7708l-.9207-5.6c72.59-31.4478,149.1765-41.7747,228.5691-39.1627-53.0564-15.6927-105.6878-29.8647-161.6431-24.493-54.5231,5.2342-107.2847,18.7389-160.3492,31.0676-35.043,8.1417-70.2742,11.6342-105.5775,2.0832-8.7138-2.3575-19.0659-3.9764-22.1118-15.8656,7.2451-2.2062,13.3452-.2348,19.3662,1.2643,29.0435,7.2308,57.83,5.858,86.906-.6314q57.9312-12.9294,116.29-23.9252c68.0079-12.8625,136.3312-20.5552,205.0761-5.6252C876.787,629.4509,936.4144,670.6153,963.7,750.57c2.5892,7.5868,5.9261,14.9347,9.1867,22.2732,20.3652,45.8328,65.7791,68.53,116.8432,58.4827-24.7623-26.927-29.6247-41.6806-25.3156-80.692,1.5724-14.2358,4.2428-28.3676,6.8685-42.4619,1.2-6.4427,2.169-11.8262-3.93-16.95-13.1456-11.0444-19.7137-26.5631-26.1872-41.9354-11.3818-27.0285-18.5088-55.4922-27.8521-83.2057-28.0626-83.238-68.0766-159.3035-144.3475-208.1235-85.9552-55.0187-181.8384-77.8569-283.4969-74.8309-52.156,1.5525-103.77,11.978-156.1284,11.75-21.3408-.093-42.4153-2.2167-62.3949-10.5436-10.1828-4.2439-14.0051-9.7313-2.6726-19.1049,5.4409,4.6852,10.3406,9.2928,18.53,9.4625,43.62.9041,87.2546,2.3468,130.7026-2.6283,72.5427-8.3068,143.894-11.0134,216.85,5.1682C880.535,310.54,983.248,393.6825,1030.9024,541.6714q13.4526,41.7767,28.2566,83.1133c5.93,16.5785,12.8288,32.8612,24.3524,47.3349,28.3227-42.749,35.7389-87.8539,19.0948-133.829-13.5973-37.5593-14.8874-75-7.3911-113.4956,1.84-9.4473,3.1958-18.989,4.7741-28.4873-11.1393,20.13-17.0585,42.1873-28.3005,61.93-8.0119,14.0706-16.8559,27.3309-31.0084,36.1963-10.8344,6.787-18.1559,4.7461-22.2385-7.6913a80.4805,80.4805,0,0,1-3.2078-35.73c13.15-102.7849,56.258-186.0561,152.9224-234.2895,7.1376-3.5615,14.019-8.6383,26.944-6.2278-40.39,36.5487-91.095,56.2018-116.5158,104.6-24.5385,46.7185-38.4695,95.5635-39.6254,148.4117,18.0585-53.3026,55.4353-96.2442,80.1463-146.6286-9.0447-2.393-14.199,5.5938-20.3643.4479,16.4048-24.9991,29.1085-32.01,49.2245-25.7534-22.1566,47.1347-23.55,98.7287-32.8832,148.7207-5.98,32.0324-4.5268,62.7606,7.8753,92.8849,14.5994,35.4607,12.6057,70.6952-1.7746,105.5791-9.4008,22.8046-19.7611,45.2158-29.0242,68.0739-10.1837,25.13-12.9261,51.1278-5.7229,77.585,2.8667,10.5293,7.4228,20.2963,17.6767,25.824-3.6842-16.0128-9.9759-30.8012-10.9306-47.0138-2.1121-35.8694,16.0864-55.3843,51.8159-55.1562,22.9111.1461,44.125,7.2055,64.3054,17.1979,22.6288,11.205,30.2454,30.7366,21.9905,54.7437-7.1811,20.8844-21.0362,36.54-39.2693,48.6674-3.4451,2.2916-9.3306,2.4545-9.1649,8.6836,37.563,18.0415,63.2,14.7,92.02-14.0662,47.77-47.68,85.9281-103.1287,123.8842-158.4869,15.0615-21.967,32.4466-36.8379,58.732-43.8,55.1276-14.6007,97.1544-70.6409,97.4-127.8065.0986-22.9252-2.1724-45.8515-2.7217-68.7928-.2343-9.7856-.695-20.0831,6.5984-29.5279,8.8316,10.2337,2.4639,25.5565,14.9385,33.5221,8.8949-3.3355,18.6744-6.0053,25.0165-12.6706-6.5246-37.1407-44.96-39.9115-68.71-65.2825,43.6407,3.0512,71.9318,21.2777,91.331,54.0671,16.2688,27.4982,23.9452,58.246,33.1471,88.4273,2.1823,7.1575,2.6912,15.2337,9.43,22.7564,7.7011-28.53,22.0081-52.4,30.8681-78.4016,21.6824-63.6308,6.59-98.0082-43.7417-122.539-49.874-24.3075-83.9609-62.59-109.65-110.2269-29.9024-55.45-69.6555-101.9017-124.3737-134.47-.8913-.5306-.8966-2.5507-2.0776-6.2871C1484.8583,85.8874,1527.43,134.9626,1563.1136,199.4331Zm462.4756,571.9315c9.815-17.0917,6.2306-29.4571-5.26-40.4471-13.0955-12.5252-28.8842-21.2881-45.7039-26.8995-43.8928-14.6438-75.8839-43.7034-102.9928-79.8644-17.5467-23.4056-35.6613-46.4624-56.9576-66.732-30.9862-29.4926-66.9685-45.487-110.6061-42.3756-11.3441.8088-18.015,3.6678-19.1393,16.4207-.7085,8.0369-1.1572,18.9086-11.038,21.3747-11.4989,2.87-19.318-5.4132-25.64-13.9209-4.0846-5.497-7.3549-11.62-10.7663-17.59-2.29-4.008-4.1029-8.2607-9.3878-9.2124-16.67-3.0018-33.3271-6.07-51.7194-9.4281-2.4208,38.0506-24.6418,65.0848-44.3173,96.6364,62.8058-.3223,119.3892,12.3614,176.1679,23.7781,3.6945.7428,8.4139,3.652,11.3346-.0708,6.806-8.675,12.4136-2.322,17.5973,1.1712,9.7209,6.5513,15.558,16.66,21.9571,26.2141,5.7323,8.558,11.5539,17.1091,18.0405,25.09a17.2532,17.2532,0,0,0,18.602,6.03c8.2819-2.1666,9.4242-8.87,10.2849-16.034.77-6.4071.1165-13.4585,5.43-19.0295,13.0943,5.6079,12.1619,16.0534,11.67,26.5042-.3441,7.318-5.2614,16.5844.25,21.66,22.9479,21.1312,33.5812,50.57,52.2988,74.4,8.2323,10.4807,16.5324,20.44,33.1032,13.3595,17.0628-7.291,14.4112-20.4311,11.7156-33.2317-2.8914-13.7309-7.7134-27.0551-12.0864-41.8927,28.7052,13.5251,40.2279,33.7087,37.2722,62.77-1.9793,19.4574,1.3762,24.3306,20.3639,24.7424,34.045.7383,40.3361-12.5725,31.1023-41.2114-2.7326-8.4753-9.3108-15.673-13.8282-23.6258-1.9961-3.5143-7.6085-5.8465-3.9182-12.5682C2004.6945,725.7306,2014.6771,747.5623,2025.5892,771.3646ZM1385.3245,823.36c-6.3986,16.2581-13.4785,21.1579-28.2815,20.0394-13.0515-.9861-24.0083-7.2133-34.5135-14.4-14.22-9.7283-27.9689-5.95-36.4036,11.4109-7.3579,15.144,5.8939,20.0018,15.3072,25.7034,6.3868,3.8685,14.0018,4.8783,21.5477,5.2394,22.2568,1.0645,43.6583-2.6735,63.0854-13.6672A1252.3674,1252.3674,0,0,0,1523.98,767.001c11.6171-8.7716,18.1-20.295,21.3466-34.2068,8.62-36.9419-15.2674-84.0779-50.0176-98.5016a24.34,24.34,0,0,0-14.9918-1.5845c-58.5227,12.1249-81.1608,61.2512-112.3135,104.8931,13.6775,2.9882,13.8239-5.4482,16.3132-11.2881,10.3182-24.2062,27.4865-40.8128,53.593-46.4752,11.2373-2.4373,20.06-6.4584,25.9746-17.2151,5.7491-10.4557,14.7926-12.067,25.5827-5.3935-5.962,9.9972-19.1091,11.0293-22.0082,22.3778-2.6943,10.5462-10.5,16.4115-20.2976,19.14-22.0229,6.1335-37.049,19.6788-45.4708,40.7792-4.5864,11.4911-13.1775,17.9287-24.8156,21.8155-12.9943,4.34-26.2327,8.6237-37.0976,17.6007-9.519,7.8651-12.2229,17.928-8.0541,29.3584,3.8843,10.65,12.7373,13.9034,23.3406,14.0475C1364.7364,822.48,1374.4873,819.8934,1385.3245,823.36Zm-244.771-93.7612c-10.8369-.1224-21.9,2.0083-26.7313,13.397-8.9264,21.0439,3.5282,56.95,23.2949,68.5706,8.2741,4.8641,17.2259,9.8379,27.4294,5.2221,15.2422-6.8947,29.38-15.48,39.5791-29.1886,13.3732-17.9754,11.2439-30.6436-7.3946-42.8388C1179.89,733.7419,1160.6271,731.1408,1140.5535,729.5992Zm554.2839-84.57c-55.978-16.1467-113.0023-22.3785-173.7852-22.7809,24.5393,29.9284,49.2526,48.3942,87.7343,38.4609C1636.8537,653.4645,1665.382,647.0443,1694.8374,645.0294Zm-128.2919,32.0033c1.4675,54.4064,7.3241,49.326-19.3357,106.2534l33.1492-2.827c-3.1344-20.4584,9.5641-37.4387,5.2883-57.2234-5.5448-25.6571,10.5686-38.5288,35.7569-29.9119,8.4054,2.8755,16.3993,6.955,25.7056,10.969,2.1449-16.6749,11.4947-26.6017,24.7521-34.0906-18.253-2.4257-34.056,6.6537-51.0665,6.7973C1603.13,677.1486,1585.4622,677.0327,1566.5455,677.0327Zm35.9658,31.4438c-.8946,6.3582-1.89,11.3492-2.2491,16.3857-.9757,13.6908-1.4394,27.4212-2.584,41.0958-.6987,8.3466,3.4991,11.2349,10.8758,11.9322,9.9153.9374,19.4284-.3227,28.3577-4.81,22.9946-11.5561,25.5442-35.1243,5.2108-50.8865C1631.1461,713.6844,1618.866,707.864,1602.5113,708.4765Zm19.9121-224.7921c-.4748-11.6984-3.7276-22.0364-7.5095-32.0883-2.0244-5.3807-3.9041-15.045-11.8274-11.2487-9.3953,4.5014-24.6169,3.9927-25.2981,18.9417-.321,7.0448-3.23,18.3131,7.066,20.7392C1596.7436,482.83,1609.1488,486.0976,1622.4234,483.6844Zm48.57,277.1944c17.8259,1.515,27.6917-5.8938,30.8852-22.2929-9.186-9.9892-14.6427-28.6652-34.8043-14.3487C1672.3894,735.934,1670.6007,748.4958,1670.9932,760.8788Zm24.085-59.987c.37-13.0878-7.3355-13.1489-14.8881-12.5993-7.9087.5757-15.6942,1.9526-15.9762,13.4014C1674.8386,705.2754,1684.4407,703.1048,1695.0782,700.8918ZM1711.3757,755.3c10.5168,5.603,19.6663,5.7624,27.48-1.91a5.5826,5.5826,0,0,0-2.9259-9.5324C1726.3941,741.9655,1716.301,740.5689,1711.3757,755.3Zm9.7914-100.61c9.8821,6.1417,9.5122,23.6332,26.7715,24.4725C1744.9955,662.9977,1736.1973,655.59,1721.1671,654.69Zm-11.5092,68.1293c12.4157,1.9525,22.0758,5.2661,32.5468-5.2516C1729.8892,714.3182,1720.4172,712.4089,1709.6579,722.8189Z"/><path d="M1563.1136,199.4331c-35.6835-64.47-78.2553-113.5457-148.1625-135.6543,1.181,3.7364,1.1863,5.7565,2.0776,6.2871,54.7182,32.5681,94.4713,79.02,124.3737,134.47,25.6891,47.6372,59.776,85.9194,109.65,110.2269,50.3319,24.5308,65.4241,58.9082,43.7417,122.539-8.86,26.0014-23.167,49.8714-30.8681,78.4016-6.7391-7.5227-7.248-15.5989-9.43-22.7564-9.2019-30.1813-16.8783-60.9291-33.1471-88.4273-19.3992-32.7894-47.69-51.0159-91.331-54.0671,23.75,25.371,62.1856,28.1418,68.71,65.2825-6.3421,6.6653-16.1216,9.3351-25.0165,12.6706-12.4746-7.9656-6.1069-23.2884-14.9385-33.5221-7.2934,9.4448-6.8327,19.7423-6.5984,29.5279.5493,22.9413,2.82,45.8676,2.7217,68.7928-.2458,57.1656-42.2726,113.2058-97.4,127.8065-26.2854,6.9618-43.67,21.8327-58.732,43.8-37.9561,55.3582-76.1144,110.8064-123.8842,158.4869-28.82,28.7662-54.4569,32.1077-92.02,14.0662-.1657-6.2291,5.72-6.392,9.1649-8.6836,18.2331-12.1279,32.0882-27.783,39.2693-48.6674,8.2549-24.0071.6383-43.5387-21.9905-54.7437-20.18-9.9924-41.3943-17.0518-64.3054-17.1979-35.7295-.2281-53.928,19.2868-51.8159,55.1562.9547,16.2126,7.2464,31.001,10.9306,47.0138-10.2539-5.5277-14.81-15.2947-17.6767-25.824-7.2032-26.4572-4.4608-52.4548,5.7229-77.585,9.2631-22.8581,19.6234-45.2693,29.0242-68.0739,14.38-34.8839,16.374-70.1184,1.7746-105.5791-12.4021-30.1243-13.8558-60.8525-7.8753-92.8849,9.3335-49.992,10.7266-101.586,32.8832-148.7207-20.116-6.2569-32.82.7543-49.2245,25.7534,6.1653,5.1459,11.32-2.8409,20.3643-.4479-24.711,50.3844-62.0878,93.326-80.1463,146.6286,1.1559-52.8482,15.0869-101.6932,39.6254-148.4117,25.4208-48.3981,76.1257-68.0512,116.5158-104.6-12.925-2.4105-19.8064,2.6663-26.944,6.2278-96.6644,48.2334-139.7723,131.5046-152.9224,234.2895a80.4805,80.4805,0,0,0,3.2078,35.73c4.0826,12.4374,11.4041,14.4783,22.2385,7.6913,14.1525-8.8654,22.9965-22.1257,31.0084-36.1963,11.242-19.7432,17.1612-41.8,28.3005-61.93-1.5783,9.4983-2.9343,19.04-4.7741,28.4873-7.4963,38.4959-6.2062,75.9363,7.3911,113.4956,16.6441,45.9751,9.2279,91.08-19.0948,133.829-11.5236-14.4737-18.422-30.7564-24.3524-47.3349q-14.7819-41.3238-28.2566-83.1133C983.248,393.6825,880.535,310.54,730.3558,277.23c-72.9557-16.1816-144.307-13.475-216.85-5.1682-43.448,4.9751-87.0822,3.5324-130.7026,2.6283-8.19-.17-13.0892-4.7773-18.53-9.4625-11.3325,9.3736-7.51,14.861,2.6726,19.1049,19.98,8.3269,41.0541,10.4506,62.3949,10.5436,52.3584.2282,103.9724-10.1973,156.1284-11.75,101.6585-3.026,197.5417,19.8122,283.4969,74.8309,76.2709,48.82,116.2849,124.8855,144.3475,208.1235,9.3433,27.7135,16.47,56.1772,27.8521,83.2057,6.4735,15.3723,13.0416,30.891,26.1872,41.9354,6.0986,5.1237,5.13,10.5072,3.93,16.95-2.6257,14.0943-5.2961,28.2261-6.8685,42.4619-4.3091,39.0114.5533,53.765,25.3156,80.692-51.0641,10.0472-96.478-12.65-116.8432-58.4827-3.2606-7.3385-6.5975-14.6864-9.1867-22.2732-27.2854-79.9546-86.9128-121.119-166.1822-138.3347-68.7449-14.93-137.0682-7.2373-205.0761,5.6252q-58.3238,11.031-116.29,23.9252c-29.0761,6.4894-57.8625,7.8622-86.906.6314-6.021-1.4991-12.1211-3.4705-19.3662-1.2643,3.0459,11.8892,13.398,13.5081,22.1118,15.8656,35.3033,9.551,70.5345,6.0585,105.5775-2.0832,53.0645-12.3287,105.8261-25.8334,160.3492-31.0676,55.9553-5.3717,108.5867,8.8,161.6431,24.493-79.3926-2.612-155.98,7.7149-228.5691,39.1627l.9207,5.6c22.9815-3.2153,46.067-5.8275,68.9231-9.7708A816.6472,816.6472,0,0,1,806.4289,671.13c9.1731.0723,18.3919-1.22,27.5179-.6763,12.9173.7687,26.9864-8.8447,38.3413-.0059,19.67,15.3116,40.9887,29.2874,49.7064,55.421,7.3914,22.1576,17.7132,43.337,27.7366,67.34-27.9,3.4918-53.93,8.558-78.1674-5.8295-19.5547-11.6078-39.4734-14.2185-61.13-8.575-8.8656,2.31-18.2759,2.7276-26.96,5.5042-65.051,20.7992-130.4829,10.4278-195.5641,1.637-57.4753-7.7634-115.3579-10.9963-172.8549-18.305-57.8514-7.3538-109.9439-27.3678-154.4669-65.657-3.9156-3.3674-7.9559-6.61-11.6709-10.1876-26.9027-25.912-49.9517-53.3717-35.4656-95.5242-14.7977-4.5909-19.9616,3.6589-22.763,14.1643-5.1995,19.4982.0375,37.6768,9.34,54.65,28.056,51.1906,71.6269,84.42,125.1408,105.1319,46.5085,18.0007,95.6565,23.7483,144.8983,27.8378,85.7589,7.1223,171.7086,12.4309,256.1542,30.5118,19.1442,4.0989,37.9634,9.2065,54.917,19.397,16.8334,10.1182,28.713,23.9075,32.4292,44.1047-2.5508,1.1629-4.0594,2.4954-5.4769,2.4048-75.8842-4.8542-149.1359,16.2045-223.8634,22.7558-90.16,7.9043-179.87,9.6206-268.7158-11.9722-89.5532-21.7644-159.9241-69.3837-207.8025-149.4423-31.8667-53.2849-64.7263-105.73-76.6262-168.1536-13.829-72.5434-1.8274-138.7425,42.75-198.962,41.7975-56.4637,94.3057-99.8616,154.8928-134.296,38.9943-22.1623,79.6426-40.9,121.3317-57.2384,113.7074-44.5636,225.9337-93.1571,345.5689-121.1514C767.1253,59.2823,840.05,57.5708,912.52,51.165c110.3087-9.7505,220.6952-18.8422,331.1761-26.3317,65.1153-4.4142,129.77,1.9221,191.9517,23.1511,68.3086,23.3206,116.147,66.1178,127.4355,141.3577C1563.3224,190.9339,1563.1136,192.593,1563.1136,199.4331ZM1129.3372,488.4294c-6.9313,13.8457-2.1618,24.3763,7.03,33.1705,11.5417,11.0422,25.2589,15.5581,40.99,9.63,12.0477-4.54,25.3789-8.1146,23.8681-26.147-15.6775-2.5552-24.0774,15.0257-39.8456,12.8185C1143.5782,515.4093,1141.5683,497.2321,1129.3372,488.4294ZM1402.01,546.3172c-9.48-6.749-9.8145-7.2093-19.5682-.1245-13.8481,10.0591-26.8914,11.29-40.6894-.1042-5.037-4.1595-10.5353-8.8578-18.067-7.9339-3.59,15.0362-1.0038,21.6094,10.2905,26.75C1353.7614,573.9112,1388.1348,564.52,1402.01,546.3172Z" fill="#f0714a"/><path d="M2025.5892,771.3646c-10.9121-23.8023-20.8947-45.634-46.17-53.9827-3.69,6.7217,1.9221,9.0539,3.9182,12.5682,4.5174,7.9528,11.0956,15.15,13.8282,23.6258,9.2338,28.6389,2.9427,41.95-31.1023,41.2114-18.9877-.4118-22.3432-5.285-20.3639-24.7424,2.9557-29.061-8.567-49.2446-37.2722-62.77,4.373,14.8376,9.195,28.1618,12.0864,41.8927,2.6956,12.8006,5.3472,25.9407-11.7156,33.2317-16.5708,7.0806-24.8709-2.8788-33.1032-13.3595-18.7176-23.83-29.3509-53.2689-52.2988-74.4-5.5117-5.0753-.5944-14.3417-.25-21.66.4916-10.4508,1.424-20.8963-11.67-26.5042-5.3137,5.571-4.66,12.6224-5.43,19.0295-.8607,7.164-2.003,13.8674-10.2849,16.034a17.2532,17.2532,0,0,1-18.602-6.03c-6.4866-7.9813-12.3082-16.5324-18.0405-25.09-6.3991-9.554-12.2362-19.6628-21.9571-26.2141-5.1837-3.4932-10.7913-9.8462-17.5973-1.1712-2.9207,3.7228-7.64.8136-11.3346.0708-56.7787-11.4167-113.3621-24.1-176.1679-23.7781,19.6755-31.5516,41.8965-58.5858,44.3173-96.6364,18.3923,3.3583,35.05,6.4263,51.7194,9.4281,5.2849.9517,7.0977,5.2044,9.3878,9.2124,3.4114,5.97,6.6817,12.0932,10.7663,17.59,6.3217,8.5077,14.1408,16.7908,25.64,13.9209,9.8808-2.4661,10.33-13.3378,11.038-21.3747,1.1243-12.7529,7.7952-15.6119,19.1393-16.4207,43.6376-3.1114,79.62,12.883,110.6061,42.3756,21.2963,20.27,39.4109,43.3264,56.9576,66.732,27.1089,36.161,59.1,65.2206,102.9928,79.8644,16.82,5.6114,32.6084,14.3743,45.7039,26.8995C2031.82,741.9075,2035.4042,754.2729,2025.5892,771.3646Z" fill="#f0714a"/><path d="M1385.3245,823.36c-10.8372-3.467-20.5881-.88-30.2607-1.0117-10.6033-.1441-19.4563-3.3973-23.3406-14.0475-4.1688-11.43-1.4649-21.4933,8.0541-29.3584,10.8649-8.977,24.1033-13.2611,37.0976-17.6007,11.6381-3.8868,20.2292-10.3244,24.8156-21.8155,8.4218-21.1,23.4479-34.6457,45.4708-40.7792,9.7978-2.7288,17.6033-8.5941,20.2976-19.14,2.8991-11.3485,16.0462-12.3806,22.0082-22.3778-10.79-6.6735-19.8336-5.0622-25.5827,5.3935-5.9147,10.7567-14.7373,14.7778-25.9746,17.2151-26.1065,5.6624-43.2748,22.269-53.593,46.4752-2.4893,5.84-2.6357,14.2763-16.3132,11.2881,31.1527-43.6419,53.7908-92.7682,112.3135-104.8931a24.34,24.34,0,0,1,14.9918,1.5845c34.75,14.4237,58.6381,61.56,50.0176,98.5016-3.2465,13.9118-9.7295,25.4352-21.3466,34.2068a1252.3674,1252.3674,0,0,1-137.9137,90.6849c-19.4271,10.9937-40.8286,14.7317-63.0854,13.6672-7.5459-.3611-15.1609-1.3709-21.5477-5.2394-9.4133-5.7016-22.6651-10.5594-15.3072-25.7034,8.4347-17.36,22.184-21.1392,36.4036-11.4109,10.5052,7.1871,21.462,13.4143,34.5135,14.4C1371.846,844.5183,1378.9259,839.6185,1385.3245,823.36Z" fill="#f0714a"/><path d="M1140.5535,729.5992c20.0736,1.5416,39.336,4.1427,56.1775,15.1623,18.6385,12.1952,20.7678,24.8634,7.3946,42.8388-10.1988,13.7086-24.3369,22.2939-39.5791,29.1886-10.2035,4.6158-19.1553-.358-27.4294-5.2221-19.7667-11.62-32.2213-47.5267-23.2949-68.5706C1118.6532,731.6075,1129.7166,729.4768,1140.5535,729.5992Z" fill="#f0714a"/><path d="M1694.8374,645.0294c-29.4554,2.0149-57.9837,8.4351-86.0509,15.68-38.4817,9.9333-63.195-8.5325-87.7343-38.4609C1581.8351,622.6509,1638.8594,628.8827,1694.8374,645.0294Z" fill="none" stroke="#878787" stroke-miterlimit="10"/><path d="M1566.5455,677.0327c18.9167,0,36.5845.1159,54.25-.0332,17.0105-.1436,32.8135-9.223,51.0665-6.7973-13.2574,7.4889-22.6072,17.4157-24.7521,34.0906-9.3063-4.014-17.3-8.0935-25.7056-10.969-25.1883-8.6169-41.3017,4.2548-35.7569,29.9119,4.2758,19.7847-8.4227,36.765-5.2883,57.2234l-33.1492,2.827C1573.87,726.3587,1568.013,731.4391,1566.5455,677.0327Z" fill="#f0714a"/><path d="M1602.5113,708.4765c16.3547-.6125,28.6348,5.2079,39.6112,13.7168,20.3334,15.7622,17.7838,39.33-5.2108,50.8865-8.9293,4.4877-18.4424,5.7478-28.3577,4.81-7.3767-.6973-11.5745-3.5856-10.8758-11.9322,1.1446-13.6746,1.6083-27.405,2.584-41.0958C1600.621,719.8257,1601.6167,714.8347,1602.5113,708.4765Z" fill="#f0714a"/><path d="M1670.9932,760.8788c-.3925-12.383,1.3962-24.9448-3.9191-36.6416,20.1616-14.3165,25.6183,4.36,34.8043,14.3487C1698.6849,754.985,1688.8191,762.3938,1670.9932,760.8788Z" fill="#f0714a"/><path d="M1695.0782,700.8918c-10.6375,2.213-20.24,4.3836-30.8643.8021.282-11.4488,8.0675-12.8257,15.9762-13.4014C1687.7427,687.7429,1695.4486,687.804,1695.0782,700.8918Z" fill="#f0714a"/><path d="M1711.3757,755.3c4.9253-14.7307,15.0184-13.3341,24.5539-11.4422a5.5826,5.5826,0,0,1,2.9259,9.5324C1731.042,761.062,1721.8925,760.9026,1711.3757,755.3Z" fill="#f0714a"/><path d="M1721.1671,654.69c15.03.9,23.8284,8.3081,26.7715,24.4725C1730.6793,678.3228,1731.0492,660.8313,1721.1671,654.69Z" fill="#ef6236"/><path d="M1709.6579,722.8189c10.7593-10.41,20.2313-8.5007,32.5468-5.2516C1731.7337,728.085,1722.0736,724.7714,1709.6579,722.8189Z" fill="#f0714a"/><path d="M1129.3372,488.4294c12.2311,8.8027,14.241,26.98,32.0428,29.4719,15.7682,2.2072,24.1681-15.3737,39.8456-12.8185,1.5108,18.0324-11.82,21.607-23.8681,26.147-15.7313,5.9282-29.4485,1.4123-40.99-9.63C1127.1754,512.8057,1122.4059,502.2751,1129.3372,488.4294Z"/><path d="M1402.01,546.3172c-13.8749,18.2026-48.2483,27.594-68.0341,18.5878-11.2943-5.141-13.88-11.7142-10.2905-26.75,7.5317-.9239,13.03,3.7744,18.067,7.9339,13.798,11.3946,26.8413,10.1633,40.6894.1042C1392.1952,539.1079,1392.5294,539.5682,1402.01,546.3172Z"/><path d="M1668.0775,531.1809c18.778-31.23,30.4966-66.1883,40.0255-100.2658,17.8472-63.8251,6.3985-92.8919-55.4874-127.1607-29.8619-16.5357-58.2412-34.6909-74.3285-66.9859-5.2372-10.5136-7.26-19.1791-3.78-31.3029,5.6143-19.5583-3.6724-38.8589-10.346-56.4394-22.1386-58.32-67.1369-93.0228-125.1018-112.1325C1389.3411,20.5029,1337.9,14.6,1285.8394,12.6954c-78.0256-2.8551-154.9734,10.27-232.4242,15.8-79.29,5.6615-158.3215,15.2607-237.6544,19.9408C722.63,53.93,633.9169,76.9171,547.24,109.32c-87.6574,32.7694-176.1351,63.4759-261.759,101.5-89.046,39.5433-165.1953,95.4784-222.1053,175.6845-31.8434,44.8784-50.6662,94.7977-51.2,149.8488-.4314,44.5222,11.3188,87.2147,30.6112,127.4157,26.8684,55.9879,56.9481,110.37,96.7731,158.1416,25.1187,30.1307,58.3162,51.5036,94.3006,67.45,92.8807,41.159,190.6479,50.6386,290.9545,45.0875,60.7336-3.3611,120.7155-12.7372,180.6691-21.61,29.9773-4.4369,59.6307-6.0047,89.6413-6.1725,10.5618-.059,24.0431,2.9395,28.65-8.843,4.733-12.1061.9458-26.26-8.2857-35.6354-13.6708-13.8835-29.1055-25.9932-47.8473-33.19-7.6895-2.9529-15.9952-5.7818-20.7269-13.6094" fill="none" stroke="#000" stroke-linecap="round" stroke-linejoin="round" stroke-width="2"/><path d="M1110.2151,829.1663c-40.7045-19.7532-40.1084-58.0113-34.3489-96.4447,1.7334-11.5673,3.7524-23.2091,7.1579-34.3528,1.4291-4.6765,2.2724-9.6963-.5481-11.9256-26.3557-20.8317-32.819-51.7656-43.0319-81.1349-18.9551-54.5091-37.6334-108.7154-68.0122-158.941C921.1708,363.27,844.3866,320.8794,755.4064,295.6216c-37.167-10.55-75.3455-19.6082-113.6426-23.24-19.6494-1.8636-41.3161-3.1575-62.0209,3.3726-13.4721,4.249-28.5521,1.7293-42.9669,3.1011-52.5731,5.003-105.4377,10.0832-158.3225,2.5531-8.8679-1.2627-17.8154-2.6441-13.7767-15.4857" fill="none" stroke="#000" stroke-linecap="round" stroke-linejoin="round" stroke-width="2"/><path d="M203.6888,601.8017c-15.0378,34.4136,3.8873,60.5606,23.63,84.0767,47.7026,56.8215,111.56,83.9054,183.8478,93.33,54.3409,7.0853,109.021,10.6036,163.5493,15.7289,50.03,4.7024,99.8766,11.3373,149.8276,16.9089,6.2358.6956,12.616.095,18.9293.095" fill="none" stroke="#000" stroke-linecap="round" stroke-linejoin="round" stroke-width="2"/><path d="M1120.5459,829.1663c-.0232-9.2185-.5892-17.5921-6.447-26.1389-6.6979-9.7729-9.455-22.16-10.65-34.1592-4.2518-42.6909,14.8376-53.7814,51.4617-49.35,16.583,2.0066,33.4614,6.6554,48.4182,16.4259,22.2337,14.5242,26.6647,33.5493,12.0066,55.3889-12.327,18.3663-31.8234,28.049-48.546,40.9605-8.35,6.4467-19.3961,1.3759-28.9927.0754-11.5549-1.566-20.3774-1.3346-31.5614,6.3512-21.1551,14.5382-46.5591,8.499-69.9959,3.9112-27.9357-5.4683-50.99-22.5465-68.0042-43.502-12.2345-15.0684-16.3048-36.9753-23.2135-56.1219-12.4429-34.4834-32.49-62.8429-63.7686-82.7007-2.0063-1.2738-3.1811-4.2938-5.2464-4.9759-48.5875-16.0481-94.81-38.1538-147.9892-40.6373C664.3441,611.72,603.3862,623.446,541.9847,636.07c-26.3417,5.4156-52.3842,12.04-79.0786,16.2366a177.813,177.813,0,0,1-91.3421-9.1654" fill="none" stroke="#000" stroke-linecap="round" stroke-linejoin="round" stroke-width="2"/><path d="M1687.0172,501.8991c23.8208,5.26,48.6431,1.22,72.3553,8.4828,37.24,11.4055,64.4141,35.5037,87.9241,65.4634,27.1334,34.577,50.9122,72.8178,89.607,96.2034,18.7809,11.35,40.0755,18.4835,59.9966,28.0181,15.3926,7.3672,29.8612,16.5567,39.4824,31.0255,9.3953,14.1287,10.4548,28.9986,2.1739,44.8309-4.2961,8.2137-11.2962,7.5881-17.5391,8.1271-7.2567.6266-7.3-7.0909-8.3959-11.7685-5.2053-22.2116-14.1067-41.5367-36.3423-51.63" fill="none" stroke="#000" stroke-linecap="round" stroke-linejoin="round" stroke-width="2"/><path d="M1136.0421,297.7877c-4.2109,3.4117-9.3646,5.8443-8.7147,12.9281,1.0342,11.2733-6.0183,20.5742-8.403,31.0175-3.62,15.8541-13.4768,28.9054-8.4884,48.5867,4.339,17.1185-2.7911,37.8758-7.4219,56.3818-8.542,34.1356,2.4539,65.1126,12.3566,96.5393,16.87,53.5371.1626,99.8221-30.9826,142.9611" fill="none" stroke="#000" stroke-linecap="round" stroke-linejoin="round" stroke-width="2"/><path d="M1191.14,210.8035c-47.1782,28.7954-96.1376,55.263-124.1213,106.71-17.7407,32.6155-27.5615,67.6391-36.2735,103.3649-5.5456,22.741-4.475,44.8492.2676,67.2412" fill="none" stroke="#000" stroke-linecap="round" stroke-linejoin="round" stroke-width="2"/><path d="M1504.5067,620.7487c4.6821,11.743,15.2513,18.8357,24.427,25.3858,34.5244,24.646,36.284,85.5495,15.2695,117.6406-9.0428,13.8092-21.5467,21.7312-35.855,29.9156-32.2595,18.4524-62.1581,40.9909-93.4524,61.1924-21.533,13.9-44.0811,24.8924-70.47,28.0663-32.1181,3.863-57.14-4.6919-74.0837-33.1136" fill="none" stroke="#000" stroke-linecap="round" stroke-linejoin="round" stroke-width="2"/><path d="M843.3365,650.0305c-7.2948,8.4817-16.7733,10.5257-27.55,10.4482-31.6024-.2273-63.2237-.8822-94.7051,3.2778A800.2286,800.2286,0,0,0,614.4552,684.91c-7.4529,2.0406-18.5229-3.7477-22.5011,8.182" fill="none" stroke="#000" stroke-linecap="round" stroke-linejoin="round" stroke-width="2"/><path d="M1167.0344,836.0561c21.2792,27.7421,50.6747,22.4953,79.1661,18.6742,13.3328-1.7879,24.4137-9.4153,32.7591-20.39,8.5224-11.208,18.1313-21.3107,31.0341-27.46,4.7411-2.26,6.0857-5.5153,7.115-10.3813,1.0285-4.8615,3.1617-10.6551,6.7878-13.62,35.3027-28.8652,50.9148-71.8475,76.4911-107.592,22.4462-31.37,51.8122-45.4039,86.9173-52.7379,8.8336-1.8454,16.7862-4.5948,24.2348-10.2188,12.8963-9.7373,27.7143-1.989,41.1433-1.2754a751.3771,751.3771,0,0,1,144.7342,21.4781c6.454,1.6331,11.4973,3.79,15.427,8.8859" fill="none" stroke="#000" stroke-linecap="round" stroke-linejoin="round" stroke-width="2"/><path d="M1414.9733,66.117c59.175,26.8917,101.1552,71.7327,132.4719,127.5217,5.0729,9.0371,9.3547,18.2478,20.768,20.61" fill="none" stroke="#000" stroke-linecap="round" stroke-linejoin="round" stroke-width="2"/><path d="M1757.6109,701.7043c-29.987,2.746-44.4275-22.9252-65.0553-36.7294-10.1032-6.761-20.0223-8.4209-29.5341-5.9162-36.2848,9.5544-73.0432,12.4668-110.3045,11.6414" fill="none" stroke="#000" stroke-linecap="round" stroke-linejoin="round" stroke-width="2"/><path d="M1812.7085,648.3081c3.4379,10.1756,4.4478,22.0865.9441,30.6872-5.835,14.3236.1074,20.0818,8.7305,30.1606,14.4524,16.8924,25.2113,37.0646,36.685,56.3561,11.0738,18.6191,24.0411,32.4515,48.3707,29.4615,8.1586-1.0026,13.7845-8.4466,20.7638-7.3806,17.3064-31.9091-1.4848-55.9728-17.3517-80.7212" fill="none" stroke="#000" stroke-linecap="round" stroke-linejoin="round" stroke-width="2"/><path d="M1487.2887,656.92c-6.8186,2.518-15.1874,3.0066-18.8136,10.3967-7.5245,15.3342-21.2209,21.3025-36.2744,25.8066-20.9435,6.2664-31.5588,22.6184-39.5948,41.3142-6.3831,14.85-17.7668,18.8994-32.73,15.4953" fill="none" stroke="#000" stroke-linecap="round" stroke-linejoin="round" stroke-width="2"/><path d="M744.3332,815.3866c-.0942-12.17,10.84-14.855,18.2133-16.6809,20.2719-5.02,41.1845-7.4586,61.8517-10.87,14.3208-2.3636,27.4379,1.52,39.5626,8.6668,33.64,19.8281,67.52,15.3443,101.6233,1.6592" fill="none" stroke="#000" stroke-linecap="round" stroke-linejoin="round" stroke-width="2"/><path d="M1105.05,376.16c-9.4223,2.32-15.0594,8.7352-18.9609,17.2148-10.8437,23.5683-22.5893,46.766-32.307,70.7869-4.0056,9.9009-9.9071,14.744-19.3258,17.0683" fill="none" stroke="#000" stroke-linecap="round" stroke-linejoin="round" stroke-width="2"/><path d="M1611.2582,426.1109c-6.8872,2.2966-13.72,4.774-20.6719,6.8555-20.0115,5.9921-28.8007,16.8844-24.5957,39.7431,7.42,40.3374-11.2065,74.24-32.2937,106.6479-5.3734,8.2581-12.3729,15.5321-13.694,25.8892" fill="none" stroke="#000" stroke-linecap="round" stroke-linejoin="round" stroke-width="2"/><path d="M1535.4991,353.7676c28.3071,10.5625,60.0029,19.1543,71.523,50.2452,10.7925,29.1272,31.0118,54.8,29.9651,89.3232-.3456,11.3974,11.1153,28.7142,24.48,37.4189,4.8093,3.1324,6.1462,6.372,7.4709,10.7607" fill="none" stroke="#000" stroke-linecap="round" stroke-linejoin="round" stroke-width="2"/><path d="M2014.1588,784.3823c-22.3027,29.7481-57.6311,31.2207-82.6463,3.445" fill="none" stroke="#000" stroke-linecap="round" stroke-linejoin="round" stroke-width="2"/><path d="M1702.5134,668.9776c.4282-7.9075,4.6566-14.1073,8.4306-20.7706,7.025-12.4028,16.3627-14.1215,25.8-4.8566,16.5441,16.243,33.0832,32.4442,23.3294,60.3355-2.877,8.2261-2.6987,20.3306-1.3784,28.8547,2.7717,17.894-5.4546,27.3857-16.3455,38.2963-10.58,10.5992-22.7781,10.8818-36.3341,12.3571-22.9541,2.4982-46.03,1.9106-69.0505,5.6031-21.8223,3.5-44.67.1245-67.02.991-13.1593.51-26.3276,4.1323-37.8888-5.4058" fill="none" stroke="#000" stroke-linecap="round" stroke-linejoin="round" stroke-width="2"/><path d="M1130.8767,489.8419c6.4888,36.7038,33.1049,47.19,61.7476,23.8236,2.9339-2.3934,6.1577-2.8519,8.8461-4.8766" fill="none" stroke="#000" stroke-linecap="round" stroke-linejoin="round" stroke-width="2"/><path d="M1325.44,538.0707c7.6433,20.4158,32.5856,29.39,53.3258,18.8487,5.4962-2.7935,10.3807-6.7914,15.5461-10.2363" fill="none" stroke="#000" stroke-linecap="round" stroke-linejoin="round" stroke-width="2"/><path d="M1383.9809,825.7214c-27.2113,12.9677-42.3276,9.4779-67.15-15.5022" fill="none" stroke="#000" stroke-linecap="round" stroke-linejoin="round" stroke-width="2"/><path d="M1699.07,712.0391c-4.5915-.5742-9.4294-2.38-13.7333-1.5173-23.2433,4.6574-44.8635,5.25-66.0562-9.7078-6.3271-4.4656-21.973-5.13-26.9619,9.5026" fill="none" stroke="#000" stroke-linecap="round" stroke-linejoin="round" stroke-width="2"/><path d="M1692.1826,670.7c-4.5915,2.8707-8.9348,6.2841-13.8174,8.5179-20.806,9.519-28.13,17.2705-21.4689,37.7042,7.2784,22.3266,4.6827,43.7532,4.294,65.7377" fill="none" stroke="#000" stroke-linecap="round" stroke-linejoin="round" stroke-width="2"/><path d="M1633.6415,495.0092c-21.3315,6.32-41.3184-3.502-61.9847-5.1673" fill="none" stroke="#000" stroke-linecap="round" stroke-linejoin="round" stroke-width="2"/><path d="M1587.153,710.3166c3.7051-.1573,8.0613.7087,6.6837,5.1036-5.3016,16.9141,3.3423,35.1934-6.0891,52.07-2.279,4.0782,2.849,12.2988,4.5708,18.6145" fill="none" stroke="#000" stroke-linecap="round" stroke-linejoin="round" stroke-width="2"/><path d="M1557.8824,396.8291c5.56,14.4393-5.37,32.6857,10.3308,44.7839" fill="none" stroke="#000" stroke-linecap="round" stroke-linejoin="round" stroke-width="2"/><path d="M1711.1224,736.1535c-8.1548,13.9112-6.1406,29.7787-8.609,44.7839" fill="none" stroke="#000" stroke-linecap="round" stroke-linejoin="round" stroke-width="2"/><path d="M1755.8891,732.7085c-10.9047.5742-21.9005.4691-32.6878,1.9187-10.2283,1.3745-18.0259-2.8018-22.0118-10.7311-4.0927-8.1418,2.222-14.8649,8.2-20.4814,2.3651-2.2226,4.6029-4.5811,6.8985-6.8777" fill="none" stroke="#000" stroke-linecap="round" stroke-linejoin="round" stroke-width="2"/><path d="M1125.7113,307.2612c-11.7625-3.4365-18.0188,7.8159-27.5488,10.3348" fill="none" stroke="#000" stroke-linecap="round" stroke-linejoin="round" stroke-width="2"/></svg>