<svg width="71" height="75" xmlns="http://www.w3.org/2000/svg" viewBox="0 0 2052 1432.1851"><path d="M1299.5293,878.9013C1121.4722,922.6476,953.3181,891.47,790.2828,814.18c-123.4513-58.5252-123.6236-56.985-195.9567,55.4072-16.8558,26.1911-33.87,54.4749-57.3842,73.7972-90.2494,74.1614-100.3888,171.1861-87.0676,276.8993,2.2767,18.0688-.5126,37.41,18.9956,48.0452,25.4469,13.8728,56.5877,26.221,35.7542,63.598-17.6914,31.7394-51.9332,15.831-78.6512,19.8334-36.6717,5.4923-51.8653-18.9635-55.7406-50.7537-5.9889-49.1321-8.4882-98.7237-15.5539-147.675-3.1541-21.8481-13.8066-42.6137-21.9348-66.4476-55.72,59.0279-67.2412,192.7966-24.5744,254.2935,15.766,22.7231,48.3647,41.8929,24.0115,73.1628-22.4866,28.873-58.3815,14.2765-88.6155,13.2676-35.1363-1.1729-50.9276-25.9559-52.877-57.0613-3.424-54.6623-.6476-109.7666-5.1944-164.2917-6.5321-78.3452-13.9558-151.0942,54.89-214.8279,27.5992-25.55,18.003-82.1056-7.9866-130.6862-53.5413,88.13-103.4893,170.07-176.1847,233.8142-10.7,9.3815-25.8637,18.192-45.0369,11.6613-27.6547-33.5787,2.819-57.7411,18.3854-80.79,69.6026-103.06,123.6274-213.4808,137.7129-337.2912C195.3762,441.1171,318.1248,355.1794,596.45,321.1576c136.0751-16.6334,276.5386-4.8012,414.4229,3.7273,76.454,4.7288,150.8753-1.3863,225.9465-8.5318,132.3027-12.5931,189.047-117.542,246.7628-213.6117,64.31-107.0478,228.1639-141.3063,314.9506-50.29,49.4483,51.8571,101.92,74.6776,171.47,75.2442,78.4838.64,101.571,43.0256,65.1764,112.7409-30.546,58.5111-84.117,96.1362-145.84,88.4225-165.931-20.737-203.0742,108.4034-248.9979,213.4946-42.3993,97.0257-74.8942,198.5087-119.2108,295.9321-61.53,135.265-36.8866,281.3547-26.2174,424.0119,2.5405,33.9661,35.335,41.8673,56.4628,59.8622,15.0189,12.7909,20.2568,29.7823,9.8374,56.0062-44.7158,5.7225-92.7225,14.3693-141.069,17.1728-32.1962,1.8671-131.9322-96.5726-132.7-132.2058-2.6353-122.2128-2.1251-244.4982-1.9643-366.7548.0087-6.6319,7.7363-13.2535,11.9251-19.794,60.442,32.9867,78.5747,88.4736,76.92,151.7281-1.7737,67.7681-11.14,135.4374-10.988,203.1356.3236,144.2188,21.2609,157.9377,170.2366,119.5224-15.531-27.0213-54.1081-32.7852-59.883-67.3106-25.2439-150.9214-37.6591-305.9335,21.3528-447.3407,39.78-95.3234,80.2938-178.1178,26.9-277.2863-.2259-.4194,7.0107-4.8563,11.1172-7.6594,29.9161,10.2227,18.27,52.61,55.5515,66.8822,21.7261-79.6612,37.8209-161.4262,104.34-218.5145-99.6135-58.0156-141.3159-158.6247-222.74-223.247-25.19,29.2322-52.5248,59.8523-78.6168,91.4965-35.5809,43.1522,17.6541,80.7975,13.3753,123.1994-27.13-3.0387-32.5992-22.014-40.256-38.0349-9.131-19.1021-16.873-43.2631-43.8265-32.3328-30.0148,12.1724-18.4754,37.3181-12.5081,60.4219,7.0461,27.2795,32.6557,51.6949,17.0242,88.1083-42.0508-34.913-36.9957-89.8143-70.26-126.8529-168.2972,19.166-338.7362,11.85-506.775-3.8-159.3658-14.8424-284.2438,50.3057-410.828,125.0125-13.07,7.7141-23.7847,20.5468-33.4646,32.6991C243.8558,572.01,223.554,654.2133,244.9882,751.7894c23.83,108.4843,75.713,223.5881-31.3022,321.5751-14.0411,12.8572-10.3744,34.0929-9.4205,52.5092,3.6317,70.104,6.7924,140.2326,10.5366,210.33,3.8744,72.5378,13.9635,78.5072,91.3933,55.351-74.7453-110.8458-63.87-302.3162,59.0818-391.3356C503.8033,899.9238,601.9451,764.1206,596.9987,578.3241c-.2963-11.1327,7.3481-18.5405,22.8671-13.4044,10.78,61.4594-.77,122.2188-18.3758,189.44l101.828-4.4939c-23.9641-67.783-66.6529-126.2618-48.1948-199.0566,23.6281,91.0139,52.6947,182.4054,135.2232,230.3705,136.2005,79.1586,286.3612,110.0659,445.0029,84.4269,25.4258-4.1094,43.2617-11.6717,47.6343-41.5689,8.66-59.2232,19.9658-116.2886,8.1365-178.23-14.4915-75.8883-49.433-144.7956-76.07-234.69,45.4069,30.5682,54.42,64.1729,66.3577,93.4945C1331.18,626.87,1336.8514,752.0378,1299.5293,878.9013ZM497.7542,925.0649c12.317,4.1366,17.69-1.01,17.7392-13.2712,46.714-24.1388,71.1294-62.312,72.3269-114.698q1.2649,1.2995,2.53,2.5994l.244-4.7014c-34.7175,33.0989-61.7883,70.9657-73.7521,118.2437-11.35-2.6092-15.3022,4.3073-17.3526,13.6553q-8.969,7.0516-17.9379,14.1037c-86.6637,58.6415-154.8281,123.194-95.2285,241.3885,10.7315,21.2824,5.2447,51.4225,4.9584,77.4477-.7193,65.4538,25.7915,85.88,91.8768,51.6641-60.2922-30.3287-57.0065-83.68-63.8961-138.2385-11.1579-88.3582,33.0883-158.0023,60.8631-233.6411C493.9119,944.3491,500.5349,940.4025,497.7542,925.0649ZM263.4855,483.2854l28.6033-3.2137-5.1422-1.83q3.609-1.76,7.2185-3.52a15.2538,15.2538,0,0,1-2.4548,4.92c-9.95,1.8507-19.9,3.7015-29.6477,5.58l.8276,3.9036ZM1838.8943,133.9466l1.7652,1.914c-12.5464-12.9582-25.9762-25.18-37.49-38.9991-59.0282-70.8438-168.0972-89.7564-244.5334-41.8643-61.3858,38.4625-66.8832,85.917-16.7849,144.8977C1574.6038,98.23,1630.2339,61.0307,1740.0993,72.1912c.6624,77.987-2.5128,158.0857,22.6967,232.7915,141.2863,16.609,201.1108-4.0291,248.3632-82.89C1978.873,143.1792,1905.2127,145.8083,1838.8943,133.9466Zm-123.1066-42.8c-65.522,19.7577-128.3934,20.972-131.9974,93.1639-4.4319,88.75,53.3394,160.7807,131.0727,170.6309C1739.8781,270.5185,1699.7255,187.47,1715.7877,91.1465Zm-1674.49,970.284c147.1181-118.2832,215.0351-283.4515,149.01-361.37C171.6524,834.2832,115.1623,950.672,41.2976,1061.4305ZM1321.7531,961.3111v305.2437C1313.6809,1164.9012,1373.6117,1062.98,1321.7531,961.3111Z"/><path d="M1299.5293,878.9013c37.3221-126.8635,31.6506-252.0315-18.1212-374.2887-11.9376-29.3216-20.9508-62.9263-66.3577-93.4945,26.6367,89.8946,61.5782,158.8019,76.07,234.69,11.8293,61.9411.5236,119.0065-8.1365,178.23-4.3726,29.8972-22.2085,37.4595-47.6343,41.5689-158.6417,25.639-308.8024-5.2683-445.0029-84.4269-82.5285-47.9651-111.5951-139.3566-135.2232-230.37-18.4581,72.7948,24.2307,131.2736,48.1948,199.0566L601.49,754.36c17.6057-67.2215,29.1556-127.9809,18.3758-189.44-15.519-5.1361-23.1634,2.2717-22.8671,13.4044,4.9464,185.7965-93.1954,321.6-231.7215,421.8953-122.9516,89.0194-133.8271,280.49-59.0818,391.3356-77.43,23.1562-87.5189,17.1868-91.3933-55.351-3.7442-70.0977-6.9049-140.2263-10.5366-210.33-.9539-18.4163-4.6206-39.652,9.4205-52.5092,107.0152-97.987,55.1322-213.0908,31.3022-321.5751-21.4342-97.5761-1.1324-179.7794,59.0889-255.3788,9.68-12.1523,20.3941-24.985,33.4646-32.6991C464.1259,389.0047,589.0039,323.8566,748.37,338.699c168.0388,15.65,338.4778,22.9664,506.775,3.8,33.2645,37.0386,28.2094,91.94,70.26,126.8529,15.6315-36.4134-9.9781-60.8288-17.0242-88.1083-5.9673-23.1038-17.5067-48.25,12.5081-60.4219,26.9535-10.93,34.6955,13.2307,43.8265,32.3328,7.6568,16.0209,13.1264,34.9962,40.256,38.0349,4.2788-42.4019-48.9562-80.0472-13.3753-123.1994,26.092-31.6442,53.4265-62.2643,78.6168-91.4965,81.4244,64.6223,123.1268,165.2314,222.74,223.247-66.5194,57.0883-82.6142,138.8533-104.34,218.5145-37.2819-14.2727-25.6354-56.6595-55.5515-66.8822-4.1065,2.8031-11.3431,7.24-11.1172,7.6594,53.3939,99.1685,12.88,181.9629-26.9,277.2863-59.0119,141.4072-46.5967,296.4193-21.3528,447.3407,5.7749,34.5254,44.352,40.2893,59.883,67.3106-148.9757,38.4153-169.913,24.6964-170.2366-119.5224-.1522-67.6982,9.2143-135.3675,10.988-203.1356,1.655-63.2545-16.4777-118.7414-76.92-151.7281C1297.3516,876.4982,1299.5293,878.9013,1299.5293,878.9013ZM736.168,589.124c-10.2581,57.3657,9.2956,101.9343,56.9989,134.42C780.7794,675.899,753.1827,634.7829,736.168,589.124Z" fill="#ee714a"/><path d="M1838.8943,133.9466c66.3184,11.8617,139.9787,9.2326,172.2649,88.1459-47.2524,78.8611-107.0769,99.4992-248.3632,82.89-25.21-74.7058-22.0343-154.8045-22.6967-232.7915-109.8654-11.16-165.4955,26.0389-198.2478,127.7037-50.0983-58.9807-44.6009-106.4352,16.7849-144.8977,76.4362-47.8921,185.5052-28.9795,244.5334,41.8643,11.5135,13.8187,24.9433,26.0409,37.28,38.7752-27.7566-13.1446-50.618-16.8344-56.5451,24.3842C1813.4379,164.5845,1825.855,148.7022,1838.8943,133.9466Z" fill="#ee714a"/><path d="M1715.7877,91.1465c-16.0622,96.3234,24.09,179.372-.9247,263.7948C1637.13,345.0911,1579.3584,273.06,1583.79,184.31,1587.3943,112.1185,1650.2657,110.9042,1715.7877,91.1465Z" fill="#ee714a"/><path d="M479.8775,939.3852c-27.5269,75.8707-71.7731,145.5148-60.6152,233.873,6.89,54.5589,3.6039,107.91,63.8961,138.2385-66.0853,34.2157-92.5961,13.79-91.8768-51.6641.2863-26.0252,5.7731-56.1653-4.9584-77.4477-59.6-118.1945,8.5648-182.747,95.3539-241.2643C481.802,941.2446,479.8775,939.3852,479.8775,939.3852Z" fill="#ee714a"/><path d="M41.2976,1061.4305c73.8647-110.7585,130.3548-227.1473,149.01-361.37C256.3327,777.979,188.4157,943.1473,41.2976,1061.4305Z" fill="#ee714a"/><path d="M1321.7531,961.3111c51.8586,101.6692-8.0722,203.59,0,305.2437Z" fill="#ee714a"/><path d="M587.9031,796.7473c-1.28,52.7344-25.6957,90.9076-72.4092,115.05l1.3669,1.4593c11.9452-47.2969,39.016-85.1637,73.7335-118.2626Z" fill="#ee714a"/><path d="M292.3545,479.842l1.8106-5.12q-3.609,1.76-7.2185,3.52c1.7139.61,3.4283,1.22,4.7383,1.69C291.2809,479.7931,292.3545,479.842,292.3545,479.842Z" fill="#fff"/><path d="M261.86,485.1938c9.95-1.8508,19.9-3.7016,30.1727-5.452.3221.1-.7515.0513-.3475.19-9.1305,1.2106-18.6649,2.2819-28.1994,3.3531Z" fill="#878787"/><path d="M590.5943,794.9937l-.244,4.7014a31.4326,31.4326,0,0,1-2.4883-2.7736A31.41,31.41,0,0,1,590.5943,794.9937Z" fill="#fff"/><path d="M263.4855,483.2854l-.5953,5.84s-.8276-3.9036-.929-3.9177A22.736,22.736,0,0,1,263.4855,483.2854Z" fill="#fff"/><path d="M499.3953,926.7879c2.1447-9.2432,6.0966-16.16,17.4559-13.5412.01.01-1.3568-1.4463-1.3573-1.45-.05,12.2577-5.4227,17.4045-17.74,13.2679Z" fill="#ee714a"/><path d="M497.7542,925.0649c2.7807,15.3376-3.8423,19.2842-17.7527,14.4361-.124-.1158,1.8,1.7436,1.6756,1.62,5.8539-4.8256,11.8332-9.5268,17.7651-14.28C499.3953,926.7879,497.7542,925.0649,497.7542,925.0649Z" fill="#ee714a"/><path d="M736.168,589.124c17.0147,45.6589,44.6114,86.775,56.9989,134.42C745.4636,691.0583,725.91,646.49,736.168,589.124Z"/><path d="M1838.8943,133.9466c-13.0393,14.7556-25.4564,30.6379-54.99,26.0743,5.9271-41.2186,28.7885-37.5288,56.5451-24.3843C1840.66,135.86,1838.8943,133.9466,1838.8943,133.9466Z"/><path d="M1582.5143,261.6084c27.5681,57.851,57.3694,113.6,140.421,125.6808-95.6506,90.7315-109.84,203.59-148.2577,305.6077-7.8713,20.9-11.1383,45.3944-24.29,62.1336-69.6945,88.7108-79.6219,191.8272-77.7247,298.5785.4643,26.1306,1.3191,52.3468-.1579,78.4017-5.1652,91.1-4.1065,179.5185,95.0753,235.8873-81.9-8.376-176.3168,65.29-220.3137-55.5181" fill="none" stroke="#000" stroke-linecap="round" stroke-linejoin="round" stroke-width="2"/><path d="M1229.6433,418.44c22.9868,78.5771,59.905,151.0983,76.0409,234.1857,13.5332,69.6837-10.9229,126.52-13.6883,189.2429-1.4875,33.7021-33.63,35.232-54.66,38.15-164.5784,22.8393-320.3733-5.4017-462.1531-93.589-88.3493-54.9531-106.9013-149.6722-125.816-242.5247" fill="none" stroke="#000" stroke-linecap="round" stroke-linejoin="round" stroke-width="2"/><path d="M727.7823,763.4694c-66.9636-6.0633-107.8734,17.8683-136.2944,84.9927-21.5169,50.8192-69.8754,90.4083-106.863,134.5143-74.7669,89.1566-66.9847,255.82,20.1548,333.32-29.1537,26.3876-67.7873,36.0546-97.55,24.9075-35.9668-13.4708-34.43-56.2015-32.2063-91.5489,3.7853-60.1946-8.0622-117.3736-31.4788-172.5219" fill="none" stroke="#000" stroke-linecap="round" stroke-linejoin="round" stroke-width="2"/><path d="M1394.3165,379.2321c-14.6685-26.6987-29.337-53.3972-43.7461-79.6241-205.0317,65.0222-410.58,28.6771-614.9514,24.9946-90.7783-1.6358-181.7428-1.3594-266.6088,38.9463" fill="none" stroke="#000" stroke-linecap="round" stroke-linejoin="round" stroke-width="2"/><path d="M1315.9007,920.301c35.19,21.6124,46.8609,55.5278,46.8379,94.0987-.06,97.768-25.6479,192.8909-20.6148,291.278-44.7272-42.9693-57.9494-258.9324-34.0647-385.3767" fill="none" stroke="#000" stroke-linecap="round" stroke-linejoin="round" stroke-width="2"/><path d="M335.7033,1061.4494c-83.6489,73.1075-87.0705,216.82-7.2754,330.1506-23.4252,55.23-70.83,24.0733-102.0444,19.5389-33.8278-4.9142-23.6123-47.1129-23.8143-75.2354-.51-70.9586-.2536-141.6854-15.0667-211.888-6.3224-29.9623,6.3512-56.4872,30.2478-78.6051,58.1816-53.8527,57.8269-119.0117,31.6956-187.842" fill="none" stroke="#000" stroke-linecap="round" stroke-linejoin="round" stroke-width="2"/><path d="M1982.4349,143.9847c-79.3941-6.5938-152.2025-23.5514-204.779-93.4235-40.0521-53.2292-191.79-40.8669-241.8627-.27-68.0481,55.17-62.6934,106.5792,15.3548,179.9511" fill="none" stroke="#000" stroke-linecap="round" stroke-linejoin="round" stroke-width="2"/><path d="M1715.8212,379.2321c42.38-44.21,32.4528-103.7833,19.3369-147.74-14.37-48.1525-8.1288-89.7038-2.9655-141.0709-57.1166-25.235-100.6588,5.6021-141.4385,38.3763-40.4255,32.49-23.987,76.1691-16.0813,117.1281" fill="none" stroke="#000" stroke-linecap="round" stroke-linejoin="round" stroke-width="2"/><path d="M186.7133,669.3705C158.17,819.927,102.0555,959.0384,3.27,1080.3759c49.55,28.111,62.9853-9.1391,80.9165-27.3455C146.2136,990.05,181.7444,907.4065,239.217,839.854c24.8458-29.2035-2.3571-78.8592-14.9628-115.0112-25.7225-73.77-7.73-142.2714,9.5086-212.3039" fill="none" stroke="#000" stroke-linecap="round" stroke-linejoin="round" stroke-width="2"/><path d="M1998.118,151.8263c48.5782,65.7443,33.39,110.9671-46.8752,149.3545-63.3041,30.2754-130.1231,21.52-196.2137,23.16" fill="none" stroke="#000" stroke-linecap="round" stroke-linejoin="round" stroke-width="2"/><path d="M610.1586,559.5884c15.12,195.2485-86.9715,330.7962-227.2594,447.1468-14.1645,11.748-26.2849,25.9618-39.3543,39.0313" fill="none" stroke="#000" stroke-linecap="round" stroke-linejoin="round" stroke-width="2"/><path d="M1480.5738,143.9847,1362.95,292.9747" fill="none" stroke="#000" stroke-linecap="round" stroke-linejoin="round" stroke-width="2"/><path d="M453.327,379.2321c-80.9118,28.3055-161.5665,57.0606-226.8788,121.6735,50.5677,22.0887,30.812,40.3858,7.3146,58.6828" fill="none" stroke="#000" stroke-linecap="round" stroke-linejoin="round" stroke-width="2"/><path d="M1284.5344,332.1826c-3.0038,49.163,27.278,88.536,39.2078,133.3068" fill="none" stroke="#000" stroke-linecap="round" stroke-linejoin="round" stroke-width="2"/><path d="M735.6238,590.9547c.0833,49.79,24.7189,88.839,54.8911,125.4652" fill="none" stroke="#000" stroke-linecap="round" stroke-linejoin="round" stroke-width="2"/><path d="M1527.6233,543.9053q19.6035,47.0495,39.2079,94.099" fill="none" stroke="#000" stroke-linecap="round" stroke-linejoin="round" stroke-width="2"/><path d="M312.1786,449.8063c-1.3081,33.1081-36.2764,43.7761-47.05,70.5742" fill="none" stroke="#000" stroke-linecap="round" stroke-linejoin="round" stroke-width="2"/></svg>