<svg width="263" height="223" xmlns="http://www.w3.org/2000/svg" viewBox="0 0 1503.3598 1632.92"><path d="M1444.6561,698.9882c-49.7948-.4058-87.3608-16.7436-122.7641-53.871-62.1331-65.1622-179.442-40.6336-225.484,36.0062-41.3216,68.7779-81.9469,143.9155-176.6652,152.9315-53.7476,5.1152-107.0265,9.4929-161.7637,6.1075-98.7179-6.1048-199.28-14.5752-296.7017-2.6672C331.3532,853.3752,248.8088,885.0887,201.5,954.2394l-.0082.0137c-.4139.6223-.8361,1.2363-1.2774,1.8421-24.49,36.6368-39.315,83.63-46.1983,144.1321-10.085,88.641-48.764,167.6931-98.5944,241.4792-11.1459,16.5-32.9635,33.8-13.1635,57.84,13.7254,4.6738,24.5835-1.6311,32.2426-8.35,52.0453-45.6363,87.8049-104.299,126.1385-167.3943,18.6076,34.781,25.4771,75.2692,5.7182,93.5616-49.29,45.6308-43.9751,97.7145-39.2985,153.8031,3.2566,39.0381,1.2664,78.4874,3.72,117.6215,1.3953,22.27,12.7,40.014,37.8566,40.8555,21.6449.721,47.3441,11.1706,63.4407-9.5011,17.4371-22.3851-5.9019-36.11-17.1876-52.38-30.5485-44.0272-22.3-139.7981,17.5933-182.0572,5.8169,17.0643,13.4431,31.93,15.7018,47.5716,5.06,35.0469,6.8477,70.5515,11.135,105.7272,2.7769,22.7606,13.6542,40.2662,39.9071,36.3352,19.1284-2.8646,43.6461,8.5253,56.3107-14.2,14.9151-26.76-7.38-35.5979-25.5978-45.5322-13.9666-7.6152-11.9683-21.4612-13.5993-34.3971-9.5368-75.6831-2.278-145.1464,62.3332-198.2416,16.8368-13.8323,29.0161-34.0846,41.0858-52.8348,51.7849-80.4666,51.9083-81.5685,140.2916-39.6686,115.719,54.8606,235.051,77.1963,361.3129,47.059-3.0154,3.9063-6.7764,7.8455-6.7819,11.79-.1151,87.5281-.4824,175.078,1.4063,262.5732.5482,25.5128,71.955,95.9875,95.0034,94.6525,30.4114-1.7626,60.5377-6.6969,89.1426-10.6635a59.8543,59.8543,0,0,1,11.3872-34.3862,34.3333,34.3333,0,0,0-6.5763-7.3438c-15.1262-12.8811-38.605-18.539-40.4224-42.8566-7.64-102.1334-25.2825-206.7257,18.7693-303.5658,31.7272-69.7483,54.9922-142.405,85.3487-211.8683,32.8786-75.239,59.4687-167.6958,178.2661-152.8492,44.1889,5.5236,82.5417-21.4146,104.4114-63.3036C1517.3731,729.7916,1500.8462,699.4459,1444.6561,698.9882ZM63.8239,1367.4825c52.8842-79.2961,93.3258-162.6218,106.6811-258.719C217.7751,1164.5507,169.1509,1282.8,63.8239,1367.4825Zm270.6,80.0609c4.9315,39.0627,2.5795,77.2593,45.746,98.97-47.314,24.4985-66.2944,9.8739-65.779-36.9877.2056-18.6323,4.1338-40.2114-3.55-55.4472-42.229-83.7424,5.1562-129.8666,66.2778-171.5034C357.1977,1335.8375,326.5478,1385.1855,334.4234,1447.5434Zm45.25-166.8q5.5962-4.4,11.187-8.7939C391.7813,1280.5109,387.7078,1283.03,379.6732,1280.7439Zm12.4562-10.625c1.4611-5.8252,4.227-9.9782,11.0692-8.8844C402.897,1268.7263,399.4294,1271.9856,392.1294,1270.1189Zm12.7386-10.68c8.5582-31.9822,26.8149-57.9253,50.19-80.68C454.0624,1215.3734,437.0886,1242.202,404.868,1259.439Zm575.6812,226.01v-189.645C1012.767,1358.9654,984.757,1422.2608,980.5492,1485.4493Zm191.054-435.2525c-26.6916-10.2166-18.3527-40.5623-39.77-47.8814-2.9413,2.0066-8.1223,5.181-7.9606,5.4825,38.2267,70.9983,9.2216,130.2751-19.2572,198.5212-42.2481,101.237-33.361,212.2164-15.288,320.2654,4.1338,24.7178,31.7519,28.8461,42.8732,48.1911-106.6592,27.503-121.6484,17.6811-121.8786-85.5708-.11-48.468,6.5954-96.914,7.8673-145.4314,1.1678-44.6686-11.5077-83.8931-53.3721-107.6186,26.5079-90.6065,22.396-179.9985-13.1525-267.3182-8.5472-20.9925-15-45.0524-47.5085-66.9358,19.0708,64.359,44.0875,113.6932,54.46,168.0247,8.4705,44.3452.3756,85.198-5.8224,127.6-3.13,21.4037-15.9019,26.8177-34.1038,29.759-113.5781,18.3582-221.0844-3.7692-318.596-60.4417-59.0849-34.34-79.8937-99.7705-96.81-164.9327-13.2156,52.1166,17.3466,93.9837,34.504,142.512-24.2463,1.0718-47.0946,2.0779-72.9034,3.2182,12.607-48.1253,20.8746-91.6262,13.158-135.6259-11.11-3.6788-16.5846,1.6255-16.3708,9.5943,3.5417,133.0191-66.7219,230.2456-165.9,302.0526-88.0242,63.7313-95.8121,200.8128-42.2974,280.1719-55.4335,16.5764-62.66,12.3028-65.4336-39.63-2.6782-50.184-4.9425-100.3927-7.5412-150.5822-.6825-13.1854-3.3087-28.3883,6.7435-37.5934,76.6151-70.1513,39.4712-152.5587,22.41-230.2265-15.3455-69.8607-.8114-128.7125,42.3057-182.8357,6.93-8.7007,14.6-17.8866,23.9585-23.41,90.6256-53.4845,180.0314-100.1269,294.1276-89.5018,120.3024,11.2035,242.3263,16.442,362.8178,2.7221,23.8132,26.5161,20.1948,65.8228,50.3019,90.8175,11.19-26.0693-7.1437-43.55-12.19-63.0788-4.2709-16.5435-12.533-34.5452,8.9556-43.26,19.2984-7.8235,24.8412,9.4738,31.3791,23.1471,5.48,11.4722,9.397,25.055,28.8187,27.2316,3.0648-30.3566-35.05-57.3085-9.5751-88.2024,18.6788-22.6537,38.2513-44.5782,56.2833-65.5048,58.2953,46.264,88.153,118.2958,159.4693,159.8311C1198.6812,934.6258,1187.16,993.1651,1171.6032,1050.1968ZM1261.99,861.6812c-55.6528-7.0532-97.0127-58.6216-93.8384-122.161,2.5795-51.6862,47.5908-52.5524,94.5018-66.7C1251.1542,741.7818,1279.9016,801.2394,1261.99,861.6812Zm34.3177-35.7678c-18.0484-53.4845-15.7759-110.8286-16.25-166.6624-78.6546-7.9907-118.485,18.64-141.9336,91.4261-35.8665-42.2262-31.93-76.1984,12.0176-103.737,54.7235-34.2875,132.8107-20.7458,175.0725,29.9728,8.24,9.8932,17.8565,18.6432,26.84,27.9223l-1.2637-1.3706c47.4784,8.4924,100.2145,6.6092,123.3287,63.1063C1440.292,823.03,1397.46,837.8049,1296.308,825.9134Z"/><path d="M243.3756,951.2679q-2.3683.2631-4.7369.5318c1.3652-.2549,2.7084-.5126,4.0763-.7675C242.9343,951.1089,243.1563,951.1884,243.3756,951.2679Z"/><path d="M222.7724,954.7849l-.3015,2.9633-.5921-2.7933C222.1721,954.8973,222.4763,954.8425,222.7724,954.7849Z"/><path d="M456.9106,1180.0963c-.5236-.5373-1.05-1.0773-1.5735-1.6174.5949-.5756,1.1486-1.1759,1.7489-1.7489Z"/><path d="M1431.7935,123.1547c-64.6013-4.71-121.2-54.376-131.6383-119.0177-32.4219-4.3488-72.628-13.1434-86.4234,23.8725-16.4629,44.1777-45.84,38.4089-78.13,37.121-37.0644-1.4792-69.2114-23.4522-103.9074-28.868C890.8627,14.2842,749.5783.0226,608.8759,42.25c-32.3788,9.7161-64.8141,10.2226-100.0113-9.0263C439.5131-4.7115,309.8739,16.0167,274.7738,67.9c-18.1361,26.81-39.0421,38.1126-68.7184,44.245C101.69,133.7088,68.5837,232.3782,0,293.7786c38.0559,23.8887,63.2837,11.1037,85.6474-4.3246,31.67-21.8463,61.174-46.8855,91.1709-71.0948,24.4923-19.7662,61.95-34.7876,77.8147-10.8558,49.7389,75.05,121.1356,72.5633,195.3937,71.0329,53.0234-1.094,105.5429-.3638,158.957,5.0951,98.5967,10.08,198.5057,46.8882,298.0751-.5766,12.4536-5.9358,33.9523-1.8861,47.4891,4.9793,62.4215,31.6513,114.3213,2.2229,163.6642-28.5716,34.7633-21.6954,58.07-24.2928,81.7836,13.31,21.5553,34.176,52.921,50.44,96.2364,44.2423a57.783,57.783,0,0,1,6.3-16.3982,59.398,59.398,0,0,1,1.9346-9.2364c2.2175-15.0861,12.89-25.9015,28.1243-38.8023,32.1875-27.2675,65.3585-34.5155,103.9344-37.5763,29.2964-2.3253,59.9211-6.0409,58.3233-49.09C1493.1858,121.1474,1460.1657,125.224,1431.7935,123.1547ZM1283.175,15.0144v48.688c-21.5123-.1993-50.52,9.3928-53.6459-18.6669C1226.215,15.3,1257.9067,21.3112,1283.175,15.0144ZM714.0875,278.9889c-91.5509-19.0037-183.091-27.2216-276.9536-15.5171-58.9835,7.3531-116.194-4.7395-157.7958-49.8144,2.1879-27.4507,38.1476-24.2389,34.6125-43.9836C196.1777,150.5192,128.0871,248.3265,34.052,287.8643,108.884,209.7883,157.6826,89.7089,308.2411,125.96c-45.3443-20.82-28.3749-40.7854-9.56-58.9807C351.5161,15.882,422.8265,22.7581,474.694,45.367c66.8054,29.1158,123.7114,17.5972,185.6237,3.6105,66.1856-14.9513,132.3766-27.378,203.6062-8.25-12.86,39.7561-32.333,75.7939-23.3983,117.948,8.0886,38.1664,26.4538,71.4909,46.7562,107.3294C829.0366,297.5669,771.7318,290.9521,714.0875,278.9889ZM861.5555,107.034C876.1134,52.6769,902.4433,34.98,965.35,40.6706c-49.0734,67.9451-56.3968,141.0311-26.9738,220.5621C880.5458,234.329,846.69,162.539,861.5555,107.034Zm79.8167,52.8672c3.6752-72.6388,31.2821-106.3351,91.0227-103.5868-78.747,72.5713-63.6178,148.5027-7.5874,226.11C962.4748,277.8546,937.4087,238.1955,941.3722,159.9012Zm210.5039,6.8222c12.8254,59.8619-39.6,69.7584-71.0787,94.5605-16.8455,13.2754-36.9135,4.3434-49.0626-10.6833-27.54-34.0547-44.94-72.6711-27.8037-116.8972,16.4548-42.4586,40.7719-73.8055,95.3392-55.9415,20.3536,6.6606,43.2777,5.4831,69.7126,8.3958C1162.837,117.6312,1146.38,141.0645,1151.8761,166.7234Zm76.1846,106.16c17.3224-9.7215,33.9173-6.8654,50.8867-1.0077C1265.8391,304.373,1265.8391,304.373,1228.0607,272.8834Zm217.7007-79.6712c-31.0424,13.0248-61.8719,11.1037-91.9847-2.266-24.7374,50.329-87.3368,74.2958-142.92,51.5172-48.44-19.85-41.9008-64.9084-35.1055-104.1041,6.5959-38.04,29.9862-62.3892,73.6788-55.7528,40.0525,6.084,82.5515-1.3149,111.7805,42.3265,14.7977,22.0889,51.5954,9.7538,76.4945,17.1392C1449.0593,158.4058,1445.39,174.9468,1445.7614,193.2122Z"/><path d="M964.6385,1236.8037c26.72-90.8262,22.66-180.4386-12.9736-267.967-8.5465-20.9924-14.9994-45.0513-47.5079-66.9361,19.07,64.3588,44.0861,113.6921,54.4611,168.0233,8.469,44.3459.3748,85.2011-5.8252,127.6012-3.13,21.4045-15.9,26.8186-34.1032,29.7607-113.5774,18.3559-221.0829-3.7718-318.5939-60.4444-59.0852-34.34-79.8951-99.7705-96.8113-164.9306-13.2149,52.1164,17.3477,93.9836,34.5044,142.5119l-72.9024,3.2173c12.6046-48.1263,20.8736-91.6262,13.1559-135.6272-11.1106-3.6771-16.5835,1.6263-16.3714,9.5967,3.5414,133.0185-66.722,230.2451-165.8979,302.05-88.0256,63.7323-95.8117,200.813-42.2988,280.1716-55.4349,16.5784-62.6581,12.3046-65.4319-39.6278-2.6806-50.1856-4.9435-100.3932-7.5436-150.5832-.6829-13.1849-3.308-28.3884,6.7445-37.5933,76.6162-70.1525,39.4713-152.56,22.41-230.2275-15.3455-69.8583-.8107-128.7106,42.304-182.835,6.93-8.7,14.6009-17.8877,23.9585-23.4105,90.6263-53.4854,180.0311-100.1273,294.1269-89.5011,120.3052,11.2045,242.3287,16.4425,362.8189,2.7209,23.8153,26.5173,20.1961,65.8232,50.3019,90.8186,11.1911-26.07-7.1437-43.55-12.1883-63.08-4.2722-16.5409-12.5337-34.5436,8.955-43.2583,19.297-7.8254,24.84,9.4723,31.377,23.1482,5.4818,11.47,9.3977,25.0551,28.8208,27.2306,3.0633-30.3571-35.05-57.3087-9.5759-88.2029,18.68-22.6553,38.25-44.5774,56.2847-65.5058,58.2947,46.2655,88.151,118.2952,159.4679,159.8308-47.6237,40.8716-59.1465,99.41-74.701,156.4426-26.6915-10.2184-18.3534-40.5647-39.7714-47.8835-2.94,2.0069-8.121,5.1834-7.9592,5.4836,38.2267,70.9984,9.2215,130.274-19.2587,198.52-42.2487,101.2385-33.36,212.2174-15.2872,320.2676,4.1345,24.718,31.7532,28.8446,42.8724,48.19-106.6571,27.503-121.6469,17.6811-121.8786-85.57-.1089-48.4677,6.5968-96.9146,7.8667-145.4323,1.1849-45.2862-11.7969-85.0114-55.07-108.6277C963.0794,1235.0833,964.6385,1236.8037,964.6385,1236.8037Zm-403.331-207.4622c-7.3442,41.07,6.655,72.9785,40.8075,96.2361C593.2464,1091.4669,573.4889,1062.03,561.3075,1029.3415Z" fill="#ee714a"/><path d="M1350.79,703.4633c47.48,8.4922,100.2159,6.61,123.3308,63.1068-33.83,56.46-76.66,71.2352-177.8124,59.3442-18.0483-53.4847-15.7752-110.83-16.2494-166.664-78.6567-7.99-118.4843,18.6422-141.9329,91.4278-35.8672-42.2265-31.9314-76.201,12.017-103.7376,54.7235-34.2877,132.81-20.7475,175.07,29.9722,8.2429,9.8933,17.8579,18.6436,26.69,27.7606-19.872-9.4107-36.2393-12.0524-40.4828,17.4575C1332.5647,725.398,1341.4545,714.0274,1350.79,703.4633Z" fill="#ee714a"/><path d="M1262.6533,672.8211c-11.5,68.9615,17.2472,128.419-.6621,188.86-55.6521-7.0521-97.0127-58.6217-93.84-122.161C1170.7317,687.8357,1215.7437,686.9664,1262.6533,672.8211Z" fill="#ee714a"/><path d="M377.82,1280.1064c-19.7075,54.3186-51.3851,104.1794-43.3967,167.4383,4.9325,39.0607,2.58,77.2566,45.7456,98.97-47.3129,24.4963-66.293,9.8726-65.778-36.9882.2049-18.6324,4.1331-40.2108-3.55-55.4477-42.67-84.62,6.1318-130.8353,68.2674-172.73C379.1975,1281.4376,377.82,1280.1064,377.82,1280.1064Z" fill="#ee714a"/><path d="M63.8242,1367.4831C116.7066,1288.187,157.15,1204.86,170.506,1108.7649,217.7757,1164.55,169.1514,1282.8,63.8242,1367.4831Z" fill="#ee714a"/><path d="M980.5494,1295.8039c37.1275,72.7887-5.7792,145.7577,0,218.5352Z" fill="#ee714a"/><path d="M455.1592,1177.9867c-.9166,37.7545-18.3965,65.084-51.84,82.3683l.9786,1.0447c8.552-33.8616,27.9329-60.9718,52.7885-84.6685Z" fill="#ee714a"/><path d="M243.565,951.1025l1.2963-3.6657-5.168,2.52c1.2271.4367,2.4545.8733,3.3923,1.21C242.7964,951.0675,243.565,951.1025,243.565,951.1025Z" fill="#fff"/><path d="M221.7327,954.934c7.1238-1.325,14.2473-2.65,21.6017-3.9033.2306.0718-.538.0368-.2488.1364-6.5368.8668-13.3629,1.6337-20.1889,2.4007Z" fill="#878787"/><path d="M457.0859,1176.7312l-.1747,3.3659a22.5182,22.5182,0,0,1-1.7815-1.9857A22.5032,22.5032,0,0,1,457.0859,1176.7312Z" fill="#fff"/><path d="M222.8967,953.5678l-.4263,4.1811s-.5924-2.7947-.6651-2.8048A16.2909,16.2909,0,0,1,222.8967,953.5678Z" fill="#fff"/><path d="M391.7932,1271.0875c1.5354-6.6176,4.3647-11.5693,12.4973-9.6946.0069.0068-.9714-1.0355-.9717-1.0379-.036,8.7758-3.8823,12.46-12.7006,9.4989Z" fill="#ee714a"/><path d="M390.6182,1269.8539c1.9908,10.9808-2.7508,13.8063-12.71,10.3354-.0887-.0829,1.2891,1.2483,1.2,1.1595,4.191-3.4548,8.4718-6.8205,12.7187-10.2238C391.7932,1271.0875,390.6182,1269.8539,390.6182,1269.8539Z" fill="#ee714a"/><path d="M305.0085,126.5041c-45.5954-20.934-28.5326-41.0128-9.6128-59.31,53.1307-51.3827,124.8368-44.465,176.9955-21.7321,67.1793,29.28,124.4013,17.6969,186.66,3.6318,66.5547-15.0354,133.1135-27.5309,204.7407-8.296-12.93,39.9762-32.5121,76.2171-23.5275,118.607,8.1337,38.3777,26.6007,71.8878,47.0171,107.9254-58.5709,31.74-116.1963,25.0891-174.1621,13.0578-92.0625-19.1088-184.11-27.374-278.5-15.604-59.311,7.3959-116.84-4.7653-158.6759-50.092,2.2-27.6019,38.3594-24.3739,34.8053-44.2273-118.4283-19.2627-186.8993,79.09-281.46,118.8492C104.5393,210.8014,153.6092,90.0511,305.0085,126.5041Z" fill="#ee714a"/><path d="M1353.777,190.9471c-24.7381,50.3278-87.3361,74.2953-142.9192,51.5164-48.44-19.8513-41.9016-64.9085-35.1056-104.1057,6.5953-38.0376,29.9855-62.3871,73.6788-55.7513,40.0511,6.0824,82.5515-1.315,111.7812,42.3264,14.795,22.09,51.5947,9.7548,76.4924,17.14,11.3557,16.3319,7.6859,32.8739,8.0584,51.14C1414.72,206.2369,1383.8891,204.3168,1353.777,190.9471Z" fill="#ee714a"/><path d="M1168.9838,86.1589c-6.1479,31.4719-22.6048,54.9055-17.1068,80.5646,12.8261,59.8613-39.6,69.7589-71.078,94.5618-16.8475,13.2745-36.9142,4.3415-49.0646-10.6839-27.5383-34.0548-44.9409-72.6732-27.803-116.8966,16.4541-42.46,40.7719-73.8066,95.3378-55.9445C1119.6249,84.4241,1142.5489,83.2455,1168.9838,86.1589Z" fill="#ee714a"/><path d="M965.3494,40.67c-49.0728,67.946-56.3948,141.0324-26.9725,220.5633C880.546,234.3292,846.69,162.54,861.5558,107.0354,876.1144,52.6766,902.4422,34.979,965.3494,40.67Z" fill="#ee714a"/><path d="M1024.8063,282.4245c-62.3312-4.5692-87.3967-44.2288-83.4339-122.5225,3.6766-72.6391,31.2808-106.3375,91.0214-103.5871C953.65,128.8857,968.778,204.8171,1024.8063,282.4245Z" fill="#ee714a"/><path d="M1283.1752,15.0132V63.7026c-21.5122-.2-50.52,9.3934-53.6458-18.6663C1226.2153,15.2986,1257.9063,21.3112,1283.1752,15.0132Z" fill="#ee714a"/><path d="M1228.0609,272.8835c17.3238-9.7221,33.9173-6.8647,50.8874-1.0078C1265.8387,304.3722,1265.8387,304.3722,1228.0609,272.8835Z" fill="#ee714a"/><path d="M561.3075,1029.3415c12.1814,32.6889,31.9389,62.1254,40.8075,96.2361C567.9625,1102.32,553.9633,1070.4117,561.3075,1029.3415Z"/><path d="M1350.79,703.4633c-9.3353,10.5641-18.2251,21.9347-39.3691,18.6675,4.2435-29.51,20.6108-26.8682,40.4828-17.4576C1352.0536,704.8334,1350.79,703.4633,1350.79,703.4633Z"/><path d="M869.4814,35.6729c-69.8965-26.5982-141.635-13.3194-209.1466,2.343-61.428,14.2509-115.57,25.671-177.76-.853C390.679-2.03,320.8647,21.101,268.5314,96.7393c-5.0133,7.2459-7.1055,16.1646-17.0822,16.0328C127.1511,111.13,89.8156,226.02,9.3185,287.5464c45.4666,34.34,70.1017-8.3574,97.7551-21.9449,27.998-13.7566,45.762-47.7283,73.4606-62.8787,28.3893-15.528,59.5169-31.0008,89.3171,13.82,33.8038,50.8416,94.895,61.264,152.5622,55.4514,108.5112-10.9372,214.6109-.2619,320.1232,23.1549C798.8661,307.65,851.478,296.4761,902.59,272.9539" fill="none" stroke="#000" stroke-linecap="round" stroke-linejoin="round" stroke-width="2"/><path d="M1135.3,1586.9161c-55.4992,5.4724-111.9537,28.8713-136.4846-39.7691" fill="none" stroke="#000" stroke-linecap="round" stroke-linejoin="round" stroke-width="2"/><path d="M1167.238,794.861c20.9555,44.5979,48.3111,82.6069,100.5325,89.98-47.2,44.7449-68.903,103.7651-88.0155,164.31-11.2522,67.0523-56.1648,111.9649-78.6211,179.3338-22.4563,89.8252-11.2281,190.8785-11.2281,280.7037,11.2281,22.4563,33.6844,44.9126,45.991,63.8394" fill="none" stroke="#000" stroke-linecap="round" stroke-linejoin="round" stroke-width="2"/><path d="M914.6046,907.1425c16.4571,56.2562,42.8882,108.1768,54.4405,167.6622,9.6889,49.889-7.82,90.58-9.8,135.4859-1.065,24.1286-24.077,25.2239-39.1333,27.3132-117.8278,16.3516-229.3671-3.8672-330.8724-67.0038-63.2526-39.3429-76.5346-107.1558-90.0764-173.6323" fill="none" stroke="#000" stroke-linecap="round" stroke-linejoin="round" stroke-width="2"/><path d="M555.3038,1154.1618c-47.9417-4.3409-77.23,12.7925-97.5781,60.8494-15.4048,36.3833-50.0264,64.7266-76.5072,96.3038-53.5284,63.83-47.9568,183.1511,14.43,238.6357-20.8722,18.8918-48.5314,25.8127-69.8395,17.8321-25.75-9.6442-24.6493-40.2367-23.0577-65.5432,2.71-43.0955-5.772-84.0321-22.5368-123.5148" fill="none" stroke="#000" stroke-linecap="round" stroke-linejoin="round" stroke-width="2"/><path d="M1032.5,879.0721c-10.5018-19.1145-21.0035-38.229-31.3195-57.0058-146.79,46.5518-293.9491,20.531-440.2663,17.8946-64.9915-1.1711-130.1164-.9733-190.8751,27.8831" fill="none" stroke="#000" stroke-linecap="round" stroke-linejoin="round" stroke-width="2"/><path d="M976.3594,1266.4433c25.1941,15.4731,33.5495,39.7544,33.533,67.3687-.0432,69.9957-18.3622,138.0977-14.7589,208.5367-32.0218-30.7633-41.4881-185.3793-24.3882-275.9054" fill="none" stroke="#000" stroke-linecap="round" stroke-linejoin="round" stroke-width="2"/><path d="M274.6,1367.4966c-59.8873,52.34-62.337,155.23-5.2087,236.367-16.7709,39.5408-50.71,17.2349-73.0573,13.9886-24.2186-3.5182-16.9049-33.73-17.0495-53.8638-.3653-50.8018-.1816-101.4378-10.7868-151.6984-4.5265-21.4511,4.547-40.4413,21.6555-56.2763,41.6543-38.5551,41.4-85.2048,22.692-134.483" fill="none" stroke="#000" stroke-linecap="round" stroke-linejoin="round" stroke-width="2"/><path d="M1453.5558,710.65c-56.8412-4.7208-108.9673-16.8613-146.6088-66.8853-28.6748-38.1088-137.31-29.2582-173.1584-.1935-48.7182,39.4983-44.8845,76.304,10.9931,128.8336" fill="none" stroke="#000" stroke-linecap="round" stroke-linejoin="round" stroke-width="2"/><path d="M1262.6772,879.0721c30.3415-31.6514,23.2342-74.3023,13.844-105.7727-10.2879-34.4742-5.82-64.2223-2.1231-100.9979-40.8918-18.0667-72.0653,4.0107-101.261,27.4751-28.9421,23.2608-17.1732,54.5322-11.5132,83.8563" fill="none" stroke="#000" stroke-linecap="round" stroke-linejoin="round" stroke-width="2"/><path d="M985.3628,41.1911c-34.9486-32.8307-78.78-19.5583-102.8243,2.23-38.9161,35.2659-49.1266,92.6659-27.3274,140.1944,17.9152,39.0607,26.8741,101.6,97.0427,89.3382" fill="none" stroke="#000" stroke-linecap="round" stroke-linejoin="round" stroke-width="2"/><path d="M167.9326,1086.7929c-20.4349,107.7889-60.61,207.3839-131.3338,294.2539,35.4748,20.1257,45.0935-6.543,57.9311-19.5776,44.4075-45.09,69.8453-104.2576,110.9921-152.6209,17.7879-20.9078-1.6876-56.4582-10.7125-82.3407-18.4157-52.8149-5.5339-101.8573,6.8076-151.9962" fill="none" stroke="#000" stroke-linecap="round" stroke-linejoin="round" stroke-width="2"/><path d="M1189.5348,79.8182c-32.434,45.9485-33.8816,96.4874-22.468,146.9069-49.5779,13.2516-87.3321,51.0593-137.34,63.65-37.5171,9.446-59.872-.444-77.91-33.7389C921.9807,201.569,924.1235,146.1081,947.2018,91.05c22.6863-54.1232,54.6582-59.3983,110.3868-34.3952C1105.8274,78.2978,1159,80.57,1211.6075,68.7819" fill="none" stroke="#000" stroke-linecap="round" stroke-linejoin="round" stroke-width="2"/><path d="M1464.7839,716.264c34.7789,47.0687,23.9051,79.4454-33.56,106.9284-45.3217,21.6752-93.16,15.4072-140.4766,16.5812" fill="none" stroke="#000" stroke-linecap="round" stroke-linejoin="round" stroke-width="2"/><path d="M1222.6438,63.2637c27.8818,16.0635,58.4742,10.4479,87.483,11.0714-5.47-19.5406-10.9906-39.2583-18.4386-65.8614-30.7675,2.7039-79.4644-15.9194-74.5626,54.79" fill="none" stroke="#000" stroke-linecap="round" stroke-linejoin="round" stroke-width="2"/><path d="M1046.0626,63.2637c-71.0275,61.1526-88.86,115.3692-5.5182,215.2084" fill="none" stroke="#000" stroke-linecap="round" stroke-linejoin="round" stroke-width="2"/><path d="M1288.8618,261.9176c-28.3574-9.6553-56.0425-9.2327-85.0324,3.1508,34.6751,36.3192,34.6751,36.3192,79.5142,46.5126,19.579-10.74-4.4155-32.3734,11.0363-44.1453" fill="none" stroke="#000" stroke-linecap="round" stroke-linejoin="round" stroke-width="2"/><path d="M471.0927,1008.1959c10.8252,139.7856-62.2661,236.8292-162.7034,320.1288-10.1409,8.4109-18.8183,18.5871-28.1752,27.944" fill="none" stroke="#000" stroke-linecap="round" stroke-linejoin="round" stroke-width="2"/><path d="M1454.4066,135c-52.8785,2.5657-95.0259-20.6234-132.4359-55.1816" fill="none" stroke="#000" stroke-linecap="round" stroke-linejoin="round" stroke-width="2"/><path d="M1094.255,710.65l-84.2111,106.6674" fill="none" stroke="#000" stroke-linecap="round" stroke-linejoin="round" stroke-width="2"/><path d="M202.59,969.1167c24.5852,9.31,15.919,27.9938-.9729,39.0792" fill="none" stroke="#000" stroke-linecap="round" stroke-linejoin="round" stroke-width="2"/><path d="M358.8112,879.0721c-54.0088,18.7278-109.1233,39.52-152.5842,77.8918" fill="none" stroke="#000" stroke-linecap="round" stroke-linejoin="round" stroke-width="2"/><path d="M953.9031,845.3877c-2.15,35.1976,19.5293,63.3862,28.07,95.4393" fill="none" stroke="#000" stroke-linecap="round" stroke-linejoin="round" stroke-width="2"/><path d="M560.9179,1030.6522c.06,35.6465,17.6971,63.6031,39.2985,89.8252" fill="none" stroke="#000" stroke-linecap="round" stroke-linejoin="round" stroke-width="2"/><path d="M1366.116,206.7359c30.1937,10.3755,59.6652,9.1916,88.2906-5.5181" fill="none" stroke="#000" stroke-linecap="round" stroke-linejoin="round" stroke-width="2"/><path d="M1355.08,184.6633c11.3536,50.57-24.9442,63.6992-60.7,77.2543" fill="none" stroke="#000" stroke-linecap="round" stroke-linejoin="round" stroke-width="2"/><path d="M1127.9394,996.9678q14.0349,33.6844,28.07,67.3689" fill="none" stroke="#000" stroke-linecap="round" stroke-linejoin="round" stroke-width="2"/><path d="M257.7578,929.5988c-.9365,23.7033-25.9716,31.3409-33.6844,50.5267" fill="none" stroke="#000" stroke-linecap="round" stroke-linejoin="round" stroke-width="2"/><path d="M317.6651,162.5906,273.52,190.1815" fill="none" stroke="#000" stroke-linecap="round" stroke-linejoin="round" stroke-width="2"/></svg>