<svg width="263" height="223" xmlns="http://www.w3.org/2000/svg" viewBox="0 0 1504.4199 1637.5413"><path d="M1445.4761,699.79c-49.9983-.4073-87.718-16.812-123.266-54.0912-62.3872-65.4287-180.1758-40.8-226.4061,36.1535-41.4905,69.0591-82.282,144.504-177.3876,153.5568-53.9674,5.1361-107.4642,9.5318-162.4252,6.1325-99.1215-6.13-200.0954-14.6348-297.915-2.6782-130.4555,15.945-213.3374,47.7882-260.8393,117.2217l-.0083.0137c-.4156.6249-.8395,1.2414-1.2826,1.85-24.59,36.7866-39.4758,83.972-46.3872,144.7214-10.1263,89.0035-48.9635,168.3788-98.9976,242.4667-11.1915,16.5671-33.0983,33.9378-13.2173,58.0769,13.7815,4.6929,24.684-1.6377,32.3744-8.384,52.2581-45.8229,88.1639-104.7255,126.6543-168.0788,18.6837,34.9232,25.5813,75.577,5.7416,93.9441-49.4919,45.8174-44.1549,98.1141-39.4592,154.4321,3.27,39.1978,1.2716,78.8084,3.7351,118.1025,1.401,22.3609,12.7521,40.1776,38.0114,41.0226,21.7334.7239,47.5377,11.2162,63.7-9.54,17.5084-22.4766-5.926-36.2582-17.2579-52.594-30.6734-44.2072-22.3912-140.37,17.6653-182.8017,5.8407,17.1341,13.498,32.0606,15.7661,47.7662,5.081,35.19,6.8756,70.84,11.18,106.1595,2.7883,22.8536,13.71,40.4308,40.07,36.4838,19.2067-2.8763,43.8246,8.56,56.541-14.2577,14.9761-26.87-7.41-35.7434-25.7025-45.7183-14.0237-7.6464-12.0172-21.549-13.6549-34.5379-9.5758-75.9926-2.2873-145.74,62.5881-199.0522,16.9056-13.8889,29.1348-34.224,41.2538-53.0508,51.9967-80.7956,52.1206-81.9021,140.8653-39.8308,116.1922,55.0849,236.0122,77.5119,362.79,47.2514-3.0277,3.9223-6.8041,7.8775-6.81,11.8383-.1156,87.886-.4845,175.7939,1.412,263.6469.5505,25.6171,72.2492,96.38,95.3919,95.04,30.5357-1.77,60.7853-6.7243,89.5071-10.7071a60.1,60.1,0,0,1,11.4337-34.5268,34.4678,34.4678,0,0,0-6.6031-7.3738c-15.1881-12.9338-38.7628-18.6149-40.5877-43.032-7.6711-102.551-25.3859-207.571,18.846-304.8071,31.857-70.0335,55.2171-142.9874,85.6978-212.7346,33.013-75.5467,59.7118-168.3816,178.995-153.4743,44.37,5.5462,82.8793-21.5022,104.8384-63.5625C1518.4906,730.72,1501.896,700.25,1445.4761,699.79ZM58.9975,1371.0184c53.1-79.62,93.7074-163.2868,107.1173-259.7769C213.5782,1167.2567,164.7551,1285.99,58.9975,1371.0184Zm271.706,80.3882c4.9517,39.2226,2.59,77.5753,45.933,99.3748-47.5074,24.5987-66.5654,9.9143-66.048-37.1389.2065-18.7085,4.1508-40.3758-3.5644-55.674-42.4016-84.0848,5.1774-130.3976,66.5489-172.2047C353.5709,1339.244,322.7957,1388.7938,330.7035,1451.4066Zm45.4348-167.4815q5.6192-4.4176,11.2328-8.83C388.2959,1283.6912,384.2058,1286.2207,376.1383,1283.9251Zm12.5072-10.6685c1.467-5.849,4.2443-10.0189,11.1144-8.9207C399.4571,1271.8584,395.9753,1275.131,388.6455,1273.2566Zm12.7906-10.7236c8.5932-32.1129,26.9246-58.1621,50.3948-81.01C450.8317,1218.2873,433.7885,1245.2256,401.4361,1262.533Zm578.0353,226.9346v-190.42C1011.821,1362.4665,983.6964,1426.0207,979.4714,1489.4676Zm191.8353-437.0324c-26.8007-10.2584-18.4277-40.7281-39.9327-48.0771-2.9534,2.0148-8.1555,5.2021-7.9931,5.5049,38.383,71.2886,9.2592,130.8078-19.336,199.3329-42.4209,101.651-33.4974,213.0842-15.3505,321.5751,4.1507,24.8189,31.8817,28.9641,43.0484,48.3882-107.0953,27.6154-122.1458,17.7533-122.377-85.9207-.11-48.6662,6.6224-97.31,7.9-146.0261,1.1725-44.8513-11.5548-84.2362-53.59-108.0587,26.6163-90.977,22.4876-180.7346-13.2062-268.4114-8.5822-21.0783-15.0615-45.2366-47.7029-67.21,19.1489,64.6222,44.2678,114.1582,54.6831,168.7119,8.5051,44.5265.3771,85.5463-5.8462,128.1213-3.1433,21.4912-15.967,26.9273-34.2433,29.8807-114.0426,18.4332-221.9885-3.7846-319.8989-60.6889-59.3264-34.48-80.22-100.1784-97.2057-165.6071-13.27,52.33,17.4175,94.368,34.6451,143.0947-24.3454,1.0763-47.2872,2.0864-73.2016,3.2314,12.6586-48.3221,20.96-92.0008,13.2118-136.1805-11.1557-3.6938-16.6523,1.6322-16.4376,9.6336,3.5561,133.5629-66.9948,231.1871-166.5787,303.2877-88.3842,63.9919-96.2039,201.634-42.47,281.3176-55.66,16.6441-62.9156,12.3531-65.7011-39.7922-2.6892-50.3893-4.9627-100.8033-7.572-151.198-.6854-13.2393-3.3222-28.5045,6.771-37.7472C259.85,1309.16,222.554,1226.4153,205.4227,1148.43c-15.4083-70.1463-.8148-129.2388,42.4786-183.5833,6.9582-8.7363,14.66-17.96,24.0565-23.506,90.9962-53.7032,180.7676-100.5363,295.33-89.8678,120.7943,11.2493,243.3172,16.5093,364.3015,2.7332,23.9106,26.6246,20.2773,66.092,50.5075,91.1889,11.2356-26.1758-7.1729-43.7282-12.24-63.3368-4.2884-16.611-12.5843-34.6864,8.9922-43.4365,19.3773-7.8555,24.9428,9.5125,31.5074,23.2418,5.5022,11.519,9.4354,25.1574,28.9366,27.3429,3.0773-30.4807-35.1929-57.5429-9.6143-88.5631,18.7552-22.7463,38.4078-44.76,56.5134-65.7727,58.5338,46.4532,88.5135,118.7795,160.1215,160.4848C1198.4954,936.3917,1186.9268,995.17,1171.3067,1052.4352Zm90.7567-189.2864c-55.88-7.0821-97.4094-58.8613-94.2221-122.6605,2.59-51.8976,47.7854-52.7674,94.8882-66.9728C1251.183,742.759,1280.048,802.46,1262.0634,863.1488Zm34.458-35.9141c-18.1221-53.7032-15.84-111.2818-16.3165-167.3439-78.9763-8.0234-118.9695,18.7167-142.514,91.8-36.0132-42.3989-32.0606-76.51,12.0668-104.1613,54.9473-34.4277,133.3538-20.8306,175.7884,30.0954,8.2739,9.9336,17.9295,18.7195,26.9493,28.0365l-1.2689-1.3762c47.6726,8.5271,100.6243,6.6362,123.8331,63.3643C1441.0942,824.3391,1398.0871,839.1749,1296.5214,827.2347Z"/><path d="M239.2834,953.1018q-2.3781.2643-4.7563.534c1.3708-.256,2.72-.5147,4.0929-.7707C238.84,952.9422,239.0632,953.022,239.2834,953.1018Z"/><path d="M218.5959,956.6332l-.3027,2.9754-.5946-2.8047C217.9931,956.7461,218.2987,956.691,218.5959,956.6332Z"/><path d="M453.6915,1182.8659q-.7886-.8093-1.58-1.6239c.5973-.578,1.1533-1.1808,1.7561-1.7561Z"/><path d="M1432.8032,123.2416C1368.1563,118.5284,1311.5175,68.8272,1301.072,4.14c-32.4448-4.3518-72.6792-13.1526-86.4843,23.8894-16.4745,44.2088-45.8724,38.436-78.1851,37.1471-37.09-1.48-69.26-23.4687-103.9807-28.8883C891.4909,14.2942,750.1069.0226,609.3053,42.2793c-32.4016,9.7229-64.86,10.23-100.0819-9.0327C439.823-4.7148,310.0925,16.028,274.9676,67.9482c-18.1489,26.8284-39.07,38.1394-68.7669,44.2762C101.7616,133.803,68.632,232.5421,0,293.9858c38.0828,23.9055,63.3284,11.1115,85.7078-4.3276,31.6925-21.8618,61.2171-46.9186,91.2352-71.145,24.5095-19.78,61.9937-34.8121,77.87-10.8635,49.774,75.1032,121.221,72.6145,195.5314,71.083,53.0608-1.0947,105.6174-.364,159.0691,5.0987,98.6663,10.0869,198.6457,46.9213,298.2853-.577,12.4624-5.94,33.9763-1.8874,47.5226,4.9828,62.4655,31.6736,114.402,2.2245,163.78-28.5917,34.7879-21.7108,58.111-24.31,81.8413,13.32,21.5705,34.2,52.9583,50.475,96.3043,44.2735a57.8227,57.8227,0,0,1,6.3039-16.41,59.448,59.448,0,0,1,1.936-9.243c2.2191-15.0966,12.8992-25.92,28.1441-38.83,32.21-27.2867,65.4046-34.54,104.0077-37.6028,29.317-2.3269,59.9634-6.0452,58.3645-49.1242C1494.2387,121.2328,1461.1954,125.3123,1432.8032,123.2416ZM1284.08,15.0249V63.7474c-21.5274-.2-50.5559,9.3993-53.6836-18.68C1227.08,15.3108,1258.7938,21.3262,1284.08,15.0249ZM714.591,279.1857c-91.6154-19.0171-183.22-27.2409-277.1489-15.5281-59.025,7.3582-116.2759-4.7428-157.907-49.85,2.1894-27.47,38.1745-24.256,34.6369-44.0146C196.316,150.6254,128.1774,248.5016,34.076,288.0673c74.8848-78.1311,123.7178-198.2951,274.3825-162.0189-45.3763-20.8344-28.3949-40.8141-9.5665-59.0223,52.872-51.1329,124.2327-44.2519,176.1368-21.6272,66.8524,29.1364,123.7986,17.61,185.7545,3.6131,66.2323-14.9618,132.47-27.3973,203.75-8.2561-12.87,39.7841-32.3558,75.8473-23.4148,118.0312,8.0944,38.1933,26.4724,71.5413,46.7892,107.405C829.6212,297.7768,772.276,291.1573,714.591,279.1857ZM862.1631,107.11c14.5681-54.3955,40.9165-72.1049,103.8674-66.41-49.108,67.993-56.4366,141.1305-26.9928,220.7177C881.1667,234.4942,847.2875,162.6536,862.1631,107.11Zm79.8729,52.9044c3.6778-72.69,31.3042-106.41,91.0869-103.66C954.32,128.9766,969.46,204.9615,1025.53,282.6235,963.1536,278.0505,938.07,238.3635,942.036,160.0139Zm210.6524,6.8271c12.8344,59.904-39.6278,69.8076-71.1288,94.6272-16.8574,13.2847-36.94,4.3464-49.0973-10.6909-27.559-34.0787-44.9718-72.7223-27.8232-116.98,16.4664-42.4885,40.8006-73.8574,95.4064-55.9809,20.368,6.6653,43.3082,5.487,69.7618,8.4018C1163.657,117.7141,1147.1879,141.164,1152.6884,166.841Zm76.2383,106.2348c17.3346-9.7283,33.9412-6.87,50.9226-1.0084C1266.7317,304.5877,1266.7317,304.5877,1228.9267,273.0758Zm217.8542-79.7273c-31.0643,13.034-61.9155,11.1115-92.05-2.2676-24.7549,50.3644-87.3984,74.3482-143.0207,51.5535-48.4744-19.8637-41.93-64.9542-35.13-104.1775,6.6006-38.0666,30.0073-62.4332,73.7308-55.7922,40.0807,6.0883,82.61-1.3158,111.8593,42.3564,14.8082,22.1044,51.6317,9.7607,76.5484,17.1513C1450.0812,158.5175,1446.4088,175.07,1446.7809,193.3485Z"/><path d="M963.4957,1239.8053c26.83-91.1977,22.7525-181.1765-13.0267-269.0629-8.5815-21.0782-15.0607-45.2355-47.7021-67.21,19.1481,64.622,44.2664,114.157,54.6837,168.71,8.5037,44.5273.3764,85.55-5.849,128.123-3.1433,21.492-15.9649,26.9283-34.2426,29.8824-114.0419,18.431-221.987-3.7872-319.8967-60.6915-59.3268-34.48-80.2218-100.1785-97.2072-165.6051-13.2689,52.33,17.4186,94.3679,34.6455,143.0946L461.7,1150.277c12.6561-48.3232,20.9589-92.0009,13.21-136.1819-11.1561-3.6922-16.6513,1.633-16.4384,9.6359,3.5559,133.5625-66.9948,231.1866-166.5763,303.2855-88.3855,63.9929-96.2035,201.6342-42.4718,281.3173-55.6615,16.6462-62.9142,12.3549-65.6994-39.79-2.6915-50.3907-4.9637-100.8037-7.5744-151.199-.6857-13.2388-3.3215-28.5044,6.7721-37.747,76.9294-70.4393,39.6326-153.1833,22.502-231.1689-15.4083-70.1439-.814-129.237,42.477-183.5827,6.9585-8.7358,14.6606-17.9608,24.0564-23.5062,90.9969-53.7041,180.7673-100.5367,295.33-89.8671,120.7971,11.25,243.32,16.51,364.3025,2.732,23.9127,26.6258,20.2787,66.0924,50.5076,91.19,11.2369-26.1763-7.1729-43.7277-12.2381-63.338-4.29-16.6085-12.5849-34.6848,8.9916-43.4351,19.3759-7.8574,24.9414,9.511,31.5053,23.2429,5.5042,11.5168,9.4361,25.1575,28.9386,27.3419,3.0759-30.4812-35.1929-57.5431-9.615-88.5636,18.7566-22.748,38.4064-44.76,56.5148-65.7736,58.5331,46.4547,88.5115,118.7789,160.12,160.4843-47.8184,41.0387-59.3884,99.8167-75.0065,157.0823-26.8007-10.26-18.4284-40.7305-39.934-48.0792-2.952,2.015-8.1542,5.2045-7.9918,5.506,38.383,71.2887,9.2593,130.8067-19.3374,199.3313-42.4215,101.6526-33.4967,213.0853-15.35,321.5773,4.1513,24.8191,31.883,28.9626,43.0477,48.3872-107.0933,27.6154-122.1444,17.7533-122.377-85.92-.1094-48.6658,6.6238-97.3108,7.8989-146.0269,1.19-45.4715-11.8452-85.3591-55.2948-109.072C961.93,1238.0778,963.4957,1239.8053,963.4957,1239.8053Zm-404.98-208.3106c-7.3741,41.2381,6.6823,73.2769,40.9745,96.63C590.5849,1093.8741,570.7466,1064.3172,558.5153,1031.4947Z" fill="#fcfafb"/><path d="M1351.2261,704.2839c47.6739,8.5269,100.6257,6.6369,123.8351,63.3649-33.9681,56.69-76.9739,71.5264-178.54,59.5868-18.1222-53.7034-15.84-111.2835-16.3159-167.3455-78.9783-8.0229-118.9688,18.7184-142.5133,91.8016-36.0138-42.3991-32.062-76.5125,12.0661-104.1618,54.9473-34.4279,133.3531-20.8323,175.7864,30.0948,8.2766,9.9338,17.9308,18.72,26.7993,27.8741-19.9533-9.4492-36.3875-12.1017-40.6483,17.5289C1332.9264,726.3083,1341.8526,714.8911,1351.2261,704.2839Z" fill="#fcfafb"/><path d="M1262.7291,673.5164c-11.5466,69.2435,17.3177,128.9441-.6647,189.6327-55.88-7.081-97.4095-58.8614-94.2235-122.66C1170.4316,688.5924,1215.6277,687.72,1262.7291,673.5164Z" fill="#fcfafb"/><path d="M374.2772,1283.285c-19.7881,54.5408-51.5951,104.6054-43.5741,168.123,4.9527,39.22,2.5907,77.5725,45.9326,99.3747-47.5064,24.5965-66.564,9.913-66.0469-37.1394.2057-18.7087,4.15-40.3753-3.5644-55.6745-42.8441-84.9658,6.1569-131.37,68.5465-173.4363C375.6607,1284.6216,374.2772,1283.285,374.2772,1283.285Z" fill="#fcfafb"/><path d="M58.9977,1371.019c53.0987-79.62,93.7074-163.2881,107.1181-259.7762C213.5788,1167.2558,164.7557,1285.9894,58.9977,1371.019Z" fill="#fcfafb"/><path d="M979.4717,1299.0467c37.2792,73.0864-5.8029,146.3537,0,219.4288Z" fill="#fcfafb"/><path d="M451.933,1180.7477c-.92,37.9089-18.4718,65.35-52.0524,82.7051l.9826,1.0491c8.587-34,28.0472-61.2212,53.0044-85.0148Z" fill="#fcfafb"/><path d="M239.4736,952.9358l1.3015-3.6808q-2.5942,1.2654-5.189,2.5306c1.232.4384,2.4644.8768,3.4061,1.2151C238.7018,952.9006,239.4736,952.9358,239.4736,952.9358Z" fill="#fff"/><path d="M217.552,956.7829c7.1529-1.3305,14.3055-2.6609,21.69-3.9192.2316.0721-.54.0369-.25.1369-6.5636.87-13.4175,1.64-20.2715,2.4105Z" fill="#878787"/><path d="M453.8676,1179.4871l-.1755,3.38a22.6158,22.6158,0,0,1-1.7887-1.9938A22.5934,22.5934,0,0,1,453.8676,1179.4871Z" fill="#fff"/><path d="M218.7207,955.4111l-.428,4.1982s-.5949-2.8061-.6678-2.8162A16.3473,16.3473,0,0,1,218.7207,955.4111Z" fill="#fff"/><path d="M388.3079,1274.2292c1.5417-6.6446,4.3826-11.6166,12.5484-9.7342.0069.0069-.9754-1.04-.9757-1.0422-.0362,8.8117-3.8982,12.5115-12.7525,9.5378Z" fill="#fcfafb"/><path d="M387.1281,1272.9906c1.999,11.0257-2.7621,13.8628-12.7618,10.3776-.0891-.0832,1.2944,1.2534,1.2046,1.1643,4.2081-3.4689,8.5064-6.8484,12.7707-10.2656C388.3079,1274.2292,387.1281,1272.9906,387.1281,1272.9906Z" fill="#fcfafb"/><path d="M305.2236,126.5933c-45.6276-20.9488-28.5527-41.0417-9.62-59.352,53.1682-51.4188,124.9248-44.4963,177.12-21.7473,67.2267,29.3,124.489,17.7094,186.7922,3.6343,66.6016-15.046,133.2074-27.55,204.885-8.3018-12.9393,40.0043-32.535,76.2708-23.5441,118.6906,8.1395,38.4048,26.62,71.9385,47.05,108.0016-58.6123,31.7626-116.2783,25.1067-174.2849,13.0669-92.1275-19.1222-184.24-27.3932-278.6963-15.6149-59.3528,7.4011-116.9226-4.7688-158.7877-50.1274,2.2019-27.6214,38.3865-24.3911,34.83-44.2585C192.4568,151.3086,123.9376,249.73,29.31,289.5178,104.613,210.95,153.7175,90.1146,305.2236,126.5933Z" fill="#fcfafb"/><path d="M1354.7316,191.0817c-24.7555,50.3633-87.3977,74.3477-143.02,51.5528-48.4737-19.8653-41.9311-64.9543-35.13-104.1791,6.6-38.0644,30.0066-62.4311,73.7308-55.7907,40.0794,6.0868,82.61-1.3159,111.86,42.3563,14.8055,22.105,51.6311,9.7616,76.5464,17.1522,11.3636,16.3434,7.6912,32.8971,8.064,51.1758C1415.7175,206.3824,1384.865,204.4609,1354.7316,191.0817Z" fill="#fcfafb"/><path d="M1169.8082,86.22c-6.1523,31.4941-22.6208,54.9442-17.1189,80.6214,12.8351,59.9036-39.6278,69.8082-71.1282,94.6286-16.8593,13.2838-36.94,4.3445-49.0992-10.6915-27.5577-34.0788-44.9725-72.7244-27.8226-116.979,16.4657-42.49,40.8007-73.8586,95.4051-55.9839C1120.4144,84.4836,1143.3546,83.3042,1169.8082,86.22Z" fill="#fcfafb"/><path d="M966.03,40.6988c-49.1073,67.9939-56.4346,141.1318-26.9915,220.7189-57.8717-26.9232-91.7515-98.763-76.8753-154.3068C876.7322,52.7137,903.0785,35.0037,966.03,40.6988Z" fill="#fcfafb"/><path d="M1025.529,282.6237c-62.3752-4.5724-87.4584-44.26-83.4927-122.6089,3.6791-72.69,31.3028-106.4125,91.0855-103.66C954.322,128.9765,969.4612,204.9615,1025.529,282.6237Z" fill="#fcfafb"/><path d="M1284.08,15.0237V63.7475c-21.5274-.2-50.5553,9.4-53.6837-18.68C1227.08,15.3094,1258.7933,21.3262,1284.08,15.0237Z" fill="#fcfafb"/><path d="M1228.9269,273.0759c17.336-9.7289,33.9412-6.87,50.9233-1.0085C1266.7313,304.5869,1266.7313,304.5869,1228.9269,273.0759Z" fill="#fcfafb"/><path d="M558.5153,1031.4947c12.2313,32.8225,32.07,62.3794,40.9745,96.63C565.1976,1104.7716,551.1412,1072.7328,558.5153,1031.4947Z"/><path d="M1351.2261,704.2839c-9.3735,10.6072-18.3,22.0244-39.53,18.7438,4.2608-29.6306,20.695-26.9781,40.6483-17.529C1352.495,705.66,1351.2261,704.2839,1351.2261,704.2839Z"/><path d="M870.0945,35.6981C800.1487,9.0811,728.36,22.3693,660.8,38.0427c-61.4712,14.261-115.651,25.6891-177.8857-.8536C390.9545-2.0317,321.091,21.1159,268.7208,96.8075c-5.0169,7.251-7.1105,16.176-17.0943,16.0441C127.2407,111.2086,89.8789,226.1793,9.3251,287.7492c45.4987,34.3641,70.1511-8.3633,97.824-21.96,28.0178-13.7663,45.7942-47.762,73.5124-62.9231,28.4094-15.5389,59.5589-31.0226,89.38,13.8294,33.8277,50.8774,94.9619,61.3072,152.67,55.4905,108.5877-10.9449,214.7622-.262,320.3489,23.1712,56.3692,12.51,109.0181,1.3284,160.1665-22.21" fill="none" stroke="#000" stroke-linecap="round" stroke-linejoin="round" stroke-width="2"/><path d="M1134.8553,1591.3493c-55.7261,5.4948-112.4114,28.9894-137.0427-39.9317" fill="none" stroke="#000" stroke-linecap="round" stroke-linejoin="round" stroke-width="2"/><path d="M1166.9236,796.0553c21.0413,44.78,48.5087,82.9448,100.9436,90.3475-47.3929,44.9279-69.1847,104.19-88.3753,164.9824-11.2983,67.3265-56.3945,112.4227-78.9427,180.0671-22.5481,90.1925-11.274,191.6591-11.274,281.8516,11.274,22.5481,33.8222,45.0963,46.1791,64.1" fill="none" stroke="#000" stroke-linecap="round" stroke-linejoin="round" stroke-width="2"/><path d="M913.2572,908.796c16.5243,56.4862,43.0635,108.6192,54.6631,168.3477,9.7285,50.0931-7.8521,90.9506-9.84,136.04-1.0693,24.2273-24.1755,25.327-39.2933,27.4249-118.31,16.4184-230.305-3.883-332.2254-67.2778-63.5112-39.5037-76.8476-107.5939-90.4447-174.3423" fill="none" stroke="#000" stroke-linecap="round" stroke-linejoin="round" stroke-width="2"/><path d="M552.4871,1156.8254c-48.1377-4.3587-77.5463,12.8448-97.9771,61.0982-15.4678,36.5321-50.231,64.9913-76.82,96.6976-53.7472,64.0915-48.1528,183.9,14.4886,239.6115-20.9575,18.9691-48.73,25.9184-70.125,17.9051-25.8552-9.6837-24.75-40.4013-23.152-65.8113,2.7212-43.2717-5.7956-84.3757-22.629-124.02" fill="none" stroke="#000" stroke-linecap="round" stroke-linejoin="round" stroke-width="2"/><path d="M1031.6348,880.6108c-10.5446-19.1927-21.0893-38.3853-31.4475-57.2389-147.39,46.7422-295.1511,20.615-442.0666,17.9677-65.2573-1.1759-130.6485-.9772-191.6556,27.9972" fill="none" stroke="#000" stroke-linecap="round" stroke-linejoin="round" stroke-width="2"/><path d="M975.2645,1269.566c25.2972,15.5364,33.6867,39.917,33.67,67.6442-.0433,70.282-18.4373,138.6625-14.8192,209.3894-32.1528-30.8891-41.6577-186.1373-24.4879-277.0336" fill="none" stroke="#000" stroke-linecap="round" stroke-linejoin="round" stroke-width="2"/><path d="M270.6355,1371.0326c-60.1322,52.5544-62.5919,155.8644-5.23,237.3335-16.84,39.7025-50.9174,17.3054-73.3561,14.0458-24.3176-3.5326-16.974-33.8677-17.1192-54.084-.3668-51.01-.1824-101.8526-10.831-152.3188-4.545-21.5388,4.5657-40.6066,21.7441-56.5064,41.8246-38.7128,41.57-85.5532,22.7849-135.0329" fill="none" stroke="#000" stroke-linecap="round" stroke-linejoin="round" stroke-width="2"/><path d="M1454.4123,711.5c-57.0736-4.74-109.413-16.93-147.2083-67.1589-28.7921-38.2646-137.8713-29.3777-173.8666-.1942-48.9173,39.66-45.068,76.616,11.0381,129.36" fill="none" stroke="#000" stroke-linecap="round" stroke-linejoin="round" stroke-width="2"/><path d="M1262.7532,880.6108c30.4655-31.7809,23.3291-74.6061,13.9006-106.2053-10.33-34.6151-5.8435-64.4849-2.1318-101.4108-41.0591-18.1406-72.36,4.0271-101.6751,27.5874-29.06,23.3559-17.2435,54.7552-11.56,84.1992" fill="none" stroke="#000" stroke-linecap="round" stroke-linejoin="round" stroke-width="2"/><path d="M986.0577,41.22c-34.9733-32.8538-78.8356-19.572-102.8968,2.2318C844.2173,78.7427,834,136.1832,855.8142,183.7452c17.9278,39.0883,26.893,101.6717,97.1111,89.4012" fill="none" stroke="#000" stroke-linecap="round" stroke-linejoin="round" stroke-width="2"/><path d="M163.5319,1089.181c-20.5185,108.23-60.8575,208.232-131.8709,295.4572,35.62,20.208,45.2779-6.57,58.168-19.6577,44.5891-45.2745,70.1309-104.6839,111.446-153.245,17.8607-20.9933-1.6945-56.6891-10.7563-82.6774-18.491-53.0308-5.5565-102.2738,6.8354-152.6177" fill="none" stroke="#000" stroke-linecap="round" stroke-linejoin="round" stroke-width="2"/><path d="M1190.3737,79.8745c-32.4569,45.9808-33.9055,96.5555-22.4839,147.01-49.6129,13.2611-87.3937,51.0954-137.4373,63.6953-37.5435,9.4527-59.9142-.4443-77.9653-33.7626C922.6309,201.7111,924.7751,146.2111,947.87,91.114c22.7023-54.1614,54.6968-59.44,110.4647-34.4194C1106.6072,78.353,1159.817,80.6269,1212.4619,68.83" fill="none" stroke="#000" stroke-linecap="round" stroke-linejoin="round" stroke-width="2"/><path d="M1465.6863,717.1369c34.9211,47.2612,24.0028,79.77-33.6969,107.3657-45.5071,21.7638-93.5409,15.47-141.0511,16.649" fill="none" stroke="#000" stroke-linecap="round" stroke-linejoin="round" stroke-width="2"/><path d="M1223.506,63.3083c27.9015,16.0748,58.5154,10.4553,87.5446,11.0793-5.4742-19.5545-10.9982-39.2861-18.4515-65.9079-30.7893,2.7057-79.52-15.9306-74.6152,54.8286" fill="none" stroke="#000" stroke-linecap="round" stroke-linejoin="round" stroke-width="2"/><path d="M1046.8,63.3083c-71.0775,61.1957-88.9231,115.4506-5.522,215.36" fill="none" stroke="#000" stroke-linecap="round" stroke-linejoin="round" stroke-width="2"/><path d="M1289.7706,262.1023c-28.3773-9.6621-56.082-9.2392-85.0923,3.153,34.6995,36.3448,34.6995,36.3448,79.57,46.5455,19.5928-10.7476-4.4186-32.3964,11.0441-44.1765" fill="none" stroke="#000" stroke-linecap="round" stroke-linejoin="round" stroke-width="2"/><path d="M467.9316,1010.2626c10.87,140.3572-62.5207,237.7976-163.3686,321.4379-10.1824,8.4452-18.8953,18.6631-28.2905,28.0582" fill="none" stroke="#000" stroke-linecap="round" stroke-linejoin="round" stroke-width="2"/><path d="M1455.4323,135.095c-52.9159,2.5675-95.093-20.6379-132.5293-55.22" fill="none" stroke="#000" stroke-linecap="round" stroke-linejoin="round" stroke-width="2"/><path d="M1093.6422,711.5l-84.5555,107.1036" fill="none" stroke="#000" stroke-linecap="round" stroke-linejoin="round" stroke-width="2"/><path d="M198.331,971.0236c24.6858,9.3484,15.9841,28.1083-.9769,39.239" fill="none" stroke="#000" stroke-linecap="round" stroke-linejoin="round" stroke-width="2"/><path d="M355.191,880.6108c-54.23,18.8044-109.5695,39.6819-153.2081,78.21" fill="none" stroke="#000" stroke-linecap="round" stroke-linejoin="round" stroke-width="2"/><path d="M952.7164,846.7886c-2.1593,35.3416,19.6092,63.6454,28.1852,95.83" fill="none" stroke="#000" stroke-linecap="round" stroke-linejoin="round" stroke-width="2"/><path d="M558.1241,1032.8107c.06,35.7923,17.77,63.8632,39.4593,90.1925" fill="none" stroke="#000" stroke-linecap="round" stroke-linejoin="round" stroke-width="2"/><path d="M1367.0794,206.8817c30.2149,10.3828,59.7072,9.1981,88.3529-5.522" fill="none" stroke="#000" stroke-linecap="round" stroke-linejoin="round" stroke-width="2"/><path d="M1356.0353,184.7935c11.3616,50.6053-24.9618,63.7442-60.7426,77.3088" fill="none" stroke="#000" stroke-linecap="round" stroke-linejoin="round" stroke-width="2"/><path d="M1127.4644,998.9886q14.0922,33.8222,28.1851,67.6444" fill="none" stroke="#000" stroke-linecap="round" stroke-linejoin="round" stroke-width="2"/><path d="M253.7244,931.3441c-.94,23.8-26.0778,31.4691-33.8222,50.7333" fill="none" stroke="#000" stroke-linecap="round" stroke-linejoin="round" stroke-width="2"/><path d="M317.8891,162.7053q-22.0884,13.8051-44.1764,27.61" fill="none" stroke="#000" stroke-linecap="round" stroke-linejoin="round" stroke-width="2"/></svg>