<svg width="263" height="223" xmlns="http://www.w3.org/2000/svg" viewBox="0 0 1390.28 1234.02"><g id="Layer_2" data-name="Layer 2"><g id="Layer_2-2" data-name="Layer 2"><path d="M1244.25,254.69c11.37,13.69,92.27,17.83,109.5,18.88,16.08,1,25.1,55.78,4.85,68.25a10.8,10.8,0,0,0-4.83,8.3c-.65,7-3.89,17.48-17.25,18.87-20.28,2.09-121.67-5.25-135.86,5.24S1135.77,564,1119.54,578.7s-3,229.63-22.3,240.12-47.65,24.12-50.7,36.7-33.45,298.84-24.33,321.91,18.25,29.35,40.56,21,34.47-21,42.58-5.25,16.22,25.17,0,29.36-65.25-4.19-84.84,0-41.9,5.25-42.91-7.34c-.86-10.64-44.48-210.93-58.55-286.5-1.75-9.38-13-11.72-17.73-3.69-22,37.12-66.47,107.3-98.11,125.57-43.6,25.17-8.11,92.27,0,114.29s13.18,29.36,30.42,24.12,28.39-5.24,31.43,11.53,4.05,26.68-14.2,24.88-63.87,5.53-99.36-7S642,1120.8,627.81,1061s63.87-232.78,109.5-283.12,71-81.78,112.54-142.6,94.29-198.18,101.39-217.05,39.16-86,47-111.15,30.1-89.13,36.19-94.37,106.46-24.11,129.78-29.36,37.51-8.39,46.63,0S1234.24,242.64,1244.25,254.69Z" fill="#b2b0a1"/><path d="M1389.49,276.45c4.33,8.67-10,50.07-19.21,39.58s-26.2-37.55-28-43.15S1381.38,260.2,1389.49,276.45Z" fill="#231f20"/><path d="M416.07,1101.17a9.61,9.61,0,0,0-7-4.82c-52.22-7.1-260.29-77.8-261.28-65.59-1,12.58,54.75,74.45,49.68,100.66s14.2,64,60.84,64,168.3,25.17,184.53,0C456.72,1173.91,425.52,1117.3,416.07,1101.17Z" fill="#464b4f"/><path d="M1207.75,191.15c9.71,3.14,16.84-10.77,9.24-18.1a7.37,7.37,0,0,0-2.65-1.72c-10.9-3.67-125.21-63.43-159.25-39.87-15.87,11-195.44,218.2-220.07,294.28a10.67,10.67,0,0,1-2.49,4.13c-28.8,29.47-399.22,410.9-420,556-21.62,151,106.8,243.72,119,240s176.41,24.94,220-7.56,123.36-108,134.17-158.33c9.17-42.66-43-118.47-59.16-140.58a11.56,11.56,0,0,1-.36-12.87l48.75-75.86c4.55-7.07,14.46-5.62,17.16,2.51l14.43,43.58c3,8.94,14.31,9.52,18,.91,19.4-45.24,66.06-142.48,124.57-184.85a11.25,11.25,0,0,0,3.52-13.17c-12.36-31-53.07-137.66-35.78-157.93,20.28-23.77,92.67,75.13,102.74,57s-71-277.49-43.09-312.28,42.08,15,69.46-6,44.61-69.73,59.31-69.73A8.23,8.23,0,0,1,1207.75,191.15Z" fill="#464b4f"/><path d="M1005.82,107.6a11.22,11.22,0,0,1-2.5-15.3C1019.2,68.69,1067.05-1.15,1076.6,0c9.33,1.14,17.33,82.53,25.8,117.17,1.77,7.24-3.61,14.17-10.4,13.41C1068.33,127.92,1025.27,121.37,1005.82,107.6Z" fill="#464b4f"/><path d="M1054.71,119.35c3.85,3.31,24,8.28,44.6,12.82,7,1.53,13-5.32,11.44-12.91-5.34-25.25-10.53-66.22-16-90.5-2.23-9.81-14.5-11.11-18.33-1.92C1063.77,57,1048.5,114,1054.71,119.35Z" fill="#f8c1d9"/><path d="M180.85,1073.66c-.11-.14-.21-.27-.31-.42-2.23-3.2-30.95-43.88-47.51-44.89-17.24-1-114.57,97.52-130.79,155.19s57.79-8.39,156.14,5.24S265.84,1182.52,180.85,1073.66Z" fill="#e0dfd9"/><path d="M1214.31,249.72c9.28-1.28,11.91-14.59,3.88-19.85a19.05,19.05,0,0,0-10.9-3.26c-15.72.26-31.43,3.34-31.43,12.84C1175.86,245,1193.22,252.63,1214.31,249.72Z" fill="#231f20"/><path d="M1114.42,163.7c9.7,3.14,16.84-10.77,9.24-18.1a7.46,7.46,0,0,0-2.65-1.72c-10.9-3.67-125.22-63.43-159.25-39.87-15.88,11-195.44,218.2-220.08,294.28a10.55,10.55,0,0,1-2.49,4.13c-28.8,29.47-399.21,410.9-420,556-21.63,151,106.8,243.72,119,240s176.42,24.94,220-7.56,123.35-108,134.17-158.33c9.16-42.66-43-118.47-59.16-140.58a11.56,11.56,0,0,1-.37-12.87l48.76-75.86c4.54-7.07,14.46-5.62,17.15,2.51l14.44,43.58c3,8.94,14.3,9.52,18,.91,19.4-45.24,66.06-142.48,124.56-184.85a11.26,11.26,0,0,0,3.53-13.17c-12.36-31-53.08-137.66-35.78-157.93,20.27-23.77,92.67,75.13,102.74,57s-71-277.49-43.09-312.28,42.07,15,69.45-6,44.61-69.73,59.31-69.73A8.29,8.29,0,0,1,1114.42,163.7Z" fill="#464b4f"/></g></g></svg>