<svg width="263" height="223" xmlns="http://www.w3.org/2000/svg" viewBox="0 0 1185.56 1284.51"><g id="Layer_2" data-name="Layer 2"><g id="Layer_2-2" data-name="Layer 2"><path d="M1040.29,796.72s19.71,400.21,23.06,420.14,20.08,28.14,43.52,22.28,35.7,9.38,33.47,22.28-19,17.79-91.5,8.89-49.09,0-49.09,0L930.57,865.12Z" fill="#d0cecb"/><path d="M808.31,1039.82s72.79,51.59,62.38,77.38-81.08,110.22-51.33,111,37.2-28.14,56.54,0S899,1274.13,861,1270.31s-116.79.1-145-12.41S808.31,1039.82,808.31,1039.82Z" fill="#d0cecb"/><path d="M961.44,113.56c3.72-20.32-1.49-22.67,12.65-22.67s55,12.51,65.46,0,52.07-68.78,66.94-72.69,32.41,7.74,40.17,16.41c3.52,3.94,10.6,8.23,11.26,4.6.56-3.06,6.69-4.09,4.36,5.56-11.43,16-60.25,115.69-66.2,125.85s67.69-61.75,71.41-72.69,15.35-12.54,10.42-3.34c-2.42,4.5,3.71,25.22,7.43,28.35s-40.91,124.28-104.14,166.49c0,0,17.86,258.73.75,298.59,0,0,57.27,92.24,26,167.28S961.44,914.75,961.44,914.75,989,1214.91,1003.84,1229s23.8,21.88,47.61,18.76,26.25,10.94,22,25-106.85,17.2-112.06,0-90-256.38-94.47-259.51S752.42,1208.66,739,1219.6s16.36,10.94,35.7,20.32,29.76,28.14,20.83,34.39-366,17.2-364.49-4.69S490.58,991.36,501,978.85,788.12,636.49,817.88,575.52,847.63,366,871.43,287.87,961.44,113.56,961.44,113.56Z" fill="#fff"/><path d="M881.48,190.36S699.6,229.05,683.42,230.22s61.37,55.69,94.85,58,59.13,5.28,84.8-15.24" fill="#464b4f"/><path d="M974.09,90.89c10.32,1.43-26.2,15.83-6.11,73.86,3,8.72-45.78,57.26-45.78,75.44S1074,517,1082,588c1.48,13.29-142.82,135.23-145.06,153.21s35.71,186,24.55,173.52S833.5,830.34,811.93,847.53s-81.83,322-135.39,345.49-224.64,84.42-245.47,76.6-64-184.47-38.68-262.63,309.66-498.7,415.92-569c0,0,8.08-204.8,45.27-248.57S943.16,86.62,974.09,90.89Z" fill="#464b4f"/><path d="M1123.88.12c-6.69-1.76-31.25,15.84-27.06,24.19,4.76,9.49,35.18,8.64,38.51,3.37s-4.75-25.8-11.45-27.56" fill="#231f20"/><path d="M985.24,149c-3,5.1,23.44-25.8,30.41-27.56S1007.84,110.92,985.24,149Z" fill="#231f20"/><path d="M161.79,1118.37s-12.27-22.27-25.66-21.1S21.2,1197.53,0,1251.75c0,0,16.74-7.92,92.61-5.57s127.2,22.27,148.4-7S161.79,1118.37,161.79,1118.37Z" fill="#fff"/><path d="M425.12,1189.9s-276.72-105.53-289-92.63,60.25,145.39,90.38,148.91,192.65,10.55,204.55,0S425.12,1189.9,425.12,1189.9Z" fill="#464b4f"/></g></g></svg>