<svg width="263" height="223" xmlns="http://www.w3.org/2000/svg" viewBox="0 0 1496.6679 1679.7384"><path d="M923.0593,1310.9638c-138.4586,39.6163-277.0957,27.5739-415.6375,3.34-12.2871-2.1492-21.341-.3891-29.9866,7.9742-49.3223,47.7138-99.7615,94.4251-100.5046,171.07-.1974,20.4188-5.0945,40.8447,15.2925,55.0931,21.4763,15.01,34.541,33.8664,23.9239,61.0295-6.9485,17.7792-22.8279,14.6165-37.716,14.1824-30.3849-.8858-59.7015-2.8244-73.2752-36.91-12.9031-32.4009-6.745-65.3222-3.6734-98.327,1.4922-16.0446,9.84-32.1377,1.2265-48.6485-36.7451,39.9612-46.3825,116.272-17.542,155.332,13.4413,18.2047,33.1421,36.1092,16.9314,57.9624-21.6176,29.1418-54.8191,9.1643-82.7287,10.0588-24.6993.7918-35.9452-17.47-36.9513-40.0053-3.0635-68.6161,1.0372-136.2727,31.6472-199.7215,36.1805-74.9954,27.3416-121.1373-37.7857-180.8394-15.3493,50.7359-27.0651,101.3572-62.0739,140.5112-13.469,15.0636-26.625,30.6213-41.6578,44.0066-13.0606,11.6291-31.1955,18.5386-44.8984,4.174-15.5231-16.2727-1.5835-30.0131,11.0282-41.7014,45.8139-42.4588,57.0192-96.3359,53.4885-156.1158-6.5658-111.1807,35.0271-204.345,120.6705-272.1848,62.44-49.46,131.0856-92.1718,217.6005-92.2668,123.5887-.1356,247.3972-5.0028,370.0785,12.7477,62.7926,9.0853,109.9615-26.9085,159.1168-50.9869,60.6689-29.7186,107.1806-82.2309,158.6211-126.5259,70.8426-61.0007,171.1876-55.7448,234.9207,9.6958,16.2066,16.6408,36.9763,15.3721,56.2809,18.6664,38.3922,6.5514,69.8669,23.2223,69.969,64.9984.1068,43.4959-26.0556,73.053-70.6573,78.3945-26.2219,3.14-45.14,10.0707-54.81,36.86-5.386,14.9234-20.1139,20.1372-35.93,21.7449-8.9742.9122-25.2139,4.0246-25.39,6.9223-3.528,58.119-56.2086,79.6816-85.7753,118.1675-53.7069,69.9067-33.4206,162.1618-73.2786,238.6124-38.505,73.8565-17.8834,159.1236-15.8827,239.736.6159,24.8018,21.3978,36.61,36.714,52.4862,27.1942,28.1885,20.1206,51.4-18.7935,53.8165-42.1851,2.62-69.49,44.9542-118.1783,33.4461-39.7552-9.3965-60.4215-21.5111-66.7331-65.0032-9.9045-68.2668,4.7761-136.1385-4.148-204.1736C942.2239,1375.5142,938.4505,1343.2788,923.0593,1310.9638Zm-517,37.5643q7.6285-1.774,15.2566-3.5478,4.8985-5.685,9.7956-11.37c16.6434-6.708,28.9312-16.589,31.0914-43.0163-22.6852,12.14-32.0751,24.2744-29.8351,44.226-7.0608.2118-10.2879,3.8788-10.0222,10.7679-5.699.878-11.3987,1.7559-16.9226,2.7626-.052,10.4923-5.56,15.47-15.8165,15.6494-67.4632,32.2732-69.0224,94.3167-73.5341,156.9293-4.8471,67.2652,8.5211,83.8844,77.8343,83.939,8.135-12.4643,8.2581-27.7985-3.5409-34.3532-40.1392-22.3-29.34-56.4347-29.4443-91.8414-.1224-41.655,32.71-72.6219,29.3145-113.4674C392.35,1356.6481,396.793,1350.3,406.0593,1348.5281Zm-341.2136,51.65c62.2484-41.1713,81.461-104.0209,90.1241-173.5964,8.9357-71.7581,13.2777-146.11,75.1238-202.08,11.8936,28.5359-12.4765,39.1129-19.6379,56.1358-23.3106,55.4089-48.9349,111.4259.9168,164.7909,53.5507,57.3245,50.162,119.0688,19.9246,183.9307-31.3321,67.21-36.5863,137.0635-29.5877,209.7019,30.3747,6.9473,56.2836,13.1977,84.2215,2.8426-1.6456-8.4116-1.2447-14.3787-3.8376-18.43-55.1207-86.1467-36.188-182.4712,48.1458-238.3314,40.265-26.67,76.8046-54.7086,99.6642-100.262,21.7765-43.3958,36.1893-88.6817,46.394-136.1745,22.2241,44.5162-4.9478,82.4726-12.2371,131.0206,145.0947,42.0305,288.4437,55.9895,434.8433,16.6193,21.2789-5.7223,19.6231-23.7783,21.6109-40.0673,4.672-38.2855,14.6055-74.33,42.3041-103.1848-8.7057,54.4311-35.0642,104.9494-15.093,161.4812,21.3093,60.32,16.7468,123.6269,17.9956,186.1394.6241,31.2615-2.0621,62.8975,1.8343,93.7211,8.11,64.1628,37.5355,78.6216,113.2022,49.6046-84.93-54.042-67.7851-136.0006-60-210.8261,6.7132-64.52,27.5553-128.3334,75.8681-177.6552-38.8607,95.015-46.7807,194.5872-45.67,295.9569.6477,59.0574,46.3819,91.2316,105.9366,62.3657-39.9594-20.7834-59.8637-52.6327-59.5284-93.6861.6248-76.46-14.6163-154.0673,17.2823-228.5475,6.5882-15.383,15.04-38.9868-19.4634-34.6313-39.5571-30.3329-71.708-66.5589-92.6562-112.05,28.9846,20.0994,51.6447,45.6376,75.1873,70.3338,13.1491,13.7928,28.0447,25.5989,48.0856,11.0794,25.4884-18.4647,29.1259-45.6386,27.7-73.9835-1.2576-24.9968,1.0656-48.8774-31.8459-62.1677-63.4512-25.622-89.7976-89.67-133.11-136.7778,29.5627,6.2354,45.9336,27.485,62.9975,47.7784,21.2485,25.27,40.2589,53.4224,71.3253,67.5934,19.0727,8.7006,43.2616,25.0748,59.61,1.47,15.3946-22.2288,15.5211-48.0206-11.3858-67.9585-16.4987-12.2258-32.78-27.5272-25.1612-59.2315,17.5,18.5272,29.4214,34.8223,44.7639,46.6975,45.1527,34.9484,63.3633,28.108,69.418-27.8391,2.6727-24.6941,12.6394-34.78,35.2752-41.34,52.8638-15.32,83.2879-72.0847,142.8338-78.1451,11.5819-1.1789,20.1369-20.2651,20.39-32.2393-38.59-53.3407-79.6-94.4033-149.6747-40.0886,34.9128-57.9074,20.8285-85.254-39.098-89.9206-43.5591-3.3921-84.5495,6.3018-122.6023,26.765-31.9433,17.1781-54.5554,41.2372-42.4921,84.6185-22.5256-4.8568-39.13-31.8425-58.0334-8.7828-15.6955,19.1462-2.4516,36.9977,7.4407,55.2369,11.7408,21.6462,20.0956,45.1292,33.3158,75.6638-24.34-11.8093-34.7161-23.9254-40.5631-39.2983-9.6118-25.2686-20.6738-51.848-53.4453-42.7126-29.73,8.2873-28.5823,36.9446-27.9792,71.9741-22.5486-47.2379-54.2729-37.84-80.7538-19.6507-32.1874,22.1094-11.327,53.8352-3.7261,80.4346,6.6375,23.2286,25.5465,39.8443,41.7376,57.6787,13.3216,14.6722,33.3172,28.1287,22.4857,61.6455C908.33,1031.1207,856.788,997,849.9207,932.1644c-2.6694-25.2038-25.3647-28.1291-45.864-31.7189-94.8813-16.6154-191.081-10.441-286.585-16.287-58.7677-3.5972-117.4008,2.0752-174.7548,19.3452-54.53,16.42-82.4772,67.7255-134.0645,93.6215-65.7209,32.9917-98.3876,114.157-97.1131,194.0964,1.19,74.6129-3.597,145.8511-45.5983,210.13-11.924-1.75-19.8718.5529-15.3411,21.0933C57.0487,1412.3658,60.9472,1406.2719,64.8457,1400.1777Z"/><path d="M1312.6493,312.07c11.81,21.52,39.906,10.5845,36.117,43.7209-38.2494,27.236-81.1479,13.6445-113.626-14.2287-27.2172-23.3578-44.3941-13.2967-71.923-7.1242-65.8183,14.7579-127.99,48.26-199.759,36.5558-82.8335-13.5087-165.4074,4.5087-247.5628,12.8268-108.7695,11.0131-216.8757,12.3964-324.9028-3.688-49.2553-7.3338-88.7475-32.87-120.2838-71.7746-40.4293-49.8765-64.9244-51.97-110.4179-3.9816-34.2995,36.182-77.7423,46.564-122.7766,55.2863-15.29,2.9614-30.1246-2.7914-36.03-18.7908-4.1723-11.3047.74-22.6893,11.1425-28.6995,57.982-33.5,91.4331-98.6866,152.93-124.9234,53.811-22.957,90.2661-57.5471,125.8435-103.4129,39.7552-51.25,100.9874-77.5734,169.51-80.42C569.5676-1.0993,677.6934-6.7073,783.9484,27.01c47.5968,15.1037,98.8034,12.9542,148.263,11.2382,63.6547-2.2086,122.1972,21.1918,183.6112,29.5095,47.5921,6.4458,94.8306,31.95,135.4513-21.4934,16.0085-21.0609,49.9064-14.4547,73.0811-4.2926,24.1463,10.5881,9.7983,27.53,1.3448,45.1794-7.3954,15.44,9.985,25.1768,23.63,31.186,36.1894,15.9378,65.7169,47.1725,110.4909,43.9542,16.7522-1.204,32.35,10.7946,35.9446,29.0431,3.4259,17.3946-2.87,39.9812-19.4892,41.0358C1408.7815,236.6526,1385.2674,318.1605,1312.6493,312.07ZM906.03,344.6689c-83.3927-94.59-77.2-188.93-11.5177-287.8115-40.31-3.8022-78.5091-.94-112.2941-11.806C681.3748,12.6158,578.6837,12.9887,475.478,19.9c-91.9943,6.1605-165.8232,43.6724-206.3363,129.205,8.1736,17.5264,31.9446.698,35.5706,30.0363C167.583,155.0512,109.4529,268.2,25.4558,340.07c107.61-15.4012,184.4685-117.3971,302.2338-98.18.2522,25.0423-32.6924,23.7057-53.5048,37.3521,36.3909,58.9082,89.471,81.9157,153.1108,88.4126C584.6342,383.7171,740.2778,365.4332,906.03,344.6689ZM1390.0543,187.65c-23.9982-50.0556-77.526-67.7956-138.57-45.153-38.3428,14.2224-54.86,42.9421-44.0722,82.78,14.3412,52.96,61.3755,77.9344,121.7956,64.79,42.2311-9.1875,78.7112-25.277,56.1545-82.8579,23.5844,1.2936,39.6943,34.8272,60.3072,8.9641,5.1209-6.4251,4.4827-25.204-1.0892-30.9356C1427.5715,167.7393,1407.8248,176.4035,1390.0543,187.65Zm-377.35,168.1469c-82.8356-97.3353-89.949-194.13.3935-289.9337C916.5024,52.1589,875.9359,89.0909,866.3843,195.5407,858.6867,281.3174,921.3624,352.1813,1012.7042,355.7969ZM1085.5521,78.484C1026.641,79.5832,995.59,105.0758,981.14,147.6193c-22.2126,65.3929-12.9477,126.0454,37.0872,177.9239,21.577,22.3723,42.0919,21.7133,66.725,5.1666C1022.11,249.3441,1021.0177,168.3161,1085.5521,78.484Zm64.5985,246.0553c-47.2594-109.6922-47.7746-135.33-6.5482-226.8158-51.5129-1.0036-83.824,36.2-87.6732,100.9471C1052.0131,264.5507,1092.5411,321.3612,1150.1506,324.5393Zm55.3959-226.6475c-74.33,28.6339-99.005,131.4939-45.7294,188.4684,11.9687,12.7993,25.631,24.2634,42.7443,13.579,17.3817-10.8524,7.1737-27.8836-.3374-38.6284-28.3564-40.5622-23.2071-78.6887,3.7741-116.7525C1217.1494,128.8261,1226.8044,113.1619,1205.5465,97.8918Zm36.4165,15.0394c21.0179,7.7044,39.3941,2.9478,65.2693-2.1722-29.8514-21.1188,12.7813-33.95-1.0717-56.8057C1266.6826,48.838,1244.4024,63.059,1241.963,112.9312Zm43.2345,232.5566c4.2433-38.2225-19.0274-33.8236-45.6185-39.6213C1247.6018,338.736,1266.38,340.8866,1285.1975,345.4878Z"/><path d="M1096.6457,1255.5409c-48.3324,49.3387-69.1745,113.1525-75.8877,177.6721-7.7855,74.8255-24.9306,156.7841,60,210.8261-75.6667,29.017-105.0921,14.5582-113.2022-49.6046-3.8964-30.8236-1.21-62.46-1.8343-93.7211-1.2488-62.5125,3.3137-125.82-17.9956-186.1394-19.9712-56.5318,6.3873-107.05,15.093-161.4812-27.6986,28.8543-37.6321,64.8993-42.3041,103.1848-1.9878,16.289-.332,34.345-21.6109,40.0673-146.4,39.37-289.7486,25.4112-434.8433-16.6193,7.2893-48.548,34.4612-86.5044,12.2371-131.0206-10.2047,47.4928-24.6175,92.7787-46.394,136.1745-22.86,45.5534-59.3992,73.5918-99.6642,100.262-84.3338,55.86-103.2665,152.1847-48.1458,238.3314,2.5929,4.0516,2.192,10.0187,3.8376,18.43-27.9379,10.3551-53.8468,4.1047-84.2215-2.8426-6.9986-72.6384-1.7444-142.4921,29.5877-209.7019,30.2374-64.8619,33.6261-126.6062-19.9246-183.9307-49.8517-53.365-24.2274-109.382-.9168-164.7909,7.1614-17.0229,31.5315-27.6,19.6379-56.1358-61.8461,55.9705-66.1881,130.3219-75.1238,202.08-8.6631,69.5755-27.8757,132.4251-90.1241,173.5964l1.0967,1.1826c42-64.2876,46.7868-135.5258,45.5969-210.1387-1.2745-79.9394,31.3922-161.1047,97.1131-194.0964,51.5873-25.896,79.5341-77.2016,134.0645-93.6215,57.354-17.27,115.9871-22.9424,174.7548-19.3452,95.504,5.846,191.7037-.3284,286.585,16.287,20.4993,3.59,43.1946,6.5151,45.864,31.7189C856.788,997,908.33,1031.1207,945.2225,1083.8c10.8315-33.5168-9.1641-46.9733-22.4857-61.6455-16.1911-17.8344-35.1-34.45-41.7376-57.6787-7.6009-26.5994-28.4613-58.3252,3.7261-80.4346,26.4809-18.19,58.2052-27.5872,80.7538,19.6507-.6031-35.03-1.75-63.6868,27.9792-71.9741,32.7715-9.1354,43.8335,17.444,53.4453,42.7126,5.847,15.3729,16.2235,27.489,40.5631,39.2983-13.22-30.5346-21.575-54.0176-33.3158-75.6638-9.8923-18.2392-23.1362-36.0907-7.4407-55.2369,18.9036-23.06,35.5078,3.926,58.0334,8.7828-12.0633-43.3813,10.5488-67.44,42.4921-84.6185,38.0528-20.4632,79.0432-30.1571,122.6023-26.765,59.9265,4.6666,74.0108,32.0132,39.098,89.9206,70.0751-54.3147,111.0852-13.2521,149.6747,40.0886-.2528,11.9742-8.8078,31.06-20.39,32.2393-59.5459,6.06-89.97,62.8256-142.8338,78.1451-22.6358,6.56-32.6025,16.6455-35.2752,41.34-6.0547,55.9471-24.2653,62.7875-69.418,27.8391-15.3425-11.8752-27.2638-28.17-44.7639-46.6975-7.6192,31.7043,8.6625,47.0057,25.1612,59.2315,26.9069,19.9379,26.78,45.73,11.3858,67.9585-16.3485,23.6052-40.5374,7.231-59.61-1.47-31.0664-14.171-50.0768-42.3233-71.3253-67.5934-17.0639-20.2934-33.4348-41.543-62.9975-47.7784,43.3123,47.1077,69.6587,111.1558,133.11,136.7778,32.9115,13.29,30.5883,37.1709,31.8459,62.1677,1.4259,28.3449-2.2116,55.5188-27.7,73.9835-20.0409,14.5195-34.9365,2.7134-48.0856-11.0794-23.5426-24.6962-46.2027-50.2344-75.1873-70.3338,20.9482,45.4906,53.0991,81.7166,92.6562,112.05Zm165.3871-453.3661-.84-.0042c0-21.9938.1839-43.99-.0413-65.9812-.4151-40.5667-18.0794-48.5111-52.0416-28.04-71.9223,43.3518-78.3015,137.3889-12.659,191.8168,29.2091,24.2193,57.9929,16.1789,64.7358-21.2114C1265.6541,853.9827,1262.0328,827.7523,1262.0328,802.1748Z" fill="#ee714a"/><path d="M1095.1833,1257.0155c34.5037-4.3555,26.0516,19.2483,19.4634,34.6313-31.8986,74.48-16.6575,152.0871-17.2823,228.5475-.3353,41.0534,19.569,72.9027,59.5284,93.6861-59.5547,28.8659-105.2889-3.3083-105.9366-62.3657-1.1108-101.37,6.8092-200.9419,45.68-295.9653C1096.6457,1255.5409,1095.1833,1257.0155,1095.1833,1257.0155Z" fill="#ee714a"/><path d="M390.1441,1365.0553c3.4874,40.9961-29.345,71.963-29.2226,113.618.1041,35.4067-10.6949,69.5418,29.4443,91.8414,11.799,6.5547,11.6759,21.8889,3.5409,34.3532-69.3132-.0546-82.6814-16.6738-77.8343-83.939,4.5117-62.6126,6.0709-124.6561,73.6261-156.8247A9.3881,9.3881,0,0,1,390.1441,1365.0553Z" fill="#ee714a"/><path d="M432.409,1334.8351c-2.2812-19.967,7.1087-32.1015,29.7939-44.2414-2.16,26.4273-14.448,36.3083-31.0914,43.0163Z" fill="#ee714a"/><path d="M64.8457,1400.1779c-3.8985,6.094-7.797,12.1879-14.2458,22.2672-4.5307-20.54,3.4171-22.8438,15.3418-21.0891C65.9424,1401.36,64.8457,1400.1777,64.8457,1400.1779Z" fill="#ee714a"/><path d="M431.1115,1333.61q-4.8973,5.6851-9.7956,11.37l1.242.7243c-.478-7.0059,2.7491-10.6729,9.8308-10.8769C432.409,1334.8351,431.1115,1333.61,431.1115,1333.61Z" fill="#ee714a"/><path d="M421.3159,1344.98q-7.6287,1.7739-15.2566,3.548l-.8114-.3067c5.699-.8779,11.3987-1.7558,17.2039-2.5753C422.5579,1345.7044,421.3159,1344.98,421.3159,1344.98Z" fill="#ee714a"/><path d="M406.0593,1348.5281c-9.2663,1.7722-13.7091,8.12-15.8693,16.6024-.0459-.0752-.4-.9217-.4915-1.0263,10.1641-.284,15.6725-5.2617,15.6373-15.8182A5.7933,5.7933,0,0,1,406.0593,1348.5281Z" fill="#ee714a"/><path d="M906.03,344.6689c-165.7522,20.7643-321.3958,39.0482-478.7344,22.9855-63.64-6.4969-116.72-29.5044-153.1108-88.4126,20.8124-13.6464,53.757-12.31,53.5048-37.3521C209.9243,222.673,133.0657,324.6689,25.4558,340.07,109.4529,268.2,167.583,155.0512,304.7123,179.1413c-3.626-29.3383-27.397-12.51-35.5706-30.0363C309.6548,63.5724,383.4837,26.0605,475.478,19.9c103.2057-6.9113,205.8968-7.2842,306.74,25.1514,33.785,10.8664,71.9845,8.0038,112.2941,11.806C828.83,155.7391,822.6373,250.0792,906.03,344.6689Z" fill="#ee714a"/><path d="M1390.0543,187.65c17.7705-11.2465,37.5172-19.9107,54.5264-2.4128,5.5719,5.7316,6.21,24.5105,1.0892,30.9356-20.6129,25.8631-36.7228-7.6705-60.3072-8.9641,22.5567,57.5809-13.9234,73.67-56.1545,82.8579-60.42,13.1445-107.4544-11.83-121.7956-64.79-10.7875-39.8376,5.7294-68.5573,44.0722-82.78C1312.5283,119.8544,1366.0561,137.5944,1390.0543,187.65Z" fill="#ee714a"/><path d="M1012.7042,355.7969c-91.3418-3.6156-154.0175-74.4795-146.32-160.2562,9.5516-106.45,50.1181-143.3818,146.7134-129.6775C922.7552,161.667,929.8686,258.4616,1012.7042,355.7969Z" fill="#ee714a"/><path d="M1085.5521,78.484c-64.5344,89.8321-63.4424,170.86-.6,252.2258-24.6331,16.5467-45.148,17.2057-66.725-5.1666-50.0349-51.8785-59.3-112.531-37.0872-177.9239C995.59,105.0758,1026.641,79.5832,1085.5521,78.484Z" fill="#ee714a"/><path d="M1150.1506,324.5393c-57.61-3.1781-98.1375-59.9886-94.2214-125.8687,3.8492-64.7475,36.16-101.9507,87.6732-100.9471C1102.376,189.21,1102.8912,214.8471,1150.1506,324.5393Z" fill="#ee714a"/><path d="M1205.5465,97.8918c21.2579,15.27,11.6029,30.9343.4516,46.6665-26.9812,38.0638-32.13,76.19-3.7741,116.7525,7.5111,10.7448,17.7191,27.776.3374,38.6284-17.1133,10.6844-30.7756-.78-42.7443-13.579C1106.5415,229.3857,1131.2165,126.5257,1205.5465,97.8918Z" fill="#ee714a"/><path d="M1241.963,112.9312c2.4394-49.8722,24.72-64.0932,64.1976-58.9779,13.853,22.8554-28.78,35.6869,1.0717,56.8057C1281.3571,115.879,1262.9809,120.6356,1241.963,112.9312Z" fill="#ee714a"/><path d="M1285.1975,345.4878c-18.8171-4.6012-37.5957-6.7518-45.6185-39.6213C1266.17,311.6642,1289.4408,307.2653,1285.1975,345.4878Z" fill="#ee714a"/><path d="M1262.0328,802.1748c0,25.5775,3.6213,51.8079-.8458,76.58-6.7429,37.39-35.5267,45.4307-64.7358,21.2114-65.6425-54.4279-59.2633-148.465,12.659-191.8168,33.9622-20.4711,51.6265-12.5267,52.0416,28.04.2252,21.9916.0413,43.9874.0413,65.9812Zm-26.2557,94.96c13.8746-62.93,4.9647-115.8787-.4429-175.175-32.5,17.8088-66.9176,26.1059-64.439,65.4985C1173.54,829.4932,1184.5975,869.7744,1235.7771,897.1351Z"/><path d="M1235.7771,897.1351c-51.18-27.3607-62.2369-67.6419-64.8819-109.6765-2.4786-39.3926,31.9393-47.69,64.439-65.4985C1240.7418,781.2564,1249.6517,834.2052,1235.7771,897.1351Z" fill="#ee714a"/><path d="M475.1723,1151.3359c-1.0771,96.9136-37.1833,174.2178-121.655,227.4039-103.297,65.0389-118.5455,140.6822-53.7786,263.434-27.7771,32.8093-66.4113,13.7917-95.5723,10.0888-22.4891-2.8555-16.7935-39.907-16.9855-63.3635-.4381-53.4074,8.1709-106.9529,29.0488-154.4794,43.4989-99.0244,39.691-134.5828-40.1514-205.5409" fill="none" stroke="#000" stroke-linecap="round" stroke-linejoin="round" stroke-width="2"/><path d="M1156.4418,1101.4869c21.623,68.5436-11.62,127.5248-33.3943,188.2606-29.2854,81.6889-13.2614,166.1485-14.8766,249.3334-.3023,15.5671,5.8558,42.76,26.4471,48.6632,20.3505,5.8341,30.6275,14.7609,26.9217,34.3043-5.1074,26.938-28.4031,12.919-43.8268,16.8665-5.5184,1.4123-10.5474,4.7339-15.0159,6.8182-67.62-59.5074-92.5933-179.4861-56.7792-272.7494,15.1106-39.35,32.9811-77.64,49.5974-116.4112" fill="none" stroke="#000" stroke-linecap="round" stroke-linejoin="round" stroke-width="2"/><path d="M258.85,270.67C299.941,357.9537,378.8834,375.79,463.794,381.301c148.4922,9.6384,295.5233-12.3864,442.9838-23.4612,12.3121-.9247,29.8683-7.7743,38.2745-3.0173,57.13,32.33,105.0433-2.378,155.6915-17.6867" fill="none" stroke="#000" stroke-linecap="round" stroke-linejoin="round" stroke-width="2"/><path d="M901.3478,49.1194C793.9732,49.5836,693.259-3.077,585.7322,5.94c-84.8253,7.113-173.41-9.2817-251.0657,52.0729C297.3142,87.5248,273.573,120.469,253.311,159.8949" fill="none" stroke="#000" stroke-linecap="round" stroke-linejoin="round" stroke-width="2"/><path d="M945.9683,1073.793c-25.844-52.6864-89.2817-83.9836-84.7929-155.1935.929-14.7419-27.0462-25.3633-42.6774-26.57-154.9559-11.9565-311.0735-37.2775-464.8976.1391C205.5632,928.178,97.645,1072.2445,99.31,1223.3314c.7484,67.943-1.42,131.9815-61.7839,177.1393-8.51,6.3665-5.8,14.88-4.8843,22.1936.5125,4.0905,6.8133,7.4564,12.1384,12.7819,82.2365-56.5012,118.7071-137.3329,125.7536-234.2616,4.45-61.2112,13.46-120.735,60.932-166.163" fill="none" stroke="#000" stroke-linecap="round" stroke-linejoin="round" stroke-width="2"/><path d="M480.711,1306.4217c-54.9625,52.1628-110.8593,102.2966-112.578,188.2824-.4375,21.93-3.7451,43.7887,13.5873,54.2527,23.865,14.4088,32.2949,32.9467,26.082,56.3183-4.7065,17.7052-25.0225,13.2633-37.7167,10.6027-25.8711-5.4214-54.0659-6.7274-62.0361-43.3863-7.438-34.2086,3.4577-66.5807,2.5517-99.95-.3942-14.5124,7.4968-29.4969-1.5922-44.2669" fill="none" stroke="#000" stroke-linecap="round" stroke-linejoin="round" stroke-width="2"/><path d="M303.16,170.9725c-93.53-17.9982-161.0181,26.3708-215.1834,94.8152-22.7548,28.754-63.16,35.8919-80.7159,69.89,32.1164,19.9715,87.3257,22.8233,116.6672-11.3306,44.05-51.2742,95.5453-66.7942,157.0492-64.1125,20.1559.8788,27.2348-13.033,38.7992-22.7972" fill="none" stroke="#000" stroke-linecap="round" stroke-linejoin="round" stroke-width="2"/><path d="M929.3519,1306.4217c35.754,62.7816,27.1273,133.0577,24.8968,199.3018-1.4124,41.9507,3.1785,81.8541,9.271,121.8046,6.7578,44.3119,78.0418,56.2192,120.918,22.2977" fill="none" stroke="#000" stroke-linecap="round" stroke-linejoin="round" stroke-width="2"/><path d="M1228.4459,713.7726c-77.5307,43.4778-89.99,122.6342-27.64,177.18,25.4316,22.2491,47.5482,16.7543,48.6151-16.5932,1.7106-53.47,11.7286-108.282-9.8971-160.5867" fill="none" stroke="#000" stroke-linecap="round" stroke-linejoin="round" stroke-width="2"/><path d="M1444.4582,763.6216c40.4881,48.175,25.1746,93.6388-38.9831,103.9159-26.1158,4.1833-45.5117,9.437-55.0605,34.5973-14.0978,37.1435-56.0335,17.3587-77.6578,38.7292,1.1622,70.0354-12.1026,85.511-68.754,77.2058-9.5631,23.98,7.6,63.047-31.0907,71.6858-36.781,8.2125-64.7541-10.2955-88.7672-37.8624-28.29-32.4759-58.7873-63.0283-88.3276-94.4147" fill="none" stroke="#000" stroke-linecap="round" stroke-linejoin="round" stroke-width="2"/><path d="M962.5846,1156.8747c-11.0775,27.6939-33.7438,56.64-30.9136,82.8311,6.6808,61.8312-29.89,71.064-74.3279,77.7608-121.0864,18.2481-241.0118,14.2073-360.2429-15.6786-16.8327-4.2193-27.3849-12.5868-38.5443-23.06" fill="none" stroke="#000" stroke-linecap="round" stroke-linejoin="round" stroke-width="2"/><path d="M1438.9194,752.544c-46.561-16.7521-92.7941-29.5321-128.9449-70.6386-31.1935-35.47-175.7216-2.7151-203.7414,48.2858-6.8153,12.4048-18.1031,22.3528-27.3342,33.43" fill="none" stroke="#000" stroke-linecap="round" stroke-linejoin="round" stroke-width="2"/><path d="M1233.6744,132.201c-10.2405-24.67-8.3534-59.2009-56.2423-41.0224-20.7542,7.8785-51.8875-5.9642-76.4733-14.9537-53.24-19.4662-87.6434.3133-116.9864,44.5957-45.2858,68.3449-27.8622,154.7631,50.3061,232.9315" fill="none" stroke="#000" stroke-linecap="round" stroke-linejoin="round" stroke-width="2"/><path d="M1100.7438,82.352c-71.1671,86.9254-72.14,172.6447-6.0445,238.6736,27.061,27.0338,48.5082,27.5459,72.51-.5062" fill="none" stroke="#000" stroke-linecap="round" stroke-linejoin="round" stroke-width="2"/><path d="M1034.2785,65.7357c-76.3948-43.5423-154.6794-8.2576-173.817,88.2009-16.137,81.34,11.705,139.4093,63.0415,194.2767" fill="none" stroke="#000" stroke-linecap="round" stroke-linejoin="round" stroke-width="2"/><path d="M1161.67,104.5071c-47.1682,56.36-51.3764,140.3767-11.3582,188.5517,25.2261,30.3683,50.0856,29.9193,77.8235,5.3055" fill="none" stroke="#000" stroke-linecap="round" stroke-linejoin="round" stroke-width="2"/><path d="M1455.2255,226.36c-50.398,5.22-66.4606,61.943-115.95,73.5535-68.0894,15.974-128.73-8.8159-143.5627-73.7384-7.726-33.8182-.19-67.4311,32.5316-88.266,32.93-20.9678,124.3053-17.6919,153.6469,12.2135,18.3019,18.6542,38.4861,14.8941,57.0321,19.6176,31.5782,8.0428,40.86,21.8475,27.38,51.081" fill="none" stroke="#000" stroke-linecap="round" stroke-linejoin="round" stroke-width="2"/><path d="M1322.2949,115.5847c-16.3243-18.6353-21.37-36.0174,7.5036-48.3669-49.0559-37.0074-64.5114-33.5728-101.6628,20.673" fill="none" stroke="#000" stroke-linecap="round" stroke-linejoin="round" stroke-width="2"/><path d="M1006.8948,1145.7971c34.4679,40.7495,57.2836,95.74,121.8531,99.698" fill="none" stroke="#000" stroke-linecap="round" stroke-linejoin="round" stroke-width="2"/><path d="M1228.1357,320.5194c28.7729,37.339,63.7906,45.0145,105.2367,22.1551" fill="none" stroke="#000" stroke-linecap="round" stroke-linejoin="round" stroke-width="2"/><path d="M1078.8989,907.63c-9.2311-18.4627-17.669-37.3764-27.8575-55.2948-21.5635-37.92-56.8428-46.9371-81.5394-15.622-15.784,20.0128-32.9331,16.2389-50.778,22.3753-24.6655,8.4816-54.99,12.8874-66.9149,43.0028" fill="none" stroke="#000" stroke-linecap="round" stroke-linejoin="round" stroke-width="2"/><path d="M1095.5152,780.2379c-50.1829-28.2282-57.43-24.3264-72.0041,38.7714" fill="none" stroke="#000" stroke-linecap="round" stroke-linejoin="round" stroke-width="2"/><path d="M1150.903,957.4787q16.4714,38.9166,55.3878,55.3878" fill="none" stroke="#000" stroke-linecap="round" stroke-linejoin="round" stroke-width="2"/><path d="M1350.299,730.389q-19.3861,16.6162-38.7715,33.2326" fill="none" stroke="#000" stroke-linecap="round" stroke-linejoin="round" stroke-width="2"/></svg>