<svg width="263" height="223" xmlns="http://www.w3.org/2000/svg" viewBox="0 0 1501.4199 1669.0499"><path d="M173.2926,1230.2689c-37.816,89.8715-71.6157,165.3794-162.9567,196.1562-7.5163-36.26,13.9-51.1386,28.0218-66.4254,64.5027-69.8227,96.9687-153.4015,116.9905-244.7781,35.5237-162.1253,116.1852-227.52,282.45-238.2655,139.6211-9.0235,279.2131-.9719,418.78-.57,63.8652.1839,116.1245-15.6553,157.6575-64.8042,43.0279-50.9179,104.0942-80.61,149.7242-130.19,42.0541-45.6951,140.6877-33.5426,185.5608,14.63,21.8024,23.4055,43.13,41.5966,77.3436,41.9566,30.2144.3178,71.3651-12.2777,74.3228,38.11,2.7529,46.9-18.8954,82.915-65.719,95.301-38.5962,10.21-78.7054,15.7148-119.3422,9.6756-12.2606-1.8222-27.437-13.6117-37.0969.9949-35.457,53.6146-99.8058,90.9849-93.6387,168.2879,5.2069,65.2712-12.0586,126.8935-48.8061,179.228-24.9338,35.51-31.8848,70.8551-32.7155,111.7416-1.047,51.5272-6.927,102.9392-9.7667,154.4533-1.6914,30.6773-8.6744,58.3981,32.2965,78.8482,35.9035,17.92,18.1564,76.5509-22.9889,88.2511-72.7457,20.6864-110.5749-11.1666-102.6361-86.4324,5.4056-51.2484,13.94-102.3977,15.5525-153.7645,2.8381-90.399.8055-97.12-97.2373-116.5031C818.67,1286.317,729.936,1249.5222,645.8671,1194.6923c-27.0191-17.6217-55.7007-33.9757-85.7076-45.459-56.4255-21.5933-95.8629-6.2857-122.4524,49.1759-30.8462,64.3406-95.9086,110.81-96.3514,191.263-.3227,58.6773-12.4191,117.1337,37.7981,165.9753,28.8765,28.0852,3.5836,55.0918-23.3626,58.4219-46.0918,5.696-90.2535,14.172-134.3984,28.8272-26.9694,8.9535-44.9793-7.3711-53.984-36.6115-20.624-66.9717-34.91-128.798,8.62-196.66C207.69,1360.2658,194.0217,1299.2122,173.2926,1230.2689ZM47.1549,1373.7081c7.3581,1.7937,13.2531,1.2394,13.4853-8.4028,9.0907,3.2675,12.574-.7228,12.336-9.53,23.03-5.9823,31.4876-23.4069,35.0062-44.7294,17.1785-9.3241,4.6671-21.7986,3.5089-33.0684,6.4131-4.0741,16.2481-4.78,15.7549-15.7067,11.596,2.8881,13.3588-9.5678,20.3987-13.2817-1.5029-2.5939-8.5144-4.9854-.2915-7.9366q-.3394,4.22-.6788,8.4407-8.9261,7.0887-17.8522,14.1771c-4.5227,6.317-6.5455,15.6178-17.2836,14.5929q-1.127,16.9593-2.2541,33.9185C88.648,1320.054,78.13,1335.918,74.0127,1356.84c-7.6455-1.0439-10.7449,3.4135-12.039,10.0777-5.4164,2.7084-10.8328,5.4168-16.0108,8.0736q.413,1.2153.8258,2.4307Q46.9719,1375.565,47.1549,1373.7081Zm115.0589-208.1039c23.0266,1.1052,13.6745-12.1845,9.1913-28.4838-4.2851,12.5839-7.0737,20.7734-9.81,29.1514.4789,2.6766.9579,5.3529.8919,4.9842C162.4957,1171.4332,162.3547,1168.5187,162.2138,1165.6042ZM332.65,1351.4849c-36.1631-7.0824-43.6747,18.0808-42.63,43.5459,1.9662,47.9178-6.8328,94.6708-9.2209,141.98-1.0248,20.3033-13.4033,47.8858,15.8368,59.9785,26.4672,10.9459,51.6728,6.8692,75.4588-18.58-69.341-66.0069-53.733-146.9092-39.2159-227.8262l-3.0451-2.8773Zm1014.518-615.3071,1.6166,1.6657c-8.3743-34.2593-27.1937-53.09-71.1366-43.8551,16.3382,56.1287-37.4366,132.9107,42.5045,165.2044,68.1669,27.537,137.0548-7.21,154.4288-57.1309C1438.816,766.2635,1395.2547,746.6859,1347.1682,736.1778Zm-1148.8718,495.46-2.1588-15.6219c-1.5945.896-4.3556,1.5589-4.589,2.727-1.268,6.3444.64,11.0559,7.9825,11.8332,6.3227,63.9359,30.8509,131.7973-5.9124,190.2557-36.2466,57.6369-29.9246,110.0388-11.1263,168.5707,14.3276,44.6117,34.77,49.3858,72.1837,18.6253-76.5364-134.1885-17.1043-231.7872,86.6722-316.7166,4.4273-3.6232,9.0289-7.114,13.0037-11.1977,68.0424-69.9066,126.0166-167.1738,65.1487-265.2926-3.9364-6.3454-9.7011-17.3785,7.6386-25.2765,28.883,40.2117,36.4415,87.9194,41.8963,135.42,19.0062-.6242,34.0893,2.404,48.15-8.413-5.4233-20.2661-36.5616-20.61-36.44-52.76l152.941,92.5885-1.34-.4572c7.8044,15.3071,25.7373,13.838,37.4773,22.6266l-1.3076-.1047c4.1415,9.3882,9.857,9.8523,16.6154,3.1018l-1.3275.8272c-3.1192-26.4877-6.3575-52.99,7.58-92.702,17.3888,51.9908,5.9153,97.3876,38.5622,131.6085,16.06-23.1168-17.3907-54.4564,19.5976-74.8653,2.6588,40.6952,5.483,78.7648,38.32,104.7065,19.9386-21.178-15.3429-45.36,7.7827-64.1661,45.7329,83.9486,45.7329,83.9486,88.86,81.6594-3.3723-18.9389-17.8631-37.2347-3.9994-63.3619,19.9347,24.7279,19.7525,56.7374,43.0447,75.5088,34.1259-29.9753,33.2765-70.7505,46.4086-105.48,14.2555-37.7009,13.4522-73.8749-3.0913-111.0667-14.61-32.8451-26.56-67.1242-15.1412-115.3266,56.8207,149.5375,57.2692,149.6469,25.7017,278.9354-4.8026,19.67-7.4576,31.9908,10.88,49.1057,34.7135,32.3991,47.4329,76.8674,49.2019,124.5522,2.1473,57.8861-11.5314,113.7847-19.0174,170.47-8.5912,65.0562,14.145,86.1287,77.2709,72.2435,13.7641-3.0274,27.4538-6.9039,29.79-22.1274,2.4117-15.7133-2.1991-34.6378-19.6036-36.1536-43.39-3.7793-33.6276-35.2718-32.6682-59.5439,4.0717-103.0128,17.1538-205.6143,13.4792-309.0315-.4007-11.2767-9.1387-27.1319,9.346-33.8634,19.1624,5.9947,3.0363,31.78,23.2377,41.0137,71.9763-131.5811-70.4867-178.3248-112.5243-272.4886,35.7472,31.2789,61.491,56.3724,89.8962,77.9649,30.7582,23.3812,47.5567,55.5983,60.8468,92.8877,41.1261-97.4158-59.5142-131.2644-89.1121-208.6852,46.1631,23.7847,59.8009,67.1287,99.5036,85.3626,11.95-42.7936,56.82-59.67,66.1929-103.7832-50.9947-37.0123-100.9949-74.3666-109.0808-143.6974-42.7827,18.457-72.9349,45.336-99.415,75.215-45.48,51.3177-101.0677,70.351-168.6107,67.7095-103.0342-4.0295-206.2406-3.4264-309.3419-6.0491-63.7372-1.6214-123.71,22.8223-185.1569,27.6233C249.3375,925.3939,165.1675,1031.9171,194.97,1136.551c11.189,39.2832,29.2822,74.1256,44.6076,110.9045,8.9466,21.47,23.2138,45.5355,1.0215,74.6875C227.7261,1285.6639,232.028,1249.55,198.2964,1231.6379ZM1267.9753,872.1488c-7.7358-54.4-14.9741-106.7515-11.5184-159.3589.3739-5.69.761-11.5442-.125-17.1211-3.379-21.27-18.1417-31.3451-36.7134-24.215-35.795,13.7427-70.3412,29.1916-67.89,79.2476C1154.5673,808.6652,1193.6728,854.4178,1267.9753,872.1488ZM265.27,1407.9483c-30.5543,47.619-29.3168,90.9606-15.0348,144.9754C270.4054,1502.2944,274,1459.4274,265.27,1407.9483Zm708.6716-116.0418c-2.0173-3.1029-3.6515-6.5639-6.14-9.2258-3.9015-4.1733-7.4672-3.0824-7.61,2.5619-.0818,3.2294,1.6179,8.04,4.0248,9.3364C966.3473,1295.7273,970.5666,1292.9994,973.9412,1291.9065Z"/><path d="M1185.3217,240.3132c-147.4525,38.48-294.88,61.7355-442.0913,35.2209-82.06-14.78-163.8033-19.0764-245.7651-27.622-11.3344-1.1818-21.35-5.3158-32.5031,1.7585-70.2408,44.553-136.2338,21.0989-198.5338-16.8457-83.7031-50.98-178.5016-33.1005-235.9862,48.4788-4.3861,6.2245-6.9213,13.7534-11.6871,23.47-33.4718-58.2517-20.753-119.57,27.0942-158.6122,14.5582-11.879,31.3879-23.7374,49.0907-28.5155C167.0615,98.18,233.2247,75.4145,297.5092,28.8716,345.044-5.5442,423.5541-13.149,491.793,27.93c37.96,22.8515,93.6017,22.3731,132.1428,5.5479C736.2-15.5316,846.0476,2.3393,959.7708,20.2224c78.7343,12.3811,150.2707,43.3216,224.434,68.8288,16.4608-76.49,61.7677-93.95,148.7644-60.0468,5.4273,18.51-15.6678,29.3056-14.5841,47.7516,22.11,13.2483,39.95,33.8808,70.3637,31.0037a132.0863,132.0863,0,0,1,50.5237,5.48c20.496,6.3963,28.4462,23.4684,26.8414,45.1893-1.8686,25.2948-15.9218,38.6558-40.1146,39.79-45.3017,2.1237-87.3144,10.3112-115.6221,54.0665l27.7042,23.7446C1271.4446,338.2922,1209.7051,325.5691,1185.3217,240.3132Zm-118.1485,6.2c15.3465-17.2219-20.2958-26.6917-7.4516-43.8775,70.7383,38.8239,70.7383,38.8239,118.1749,8.2075-28.7976-32.9392,17.2644-86.8691-28.45-112.4837-35.9471-20.1421-77.8077,3.1507-131.4171,7.9388L1072.18,68.5379c-33.527-34.6819-60.3981-.9507-89.8864,5.6543-4.06-17.404-9.2015-31.4041-29.1192-35.32C844.8119,17.57,736.42-7.6647,633.5759,58.5284c-13.1861,8.487-26.6605,3.1336-38.7093-.1421-38.3811-10.4347-75.0014-5.2479-109.5893,10.6779-45.8826-75.1585-177.47-55.0173-236.47,33.1216,32.1377,29.5621,26.636,63.0556,7.7164,95.901,89.5025,74.1222,151.9981,74.3783,235.1284-.84,3.0363,42.4739,33.7721,35.0365,60.5852,38.0721,37.8039,4.28,79.3839-23.2615,110.9251-3.4555,76.4049,47.9776,158.776,27.7343,239.0112,34.3211,27.2182,2.2344,19.2382-27.866,33.5505-33.1478,20.739,5.294,23.92,33.76,48.6413,28.2118,6.3-18.6067-12.327-42.4741,14.6724-60.1039C1007.16,239.9744,1023.5618,265.8831,1067.1732,246.5136Zm261.9994-69.98c28.1,11.8423,54.838,14.7127,81.87-.629-.3675-16.7792,6.41-33.8163-7.3069-47.3408-16.295,0-31.4283-.5031-46.5036.2146-7.4182.3532-14.7289,2.966-22.2455,4.59-20.8576-37.8465-61.0072-49.74-108.6471-35.0988-39.0975,12.0161-38.8042,41.2808-36.5028,72.6142,3.522,47.9472,40.4217,55.533,76.7151,59.84C1303.9428,235.1622,1327.2522,217.6036,1329.1726,176.5335ZM22.494,251.7726c33.6462-52.91,79.945-60.2,128.7808-62.7263,24.5431-1.27,49.27-3.5094,73.3121-8.3162,15.4207-3.083,26.8088-12.9876,24.5535-32.5891-1.7917-15.5722-9.8477-24.92-23.9386-28.097C134.028,99.49,14.347,158.1421,22.494,251.7726ZM1306.2522,44.08c-68.2961-17.3508-80.0031-13.6744-94.47,34.96C1243.3591,60.4626,1286.127,91.7141,1306.2522,44.08Zm-9.6454,230.5643c-22.5936-31.5873-52.3694-22.4641-79.24-29.9984C1223.5738,303.8131,1240.327,310.0105,1296.6068,274.644Z"/><path d="M685.3831,1181.42c-7.01,6.8775-12.7258,6.4134-17.1919-3.1151,3.26-39.577,1.84-78.3993-10.8893-115.8076-5.7067,40.0035-29.732,82.6433,12.5215,116.0526-11.74-8.7886-29.6729-7.3195-37.7725-22.8382,12.5015-46.0992-12.799-83.5717-28.7661-123.6606-2.3568,10.0669-4.7136,20.1339-7.8728,33.6276-8.1077-23.895,4.8415-47.6341-11.4333-66.5666-17.6522,8.11-11.4,23.2633-14.21,35.3708-13.7392,59.1909,48.5074,78.22,63.9177,121.8976l-152.941-92.5885c-.1215,32.15,31.0168,32.4937,36.44,52.76-14.0606,10.817-29.1437,7.7888-48.15,8.413-5.4548-47.5011-13.0133-95.2088-41.8963-135.42-17.34,7.898-11.575,18.9311-7.6386,25.2765,60.8679,98.1188,2.8937,195.386-65.1487,265.2926-3.9748,4.0837-8.5764,7.5745-13.0037,11.1977-103.7765,84.9294-163.2086,182.5281-86.6722,316.7166-37.4139,30.76-57.8561,25.9864-72.1837-18.6253-18.7983-58.5319-25.12-110.9338,11.1263-168.5707,36.7633-58.4584,12.2351-126.32,5.9124-190.2557l-1.2868,1.1081c33.7837,17.8652,29.4818,53.98,42.3548,90.4587,22.1923-29.152,7.9251-53.2172-1.0215-74.6875-15.3254-36.7789-33.4186-71.6213-44.6076-110.9045-29.8025-104.6339,54.3675-211.1571,167.5736-220.0024,61.447-4.801,121.42-29.2447,185.1569-27.6233,103.1013,2.6227,206.3077,2.02,309.3419,6.0491,67.543,2.6415,123.1311-16.3918,168.6107-67.7095,26.48-29.879,56.6323-56.758,99.415-75.215,8.0859,69.3308,58.0861,106.6851,109.0808,143.6974-9.373,44.113-54.2429,60.99-66.1929,103.7832-39.7027-18.2339-53.34-61.5779-99.5036-85.3626,29.5979,77.4208,130.2382,111.2694,89.1121,208.6852-13.29-37.2894-30.0886-69.5065-60.8468-92.8877-28.4052-21.5925-54.149-46.686-89.8962-77.9649,42.0376,94.1638,184.5006,140.9075,112.5243,272.4886-20.2014-9.2339-4.0753-35.019-23.2377-41.0137-18.4847,6.7315-9.7467,22.5867-9.346,33.8634,3.6746,103.4172-9.4075,206.0187-13.4792,309.0315-.9594,24.2721-10.7218,55.7646,32.6682,59.5439,17.4045,1.5158,22.0153,20.44,19.6036,36.1536-2.3367,15.2235-16.0264,19.1-29.79,22.1274-63.1259,13.8852-85.8621-7.1873-77.2709-72.2435,7.486-56.685,21.1647-112.5836,19.0174-170.47-1.769-47.6848-14.4884-92.1531-49.2019-124.5522-18.3376-17.1149-15.6826-29.4358-10.88-49.1057,31.5675-129.2885,31.119-129.3979-25.7017-278.9354-11.4187,48.2024.5311,82.4815,15.1412,115.3266,16.5435,37.1918,17.3468,73.3658,3.0913,111.0667-13.1321,34.73-12.2827,75.505-46.4086,105.48-23.2922-18.7714-23.11-50.7809-43.0447-75.5088-13.8637,26.1272.6271,44.423,3.9994,63.3619-43.1269,2.2892-43.1269,2.2892-88.86-81.6594-23.1256,18.8057,12.1559,42.9881-7.7827,64.1661-32.8367-25.9417-35.6609-64.0113-38.32-104.7065-36.9883,20.4089-3.5372,51.7485-19.5976,74.8653-32.6469-34.2209-21.1734-79.6177-38.5622-131.6085-13.9375,39.7122-10.6992,66.2143-7.58,92.702Zm-382.58,44.5218c-25.7723-55.3608-74.5872-98.2761-80.0967-163.776C208.0392,1137.1272,254.6665,1182.2753,302.8029,1225.942Zm88.1888-53.1306c41.3529-83.1429,32.8147-126.8862-31.6051-146.6037C413.4064,1070.6931,389.1011,1123.4942,390.9917,1172.8114Z" fill="#ee714a"/><path d="M1347.1682,736.1778c48.0865,10.5081,91.6478,30.0857,127.4133,65.8841-17.374,49.9208-86.2619,84.6679-154.4288,57.1309-79.9411-32.2937-26.1663-109.0757-42.5045-165.2044,43.9429-9.2352,62.7623,9.5958,71.13,43.8415-17.3618-4.4788-34.0962-7.9084-34.5326,21.8505C1333.6387,760.4488,1351.661,764.7744,1347.1682,736.1778Z" fill="#ee714a"/><path d="M1267.9753,872.1488c-74.3025-17.731-113.408-63.4836-116.2466-121.4474-2.4514-50.056,32.0948-65.5049,67.89-79.2476,18.5717-7.13,33.3344,2.9452,36.7134,24.215.886,5.5769.4989,11.4315.125,17.1211C1253.0012,765.3973,1260.24,817.7491,1267.9753,872.1488Z" fill="#ee714a"/><path d="M332.9906,1350.7474C318.362,1431.5,302.754,1512.4022,372.095,1578.4091c-23.786,25.4494-48.9916,29.5261-75.4588,18.58-29.24-12.0927-16.8616-39.6752-15.8368-59.9785,2.3881-47.3092,11.1871-94.0622,9.2209-141.98-1.0448-25.4651,6.4668-50.6283,42.63-43.5459Z" fill="#ee714a"/><path d="M265.27,1407.9483c8.73,51.4791,5.1358,94.3461-15.0348,144.9754C235.9528,1498.9089,234.7153,1455.5673,265.27,1407.9483Z" fill="#fff"/><path d="M74.0165,1356.8394c4.1138-20.9214,14.6315-36.7854,35.2682-44.658l-1.2413-1.068c-3.58,21.2547-12.0368,38.6793-35.0672,44.6616Z" fill="#fff"/><path d="M161.5427,1166.0834c2.7887-8.19,5.5773-16.3791,9.8624-28.963,4.4832,16.2993,13.8353,29.589-9.1913,28.4838Z" fill="#ed6234"/><path d="M973.9025,1291.9445c-3.3359,1.0549-7.5552,3.7828-9.6866,2.6345-2.4069-1.2967-4.1066-6.107-4.0248-9.3364.1426-5.6443,3.7083-6.7352,7.61-2.5619C970.29,1285.3426,971.9239,1288.8036,973.9025,1291.9445Z" fill="#ee714a"/><path d="M162.2138,1165.6042c.1409,2.9145.2819,5.829.2733,5.6518.066.3687-.413-2.3076-.9182-5.0784C161.5427,1166.0834,162.2138,1165.6042,162.2138,1165.6042Z" fill="#fff"/><path d="M127.068,1262.15c.6714,11.0467-9.1636,11.7528-15.5786,15.8535a1.2787,1.2787,0,0,0,.032.162c10.7555,1.122,12.7783-8.1788,17.301-14.4958Z" fill="#fff"/><path d="M128.8224,1263.67q8.9261-7.0887,17.8522-14.1771l1.2957-.5038c-7.3653,3.7136-9.1281,16.1695-20.8132,13.2213C127.068,1262.15,128.8224,1263.67,128.8224,1263.67Z" fill="#fff"/><path d="M199.5311,1230.5762c-7.3429-.7773-9.2505-5.4888-7.9825-11.8332.2334-1.1681,2.9945-1.831,4.589-2.727q1.0794,7.811,2.1327,15.645C198.2443,1231.6843,199.5311,1230.5762,199.5311,1230.5762Z" fill="#ed6234"/><path d="M109.2847,1312.1814q1.127-16.9593,2.2454-33.967c-.0087-.0486-.0426-.184-.0407-.2106,1.16,11.2432,13.6715,23.7177-3.4765,33.0756C108.0434,1311.1134,109.2847,1312.1814,109.2847,1312.1814Z" fill="#fff"/><path d="M146.6746,1249.4929q.3394-4.22.6788-8.4407c-8.2229,2.9512-1.2114,5.3427.4542,7.9368A7.6914,7.6914,0,0,1,146.6746,1249.4929Z" fill="#fff"/><path d="M72.9762,1355.775c.238,8.8075-3.2453,12.7978-12.3074,9.5807.0286.05,1.2525,1.4761,1.2525,1.4761,1.3465-6.5786,4.4459-11.036,12.0934-9.9923Z" fill="#fff"/><path d="M45.7244,1375.0426c5.4165-2.7084,10.8329-5.4168,16.2231-8.1681-.0262-.0427-1.25-1.4683-1.2787-1.5188-.2608,9.5918-6.1558,10.1461-13.5139,8.3524Z" fill="#fff"/><path d="M47.1549,1373.7081q-.183,1.8567-.3662,3.7136a18.5167,18.5167,0,0,0-.945-2.405A17.348,17.348,0,0,1,47.1549,1373.7081Z" fill="#fff"/><path d="M683.8037,1182.3744c.4425-.2757.885-.5514,1.4535-.8906C685.3831,1181.42,683.8037,1182.3744,683.8037,1182.3744Z" fill="#fff"/><path d="M332.65,1351.4849l-2.8162-3.7793s3.0451,2.8773,3.1008,2.9595S332.65,1351.4849,332.65,1351.4849Z" fill="#fff"/><path d="M1067.1732,246.5136c-43.6114,19.37-60.013-6.5392-68.1354-45.3692-26.9994,17.63-8.3719,41.4972-14.6724,60.1039-24.7209,5.5478-27.9023-22.9178-48.6413-28.2118-14.3123,5.2818-6.3323,35.3822-33.5505,33.1478-80.2352-6.5868-162.6063,13.6565-239.0112-34.3211-31.5412-19.806-73.1212,7.7354-110.9251,3.4555-26.8131-3.0356-57.5489,4.4018-60.5852-38.0721-83.13,75.2185-145.6259,74.9624-235.1284.84,18.92-32.8454,24.4213-66.3389-7.7164-95.901,59-88.1389,190.5874-108.28,236.47-33.1216,34.5879-15.9258,71.2082-21.1126,109.5893-10.6779,12.0488,3.2757,25.5232,8.6291,38.7093.1421C736.42-7.6647,844.8119,17.57,953.1747,38.8725c19.9177,3.9156,25.059,17.9157,29.1192,35.32,29.4883-6.605,56.3594-40.3362,89.8864-5.6543l-54.1511,37.7608c53.6094-4.7881,95.47-28.0809,131.4171-7.9388,45.7146,25.6146-.3474,79.5445,28.45,112.4837C1130.46,241.46,1130.46,241.46,1059.7216,202.6361,1046.8774,219.8219,1082.52,229.2917,1067.1732,246.5136Z" fill="#ee714a"/><path d="M1329.1726,176.5335c-1.92,41.07-25.23,58.6287-62.621,54.1909-36.2934-4.3075-73.1931-11.8933-76.7151-59.84-2.3014-31.3334-2.5947-60.5981,36.5028-72.6142,47.64-14.6414,87.7895-2.7477,108.6471,35.0988,7.5166-1.6242,14.8273-4.237,22.2455-4.59,15.0753-.7177,30.2086-.2146,46.5036-.2146,13.7166,13.5245,6.9394,30.5616,7.3069,47.3408C1384.0106,191.2462,1357.2722,188.3758,1329.1726,176.5335Z" fill="#ee714a"/><path d="M22.494,251.7726C14.347,158.1421,134.028,99.49,225.2018,120.044c14.0909,3.1765,22.1469,12.5248,23.9386,28.097,2.2553,19.6015-9.1328,29.5061-24.5535,32.5891-24.0425,4.8068-48.769,7.0466-73.3121,8.3162C102.439,191.5728,56.14,198.863,22.494,251.7726Z" fill="#ee714a"/><path d="M1306.2522,44.08c-20.1252,47.6344-62.8931,16.3829-94.47,34.96C1226.2491,30.4053,1237.9561,26.7289,1306.2522,44.08Z" fill="#ee714a"/><path d="M1296.6068,274.644c-56.28,35.3665-73.033,29.1691-79.24-29.9984C1244.2374,252.18,1274.0132,243.0567,1296.6068,274.644Z" fill="#ee714a"/><path d="M633.6864,1156.3807c-15.41-43.6778-77.6569-62.7067-63.9177-121.8976,2.81-12.1075-3.4422-27.2612,14.21-35.3708,16.2748,18.9325,3.3256,42.6716,11.4333,66.5666,3.1592-13.4937,5.516-23.5607,7.8728-33.6276,15.9671,40.0889,41.2676,77.5614,28.7661,123.6606A12.11,12.11,0,0,0,633.6864,1156.3807Z"/><path d="M302.8029,1225.942c-48.1364-43.6667-94.7637-88.8148-80.0967-163.776C228.2157,1127.6659,277.0306,1170.5812,302.8029,1225.942Z"/><path d="M390.9917,1172.8114c-1.8906-49.3172,22.4147-102.1183-31.6051-146.6037C423.8064,1045.9252,432.3446,1089.6685,390.9917,1172.8114Z"/><path d="M669.8234,1178.55c-42.2535-33.4093-18.2282-76.0491-12.5215-116.0526,12.729,37.4083,14.15,76.2306,10.8893,115.8076A9.8026,9.8026,0,0,0,669.8234,1178.55Z"/><path d="M1347.1682,736.1778c4.4928,28.5966-13.53,24.271-32.9223,23.5026.4364-29.7589,17.1708-26.3293,34.5326-21.8505C1348.7848,737.8435,1347.1682,736.1778,1347.1682,736.1778Z"/><path d="M1129.688,736.429c-46.6315,22.1485-85.9687,54.1444-120.3641,92.0063-38.87,42.7871-86.4726,56.6359-143.6537,58.2963-135.9463,3.9473-271.35-10.2869-407.677-2.7451-185.36,10.2542-306.7951,121.7138-315.1607,305.9377-.5542,12.2047,10.1412,19.9964,22.5047,22.94" fill="none" stroke="#000" stroke-linecap="round" stroke-linejoin="round" stroke-width="2"/><path d="M1095.2469,1178.4231c8.542,117.1227-8.2028,233.42-11.0407,350.1619-.4752,19.5587-10.3895,41.46,27.7378,48.6763,27.8531,5.2714,34.9514,41.001,11.4494,65.5868-25.5956,26.7763-62.8807,15.061-90.7069,9.2332-24.111-5.05-34.678-34.3968-24.5766-66.4313,10.9767-34.81,11.4222-72.6627,16.6528-108.9682,11.2519-78.0958,1.49-153.8416-61.54-212.1559" fill="none" stroke="#000" stroke-linecap="round" stroke-linejoin="round" stroke-width="2"/><path d="M489.7874,42.8275C437.9466-.2392,318.0858,5.0026,272.0469,54.6661c-30.2181,32.597-60.862,50.9469-109.3468,53.3693C58.7261,113.23-2.8214,186.8115,16.7324,290.33c38.2716-97.3211,112.3514-95.2409,186.029-92.1206,25.8124,1.0931,47.68-10.43,55.8721-29.7533,10.3868-24.4986-3.1593-47.9972-27.1543-62.4864" fill="none" stroke="#000" stroke-linecap="round" stroke-linejoin="round" stroke-width="2"/><path d="M176.8175,1224.3446c31.0243,76.41,40.12,150.6809-10.7912,224.3435-24.3239,35.1933-6.5169,142.5131,21.9041,177.7656,13.7126,17.0087,32.412,14.0688,45.8629,9.8316,17.972-5.6614,31.3731-18.5015,30.0986-44.6164-3.3665-68.9822,25.7987-135.3824,13.1323-207.0627-5.2672-29.807,35.1868-49.3852,60.5185-68.4187" fill="none" stroke="#000" stroke-linecap="round" stroke-linejoin="round" stroke-width="2"/><path d="M1267.4524,690.5075V770.87c0,93.3151,15.2772,107.7882,109.0635,103.3233,71.1105-3.3854,98.7293-24.1,116.0322-90.8416-20.7488-18.5977-43.1688-36.8118-75.8471-35.356-21.2676.9475-43.4274-9.1924-50.2716-23.7045-26.5075-56.2051-87.9636-40.1894-129.7918-64.6031-27.1817-15.8652-67.0559,20.4678-88.7489,48.7906-24.8576,32.4549-11.3269,73.3629,6.7739,101.2662,19.8575,30.6109,55.388,51.0547,84.0889,75.9288" fill="none" stroke="#000" stroke-linecap="round" stroke-linejoin="round" stroke-width="2"/><path d="M1000.6638,54.3079c-67.8816-48.1687-146.44-50.1764-223.7525-44.39-50.756,3.7987-106.3085-4.2746-150.7751,37.13-9.4408,8.7906-36.8963-.1908-56.1885-2.5979-27.3233-3.4093-60.5689-11.5011-80.16,21.3388" fill="none" stroke="#000" stroke-linecap="round" stroke-linejoin="round" stroke-width="2"/><path d="M957.4825,960.2962c.3975,27.2774-4.3442,55.7727,11.6566,80.2473,49.5958,75.861,7.06,146.7141-12.8145,217.919-5.3778,19.2666-19.6156,44.0588-50.5038,29.0241" fill="none" stroke="#000" stroke-linecap="round" stroke-linejoin="round" stroke-width="2"/><path d="M484.0473,232.2536c73.4918,31.7735,153.2408-2.1458,231.2989,30.3815,68.4343,28.517,151.38,27.5009,227.9157,4.06" fill="none" stroke="#000" stroke-linecap="round" stroke-linejoin="round" stroke-width="2"/><path d="M452.3463,1155.4624c-32.5524,52.5267-63.627,104.4719-106.438,151.6282-43.2513,47.6414-10.4575,213.9047,39.2439,269.2863-30.41,42.0262-66.9771,48.6706-110.7516,21.08" fill="none" stroke="#000" stroke-linecap="round" stroke-linejoin="round" stroke-width="2"/><path d="M237.2194,197.8125c21.5024,29.9315,56.0743,42.96,86.7461,55.8737,63.5641,26.7625,123.29,17.88,165.8219-44.3934" fill="none" stroke="#000" stroke-linecap="round" stroke-linejoin="round" stroke-width="2"/><path d="M412.1651,994.7373c44.9383,40.6309,39.8425,96.657,45.8979,148.7288l91.8665-16.7046" fill="none" stroke="#000" stroke-linecap="round" stroke-linejoin="round" stroke-width="2"/><path d="M1083.7665,931.5952c29.231,26.42,47.0418,63.28,80.1713,86.3771,15.78,11.0014,11.4969,29.4789,11.6344,45.6475.5954,70.0289-14.25,134.32-68.8449,183.6855" fill="none" stroke="#000" stroke-linecap="round" stroke-linejoin="round" stroke-width="2"/><path d="M1009.1442,960.2961c34.4411,32.5277,68.1813,65.8426,103.5461,97.3329,28.038,24.9664,21.591,63.6549,39.9584,92.0932" fill="none" stroke="#000" stroke-linecap="round" stroke-linejoin="round" stroke-width="2"/><path d="M171.0773,1115.2811c26.543,27.059,21.5017,55.6583,5.9853,86.2271-20.1373,39.6721-37.1049,80.99-58.0551,120.2014-19.7358,36.9379-44.7895,69.6966-104.043,84.265,53.6-68.9507,98.54-126.009,127.4119-193.11" fill="#ee714a" stroke="#000" stroke-linecap="round" stroke-linejoin="round" stroke-width="2"/><path d="M268.6605,1390.81c-43.7062,50.6795-48.5961,126.4719-11.48,177.9457" fill="none" stroke="#000" stroke-linecap="round" stroke-linejoin="round" stroke-width="2"/><path d="M1213.0506,94.4892c35.7116-24.2466,99.777,8.2145,113.311-57.9079C1236.7262,6.195,1200.743,23.4044,1195.545,104.6854c-54.4809-17.3019-110.9321-53.7405-160.44,7.0243" fill="none" stroke="#000" stroke-linecap="round" stroke-linejoin="round" stroke-width="2"/><path d="M222.739,1063.62c-3.8327,71.0037,39.3376,116.8273,86.1027,160.7251" fill="none" stroke="#000" stroke-linecap="round" stroke-linejoin="round" stroke-width="2"/><path d="M366.2436,1029.1784c48.8385,20.6569,44.91,64.8507,37.5652,102.8172-2.8337,14.6482-6.5523,30.7417-8.8643,46.4275" fill="none" stroke="#000" stroke-linecap="round" stroke-linejoin="round" stroke-width="2"/><path d="M871.38,1212.8642c24.811,14.1184,10.6008,45.9734,34.59,61.36-72.2486,21.869-88.4286,8.3858-109.2125-84.32" fill="none" stroke="#000" stroke-linecap="round" stroke-linejoin="round" stroke-width="2"/><path d="M1310.6337,83.0088c22.78,20.8314,44.8592,39.65,80.45,35.1264,48.62-6.1791,61.14,19.1452,45.8344,62.4567" fill="none" stroke="#000" stroke-linecap="round" stroke-linejoin="round" stroke-width="2"/><path d="M1278.9328,868.4532c-40.4451,41.4185-71.4678,89.9038-103.3233,137.7644" fill="none" stroke="#000" stroke-linecap="round" stroke-linejoin="round" stroke-width="2"/><path d="M481.0473,1075.1c86.8627,55.47,168.5248,119.4839,264.0484,160.7252" fill="none" stroke="#000" stroke-linecap="round" stroke-linejoin="round" stroke-width="2"/><path d="M1201.57,237.9938c6.3834,72.9024,27.6232,84.147,97.5831,51.6616" fill="none" stroke="#000" stroke-linecap="round" stroke-linejoin="round" stroke-width="2"/><path d="M1425.4374,186.3321c-39.424,12.4169-85.878,8.4435-114.5022,46.15-13.31,17.5338-32.429,14.7086-45.9073,10.2887-72.1718-23.6673-139.2909-3.1483-207.0055,18.0452-43.6367,13.6575-64.86-7.9767-57.3586-57.2638" fill="none" stroke="#000" stroke-linecap="round" stroke-linejoin="round" stroke-width="2"/><path d="M1190.09,111.71c-27.6228,39.7447-7.1673,77.0855,5.74,114.8037" fill="none" stroke="#000" stroke-linecap="round" stroke-linejoin="round" stroke-width="2"/><path d="M199.7783,1201.3839c22.2967,35.1518,53.144,67.311,40.1812,114.8036" fill="none" stroke="#000" stroke-linecap="round" stroke-linejoin="round" stroke-width="2"/><path d="M687.6939,1098.0606q5.74,54.5317,11.48,109.0635" fill="none" stroke="#000" stroke-linecap="round" stroke-linejoin="round" stroke-width="2"/><path d="M658.9929,1063.62V1172.683" fill="none" stroke="#000" stroke-linecap="round" stroke-linejoin="round" stroke-width="2"/><path d="M584.3706,994.7373c-10.2861,54.73-8.9709,53.48,28.0663,92.4461,15.2342,16.0276,16.9436,39.9177,12.1149,62.5388" fill="none" stroke="#000" stroke-linecap="round" stroke-linejoin="round" stroke-width="2"/><path d="M745.0957,1143.982c-13.356,74.8407,3.7716,109.0959,57.4018,114.8037" fill="none" stroke="#000" stroke-linecap="round" stroke-linejoin="round" stroke-width="2"/><path d="M937.5218,243.7339c21.0434,13.4094,33.8758,59.6632,68.8822,17.2206" fill="none" stroke="#000" stroke-linecap="round" stroke-linejoin="round" stroke-width="2"/><path d="M989.1834,65.7882c36.405-33.4376,70.8987-32.4684,103.3233,5.74" fill="none" stroke="#000" stroke-linecap="round" stroke-linejoin="round" stroke-width="2"/><line x1="137.5621" y1="1223.5858" x2="155.3482" y2="1115.2216" fill="#ee714a" stroke="#000" stroke-linecap="round" stroke-linejoin="round" stroke-width="2"/></svg>