<svg width="263" height="223"  xmlns="http://www.w3.org/2000/svg" viewBox="0 0 1497.4798 1706.7746"><path d="M926.2984,1328.18c-142.1457,40.6712-284.4747,28.3082-426.7058,3.4293-12.6144-2.2064-21.9094-.3994-30.7852,8.1866-50.6357,48.9844-102.4182,96.94-103.181,175.6256-.2027,20.9626-5.23,41.9325,15.7,56.56,22.0482,15.41,35.4608,34.7682,24.561,62.6547-7.1336,18.2527-23.4358,15.0057-38.72,14.56-31.194-.9095-61.2913-2.9-75.2265-37.8932-13.2467-33.2636-6.9246-67.0616-3.7712-100.9454,1.5319-16.4719,10.1023-32.9935,1.2591-49.944-37.7236,41.0254-47.6177,119.3684-18.0091,159.4685,13.7992,18.6895,34.0247,37.0708,17.3823,59.506-22.1932,29.9178-56.279,9.4083-84.9317,10.3266-25.3571.8128-36.9025-17.9356-37.9354-41.0707-3.1451-70.4433,1.0648-139.9016,32.49-205.04,37.1441-76.9926,28.07-124.3632-38.7918-185.6551-15.7581,52.087-27.7859,104.0563-63.727,144.2529-13.8276,15.4648-27.3339,31.4368-42.7671,45.1785-13.4084,11.9388-32.0263,19.0323-46.0941,4.2852-15.9364-16.706-1.6256-30.8124,11.3219-42.8119,47.0339-43.5895,58.5376-98.9014,54.9129-160.2731-6.7406-114.1415,35.96-209.7867,123.884-279.4331,64.1032-50.7771,134.5763-94.6263,223.3952-94.7238,126.88-.1393,253.9853-5.1361,379.9336,13.0871,64.4648,9.3273,112.89-27.6251,163.354-52.3447,62.2846-30.51,110.0348-84.4207,162.8453-129.8952,72.729-62.6252,175.7462-57.2293,241.1765,9.9539,16.6382,17.084,37.961,15.7815,57.78,19.1635,39.4145,6.7259,71.7274,23.8407,71.8322,66.7293.11,44.6542-26.7495,74.9984-72.5388,80.4822-26.92,3.2239-46.3419,10.3389-56.2693,37.8416-5.5294,15.3207-20.6495,20.6734-36.8872,22.3239-9.2131.9365-25.8853,4.1318-26.0658,7.1067-3.6219,59.6667-57.7054,81.8035-88.06,121.3142-55.1371,71.7684-34.3106,166.48-75.23,244.9667-39.5305,75.8233-18.36,163.361-16.3057,246.12.6323,25.4623,21.9676,37.5853,37.6916,53.8839,27.9185,28.9391,20.6565,52.7688-19.2939,55.25-43.3085,2.69-71.34,46.1514-121.3254,34.3368-40.8139-9.6467-62.0305-22.0839-68.51-66.7342-10.1682-70.0848,4.9033-139.7639-4.2584-209.6107C945.9734,1394.449,942.1,1361.3552,926.2984,1328.18Zm-530.7677,38.5646q7.8318-1.8213,15.6629-3.6423,5.029-5.8363,10.0565-11.6731c17.0866-6.8866,29.7016-17.0307,31.9194-44.1618-23.2893,12.4632-32.9293,24.9208-30.63,45.4038-7.2487.2174-10.5618,3.982-10.289,11.0546-5.8508.9013-11.7023,1.8027-17.3733,2.8362-.0534,10.7716-5.7085,15.8819-16.2376,16.0661-69.26,33.1326-70.86,96.8283-75.4924,161.1083-4.9762,69.0565,8.7481,86.1182,79.907,86.1743,8.3517-12.7962,8.478-28.5388-3.6351-35.268-41.2082-22.8935-30.1216-57.9376-30.2285-94.2872-.1256-42.7642,33.5811-74.5558,30.0952-116.4889C381.4566,1375.08,386.0177,1368.5636,395.5307,1366.7442Zm-350.3,53.0251c63.906-42.2677,83.63-106.791,92.5241-178.2193,9.1736-73.6691,13.6313-150,77.1243-207.4614,12.21,29.2958-12.8087,40.1545-20.1609,57.6307-23.9313,56.8844-50.238,114.3932.9412,169.1793,54.9768,58.851,51.4979,122.24,20.4552,188.8288-32.1664,68.9995-37.56,140.7134-30.3756,215.2862,31.1836,7.1323,57.7825,13.5491,86.4644,2.9183-1.69-8.6356-1.2779-14.7617-3.94-18.9212-56.5885-88.4407-37.1516-187.33,49.428-244.6781,41.3372-27.38,78.85-56.1655,102.3182-102.932,22.3564-44.5514,37.1531-91.0432,47.63-139.8008,22.8159,45.7017-5.08,84.6689-12.563,134.51,148.9586,43.15,296.125,57.48,446.4232,17.0619,21.8455-5.8747,20.1456-24.4115,22.1863-41.1344,4.7964-39.305,14.9945-76.31,43.4307-105.9325-8.9375,55.8806-35.998,107.7442-15.4949,165.7814,21.8767,61.926,17.1928,126.9191,18.4748,191.0963.6407,32.0939-2.1171,64.5724,1.8832,96.2169,8.326,65.8714,38.535,80.7153,116.2167,50.9255-87.1919-55.4811-69.59-139.6222-61.5974-216.44,6.892-66.2377,28.2891-131.7508,77.8885-182.3861-39.8956,97.5453-48.0265,199.7691-46.8861,303.8382.665,60.63,47.617,93.6611,108.7576,64.0265-41.0235-21.3369-61.4578-54.0343-61.1135-96.1809.6413-78.4966-15.0056-158.17,17.7425-234.6338,6.7635-15.7925,15.4408-40.025-19.9818-35.5534-40.61-31.1407-73.6175-68.3314-95.1236-115.0334,29.7565,20.6346,53.02,46.8529,77.1895,72.2067,13.4993,14.16,28.7916,26.2806,49.3662,11.3745,26.1671-18.9564,29.9015-46.854,28.4376-75.9536-1.2911-25.6625,1.0939-50.179-32.694-63.8233-65.1409-26.3043-92.1888-92.058-136.6545-140.42,30.35,6.4014,47.1568,28.2169,64.6751,49.0507,21.8143,25.943,41.331,54.845,73.2247,69.3934,19.5805,8.9323,44.4136,25.7425,61.1975,1.5087,15.8046-22.8208,15.9344-49.2994-11.6891-69.7682-16.938-12.5514-33.6532-28.26-25.8311-60.8088,17.966,19.02,30.2048,35.75,45.9559,47.941,46.3551,35.879,65.0507,28.8565,71.2665-28.5805,2.7439-25.3517,12.976-35.706,36.2146-42.44,54.2716-15.7275,85.5059-74.0044,146.6375-80.2262,11.89-1.21,20.6731-20.8046,20.9327-33.0978-39.6172-54.7611-81.7194-96.9172-153.6606-41.1561,35.8426-59.45,21.3832-87.5243-40.1392-92.3152-44.719-3.4824-86.801,6.47-125.8671,27.4778-32.7939,17.6356-56.0082,42.3353-43.6237,86.8719-23.1254-4.9862-40.1718-32.6906-59.5788-9.0167-16.1134,19.656-2.5169,37.9829,7.6388,56.7078,12.0535,22.2226,20.6308,46.331,34.2031,77.6787-24.9879-12.1237-35.6406-24.5625-41.6434-40.3448-9.8677-25.9414-21.2243-53.2287-54.8685-43.85-30.5214,8.508-29.3434,37.9284-28.7243,73.8908-23.1491-48.4959-55.7181-38.848-82.9042-20.1741-33.0445,22.6982-11.6287,55.2689-3.8253,82.5766,6.8142,23.8472,26.2268,40.9054,42.849,59.2147,13.6763,15.0629,34.2044,28.8777,23.0845,63.2871-37.8749-54.0817-90.7895-89.1106-97.84-155.6731-2.74-25.875-26.04-28.8782-47.0853-32.5636-97.408-17.0578-196.1695-10.719-294.2168-16.7207-60.3326-3.693-120.5272,2.13-179.4084,19.86-55.9826,16.8572-84.6736,69.529-137.6346,96.1146-67.4711,33.87-101.0077,117.197-99.6993,199.2652,1.2216,76.6-3.6928,149.7351-46.8125,215.7259-12.2416-1.7971-20.401.5676-15.75,21.655C37.2261,1432.2819,41.2284,1426.0258,45.2307,1419.7693Z"/><path d="M1313.3824,312.2035c11.8148,21.529,39.9231,10.5891,36.1325,43.74-38.2659,27.2478-81.1827,13.65-113.6748-14.2347-27.2288-23.3679-44.413-13.3025-71.9537-7.1273-65.8465,14.7643-128.0444,48.2811-199.8446,36.5715-82.869-13.5145-165.4783,4.5106-247.6688,12.8323-108.8161,11.0178-216.9686,12.4017-325.042-3.69-49.2764-7.3369-88.7855-32.8844-120.3353-71.8053-40.4466-49.8979-64.9522-51.9925-110.4651-3.9833-34.3143,36.1974-77.7757,46.5839-122.8293,55.31C22.405,362.7793,7.5639,357.024,1.6554,341.0178c-4.1741-11.31.7407-22.699,11.1473-28.7118,58.0068-33.5145,91.4722-98.7289,152.9957-124.9769,53.8341-22.9668,90.3048-57.5718,125.8975-103.4572C331.4681,32.6,392.7265,6.2653,461.2786,3.4169,569.9824-1.1,678.1545-6.71,784.455,27.0214c47.6172,15.11,98.8458,12.96,148.3265,11.243,63.682-2.2095,122.25,21.2008,183.69,29.5221,47.6125,6.4486,94.8712,31.964,135.5092-21.5026,16.0154-21.07,49.9279-14.4609,73.1125-4.2945,24.1566,10.5927,9.8025,27.5423,1.3454,45.1988-7.3986,15.4462,9.9892,25.1876,23.64,31.1994,36.2048,15.9446,65.745,47.1927,110.5382,43.973,16.7594-1.2045,32.3642,10.7992,35.96,29.0555,3.4273,17.4021-2.8707,39.9983-19.4975,41.0534C1409.5557,236.754,1386.0315,318.2967,1313.3824,312.2035Zm-406.7935,32.613c-83.4284-94.63-77.2332-189.0107-11.5227-287.9348-40.3268-3.8038-78.5426-.94-112.3421-11.811C681.8375,12.6212,579.1024,12.9943,475.8525,19.9085,383.8188,26.0716,309.9583,63.6,269.4278,149.1689c8.1771,17.5338,31.9583.6983,35.5859,30.0491-137.1881-24.1-195.3431,89.0971-279.3762,160.9977,107.6561-15.4077,184.5476-117.4474,302.3633-98.2224.2523,25.053-32.7064,23.7158-53.5277,37.3681,36.4064,58.9334,89.5093,81.9507,153.1764,88.45C585.0555,383.8814,740.7657,365.59,906.5889,344.8165ZM1390.8205,187.73c-24.0085-50.077-77.5592-67.8246-138.6288-45.1723-38.3592,14.2285-54.8832,42.96-44.0911,82.8151,14.3473,52.9831,61.4017,77.9679,121.8478,64.8178,42.2492-9.1915,78.7449-25.2879,56.1785-82.8935,23.5945,1.2942,39.7113,34.8421,60.333,8.968,5.1232-6.4278,4.4846-25.2148-1.09-30.9489C1428.3538,167.8112,1408.5986,176.479,1390.8205,187.73Zm-377.5117,168.219c-82.8711-97.377-89.9876-194.213.3936-290.0579-96.6366-13.71-137.2205,23.2376-146.7762,129.7331C859.2253,281.4379,921.9278,352.3322,1013.3088,355.9493Zm72.8791-277.4317c-58.9363,1.1-90,26.6032-104.4573,69.165-22.2221,65.4208-12.9533,126.0993,37.1031,178,21.5862,22.3819,42.11,21.7226,66.7535,5.1688C1022.7183,249.4509,1021.6259,168.3882,1086.1879,78.5176Zm64.6262,246.1607c-47.28-109.7392-47.7951-135.3877-6.5511-226.913-51.5349-1.004-83.86,36.2152-87.7107,100.99C1052.6345,264.664,1093.18,321.4989,1150.8141,324.6783Zm55.42-226.7446c-74.3618,28.6462-99.0474,131.55-45.749,188.5491,11.9738,12.8048,25.642,24.2738,42.7626,13.5848,17.3892-10.857,7.1767-27.8955-.3375-38.6449-28.3686-40.58-23.2171-78.7224,3.7757-116.8025C1217.8415,128.8813,1227.5007,113.21,1206.2337,97.9337Zm36.4321,15.0458c21.0269,7.7078,39.411,2.9491,65.2972-2.1731-29.8642-21.1278,12.7869-33.9648-1.0721-56.83C1267.396,48.8589,1245.1063,63.086,1242.6658,112.98Zm43.253,232.6563c4.2452-38.2389-19.0355-33.8381-45.638-39.6383C1248.307,338.881,1267.0936,341.0326,1285.9188,345.6358Z"/><path d="M1104.5074,1271.2808c-49.62,50.6526-71.0166,116.1657-77.9086,182.4034-7.9929,76.8182-25.5945,160.9593,61.5974,216.44-77.6817,29.79-107.8907,14.9459-116.2167-50.9255-4-31.6445-1.2425-64.123-1.8832-96.2169-1.282-64.1772,3.4019-129.17-18.4748-191.0963-20.5031-58.0372,6.5574-109.9008,15.4949-165.7814-28.4362,29.6227-38.6343,66.6275-43.4307,105.9325-2.0407,16.7229-.3408,35.26-22.1863,41.1344-150.2982,40.4186-297.4646,26.0878-446.4232-17.0619,7.4834-49.8408,35.3789-88.808,12.563-134.51-10.4764,48.7576-25.2731,95.2494-47.63,139.8008-23.4683,46.7665-60.981,75.5516-102.3182,102.932-86.58,57.3478-106.0165,156.2374-49.428,244.6781,2.662,4.1595,2.25,10.2856,3.94,18.9212-28.6819,10.6308-55.2808,4.214-86.4644-2.9183-7.1849-74.5728-1.7908-146.2867,30.3756-215.2862,31.0427-66.5892,34.5216-129.9778-20.4552-188.8288-51.1792-54.7861-24.8725-112.2949-.9412-169.1793,7.3522-17.4762,32.3712-28.3349,20.1609-57.6307-63.493,57.461-67.9507,133.7923-77.1243,207.4614-8.8938,71.4283-28.6181,135.9516-92.5241,178.2193l1.1259,1.214c43.1183-66,48.0327-139.1348,46.8111-215.7346-1.3084-82.0682,32.2282-165.395,99.6993-199.2652,52.961-26.5856,81.652-79.2574,137.6346-96.1146,58.8812-17.73,119.0758-23.5534,179.4084-19.86,98.0473,6.0017,196.8088-.3371,294.2168,16.7207,21.0452,3.6854,44.3449,6.6886,47.0853,32.5636,7.05,66.5625,59.9648,101.5914,97.84,155.6731,11.12-34.4094-9.4082-48.2242-23.0845-63.2871-16.6222-18.3093-36.0348-35.3675-42.849-59.2147-7.8034-27.3077-29.2192-59.8784,3.8253-82.5766,27.1861-18.6739,59.7551-28.3218,82.9042,20.1741-.6191-35.9624-1.7971-65.3828,28.7243-73.8908,33.6442-9.3787,45.0008,17.9086,54.8685,43.85,6.0028,15.7823,16.6555,28.2211,41.6434,40.3448-13.5723-31.3477-22.15-55.4561-34.2031-77.6787-10.1557-18.7249-23.7522-37.0518-7.6388-56.7078,19.407-23.6739,36.4534,4.03,59.5788,9.0167-12.3845-44.5366,10.83-69.2363,43.6237-86.8719,39.0661-21.0082,81.1481-30.96,125.8671-27.4778,61.5224,4.7909,75.9818,32.8657,40.1392,92.3152,71.9412-55.7611,114.0434-13.605,153.6606,41.1561-.26,12.2932-9.0424,31.8875-20.9327,33.0978-61.1316,6.2218-92.3659,64.4987-146.6375,80.2262-23.2386,6.7344-33.4707,17.0887-36.2146,42.44-6.2158,57.437-24.9114,64.46-71.2665,28.5805-15.7511-12.1915-27.99-28.9205-45.9559-47.941-7.8221,32.5486,8.8931,48.2574,25.8311,60.8088,27.6235,20.4688,27.4937,46.9474,11.6891,69.7682-16.7839,24.2338-41.617,7.4236-61.1975-1.5087-31.8937-14.5484-51.41-43.45-73.2247-69.3934-17.5183-20.8338-34.3252-42.6493-64.6751-49.0507,44.4657,48.3621,71.5136,114.1158,136.6545,140.42,33.7879,13.6443,31.4029,38.1608,32.694,63.8233,1.4639,29.1-2.2705,56.9972-28.4376,75.9536-20.5746,14.9061-35.8669,2.7857-49.3662-11.3745-24.1694-25.3538-47.433-51.5721-77.1895-72.2067,21.5061,46.702,54.5131,83.8927,95.1236,115.0334Zm169.7914-465.4392-.8621-.0043c0-22.58.1888-45.1611-.0424-67.7383-.4262-41.647-18.5609-49.8029-53.4275-28.7867-73.8376,44.5062-80.3866,141.0476-12.9961,196.9248,29.9869,24.8643,59.5372,16.61,66.46-21.7762C1278.0165,859.0292,1274.2988,832.1,1274.2988,805.8416Z" fill="#fcfafb"/><path d="M1103.006,1272.7947c35.4226-4.4716,26.7453,19.7609,19.9818,35.5534-32.7481,76.4636-17.1012,156.1372-17.7425,234.6338-.3443,42.1466,20.09,74.844,61.1135,96.1809-61.1406,29.6346-108.0926-3.3964-108.7576-64.0265-1.14-104.0691,6.99-206.2929,46.8965-303.8468C1104.5074,1271.2808,1103.006,1272.7947,1103.006,1272.7947Z" fill="#fcfafb"/><path d="M379.1917,1383.7115c3.58,42.0878-30.1264,73.8794-30.0008,116.6436.1069,36.35-10.98,71.3937,30.2285,94.2872,12.1131,6.7292,11.9868,22.4718,3.6351,35.268-71.1589-.0561-84.8832-17.1178-79.907-86.1743,4.6319-64.28,6.2326-127.9757,75.5868-161.0009A9.6256,9.6256,0,0,1,379.1917,1383.7115Z" fill="#fcfafb"/><path d="M422.5822,1352.6866c-2.342-20.4988,7.298-32.9564,30.5873-45.42-2.2178,27.1311-14.8328,37.2752-31.9194,44.1618Z" fill="#fcfafb"/><path d="M45.2307,1419.7694c-4.0023,6.2564-8.0046,12.5125-14.6252,22.86-4.6513-21.0874,3.5081-23.4521,15.75-21.6507C46.3566,1420.9833,45.2307,1419.7693,45.2307,1419.7694Z" fill="#fcfafb"/><path d="M421.25,1351.429q-5.0279,5.8366-10.0565,11.6728l1.2751.7435c-.4907-7.1925,2.8224-10.9571,10.0926-11.1665C422.5822,1352.6866,421.25,1351.4288,421.25,1351.429Z" fill="#fcfafb"/><path d="M411.1936,1363.1018q-7.8318,1.821-15.6629,3.6424l-.8329-.3148c5.8507-.9013,11.7022-1.8027,17.662-2.6439C412.4687,1363.8453,411.1936,1363.1018,411.1936,1363.1018Z" fill="#fcfafb"/><path d="M395.5307,1366.7442c-9.513,1.8194-14.0741,8.3362-16.2918,17.0446-.0472-.0773-.41-.9463-.5046-1.0537,10.4347-.2916,16.09-5.4019,16.0537-16.2394A5.9461,5.9461,0,0,1,395.5307,1366.7442Z" fill="#fcfafb"/><path d="M906.5889,344.8165C740.7657,365.59,585.0555,383.8814,427.65,367.8118c-63.6671-6.5-116.77-29.517-153.1764-88.45,20.8213-13.6523,53.78-12.3151,53.5277-37.3681-117.8157-19.225-194.7072,82.8147-302.3633,98.2224,84.0331-71.9006,142.1881-185.0981,279.3762-160.9977-3.6276-29.3508-27.4088-12.5153-35.5859-30.0491C309.9583,63.6,383.8188,26.0716,475.8525,19.9085c103.25-6.9142,205.985-7.2873,306.8716,25.1622,33.7995,10.871,72.0153,8.0072,112.3421,11.811C829.3557,155.8058,823.1605,250.1863,906.5889,344.8165Z" fill="#fcfafb"/><path d="M1390.8205,187.73c17.7781-11.2513,37.5333-19.9191,54.55-2.4138,5.5743,5.7341,6.2129,24.5211,1.09,30.9489-20.6217,25.8741-36.7385-7.6738-60.333-8.968,22.5664,57.6056-13.9293,73.702-56.1785,82.8935-60.4461,13.15-107.5005-11.8347-121.8478-64.8178-10.7921-39.8546,5.7319-68.5866,44.0911-82.8151C1313.2613,119.9057,1366.812,137.6533,1390.8205,187.73Z" fill="#fcfafb"/><path d="M1013.3088,355.9493c-91.381-3.6171-154.0835-74.5114-146.3826-160.3248,9.5557-106.4955,50.14-143.4433,146.7762-129.7331C923.3212,161.7363,930.4377,258.5723,1013.3088,355.9493Z" fill="#fcfafb"/><path d="M1086.1879,78.5176c-64.562,89.8706-63.47,170.9333-.6007,252.3338-24.6436,16.5538-45.1673,17.2131-66.7535-5.1688-50.0564-51.9007-59.3252-112.5792-37.1031-178C996.1875,105.1208,1027.2516,79.6173,1086.1879,78.5176Z" fill="#fcfafb"/><path d="M1150.8141,324.6783c-57.6342-3.1794-98.18-60.0143-94.2618-125.9226,3.8508-64.7752,36.1758-101.9944,87.7107-100.99C1103.019,189.2906,1103.5344,214.9391,1150.8141,324.6783Z" fill="#fcfafb"/><path d="M1206.2337,97.9337c21.267,15.2767,11.6078,30.9476.4518,46.6865-26.9928,38.08-32.1443,76.2229-3.7757,116.8025,7.5142,10.7494,17.7267,27.7879.3375,38.6449-17.1206,10.689-30.7888-.78-42.7626-13.5848C1107.1863,229.484,1131.8719,126.58,1206.2337,97.9337Z" fill="#fcfafb"/><path d="M1242.6658,112.98c2.44-49.8935,24.73-64.1206,64.2251-59.0031,13.859,22.8652-28.7921,35.7022,1.0721,56.83C1282.0768,115.9286,1263.6927,120.6873,1242.6658,112.98Z" fill="#fcfafb"/><path d="M1285.9188,345.6358c-18.8252-4.6032-37.6118-6.7548-45.638-39.6383C1266.8833,311.7977,1290.164,307.3969,1285.9188,345.6358Z" fill="#fcfafb"/><path d="M1274.2988,805.8416c0,26.2586,3.7177,53.1876-.8684,78.6193-6.9225,38.386-36.4728,46.64-66.46,21.7762-67.39-55.8772-60.8415-152.4186,12.9961-196.9248,34.8666-21.0162,53.0013-12.86,53.4275,28.7867.2312,22.5772.0424,45.1588.0424,67.7383Zm-26.955,97.4891c14.2441-64.6057,5.097-118.9646-.4547-179.84-33.3652,18.283-68.7,26.801-66.1549,67.2427C1183.45,833.8875,1194.8013,875.2413,1247.3438,903.3307Z"/><path d="M1247.3438,903.3307c-52.5425-28.0894-63.8942-69.4432-66.61-112.5972-2.5447-40.4417,32.79-48.96,66.1549-67.2427C1252.4408,784.3661,1261.5879,838.725,1247.3438,903.3307Z" fill="#fcfafb"/><path d="M466.4842,1164.3008c-1.1058,99.4944-38.1734,178.8572-124.8947,233.46-106.0477,66.7708-121.7023,144.4285-55.2107,270.4492-28.5167,33.6829-68.18,14.1589-98.1173,10.3574-23.088-2.9315-17.2407-40.97-17.4379-65.0508-.45-54.83,8.3885-109.8011,29.8224-158.5932,44.6573-101.6614,40.748-138.1667-41.2206-211.0144" fill="none" stroke="#000" stroke-linecap="round" stroke-linejoin="round" stroke-width="2"/><path d="M1165.8958,1113.1244c22.1989,70.3688-11.9292,130.9206-34.2835,193.2739-30.0653,83.8642-13.6146,170.573-15.2728,255.9731-.31,15.9817,6.0118,43.8991,27.1514,49.9591,20.8924,5.9895,31.4431,15.154,27.6386,35.2179-5.2434,27.6553-29.1595,13.263-44.9938,17.3156-5.6655,1.45-10.8284,4.86-15.4159,7-69.4208-61.092-95.059-184.2657-58.2912-280.0127,15.513-40.3977,33.8594-79.7072,50.9182-119.5112" fill="none" stroke="#000" stroke-linecap="round" stroke-linejoin="round" stroke-width="2"/><path d="M259.1315,270.7864c41.1088,87.3206,120.085,105.1641,205.032,110.6779,148.5558,9.6425,295.65-12.3917,443.1735-23.4712,12.3174-.9251,29.8811-7.7776,38.2909-3.0187,57.1546,32.3435,105.0884-2.379,155.7582-17.6943" fill="none" stroke="#000" stroke-linecap="round" stroke-linejoin="round" stroke-width="2"/><path d="M901.9047,49.14C794.4841,49.6048,693.7268-3.0783,586.154,5.9421,501.2923,13.0582,412.67-3.3435,334.9807,58.0374c-37.3683,29.5249-61.12,62.4832-81.39,101.926" fill="none" stroke="#000" stroke-linecap="round" stroke-linejoin="round" stroke-width="2"/><path d="M949.8174,1084.693c-26.5322-54.09-91.6592-86.22-87.0509-159.3264C863.72,910.2322,835,899.3279,818.9526,898.09c-159.0824-12.2749-319.3573-38.27-477.2777.1428C189.6955,935.2,78.9034,1083.1032,80.613,1238.2135c.7684,69.7523-1.4576,135.4962-63.4291,181.8565-8.737,6.536-5.9542,15.2765-5.0144,22.7847.5262,4.1994,6.9947,7.6549,12.4617,13.1222,84.4264-58.0058,121.8682-140.99,129.1024-240.5,4.568-62.8412,13.8186-123.95,62.5545-170.5878" fill="none" stroke="#000" stroke-linecap="round" stroke-linejoin="round" stroke-width="2"/><path d="M472.1705,1323.5165c-56.4262,53.5519-113.8116,105.0208-115.5761,193.2963-.4491,22.5138-3.8447,44.9549,13.9492,55.6975,24.5,14.7925,33.1549,33.824,26.7766,57.818-4.8318,18.1767-25.6889,13.6165-38.7211,10.8851-26.56-5.5658-55.5057-6.9065-63.6881-44.5416-7.6361-35.12,3.55-68.3539,2.62-102.6115-.4046-14.8989,7.6965-30.2825-1.6346-45.4458" fill="none" stroke="#000" stroke-linecap="round" stroke-linejoin="round" stroke-width="2"/><path d="M303.4607,171.0457c-93.57-18.0059-161.087,26.3821-215.2756,94.8559-22.7645,28.7662-63.1874,35.9072-80.75,69.92,32.13,19.98,87.363,22.8331,116.7172-11.3354,44.0688-51.2962,95.5862-66.8228,157.1164-64.14,20.1645.8791,27.2465-13.0387,38.8158-22.807" fill="none" stroke="#000" stroke-linecap="round" stroke-linejoin="round" stroke-width="2"/><path d="M932.7586,1323.5165c36.7061,64.4535,27.85,136.601,25.56,204.6092-1.45,43.0678,3.2631,84.0339,9.5178,125.0482,6.9378,45.4919,80.12,57.7163,124.1381,22.8915" fill="none" stroke="#000" stroke-linecap="round" stroke-linejoin="round" stroke-width="2"/><path d="M1239.8174,715.0852c-79.5953,44.6356-92.386,125.9-28.3765,181.8982,26.1088,22.8416,48.8143,17.2005,49.91-17.035,1.7562-54.8935,12.041-111.1656-10.1606-164.8632" fill="none" stroke="#000" stroke-linecap="round" stroke-linejoin="round" stroke-width="2"/><path d="M1461.5821,766.2617c41.5663,49.4579,25.845,96.1324-40.0212,106.6832-26.8113,4.2947-46.7237,9.6883-56.5268,35.5186-14.4732,38.1327-57.5256,17.8209-79.7258,39.7606,1.1932,71.9-12.4249,87.7882-70.5849,79.2618-9.8177,24.6183,7.8026,64.7259-31.9187,73.5947-37.76,8.4312-66.4784-10.57-91.131-38.8707-29.0429-33.3407-60.3528-64.7067-90.68-96.9289" fill="none" stroke="#000" stroke-linecap="round" stroke-linejoin="round" stroke-width="2"/><path d="M966.8763,1169.9871c-11.3726,28.4314-34.6424,58.1483-31.7368,85.0369,6.8586,63.4778-30.6859,72.9564-76.3073,79.8315-124.3109,18.7341-247.43,14.5857-369.8361-16.096-17.281-4.3317-28.1142-12.922-39.5707-23.6744" fill="none" stroke="#000" stroke-linecap="round" stroke-linejoin="round" stroke-width="2"/><path d="M1455.8958,754.8891c-47.8009-17.1982-95.2652-30.3185-132.3787-72.52-32.0242-36.4145-180.4011-2.7874-209.167,49.5717-6.9968,12.7351-18.5852,22.948-28.0621,34.3206" fill="none" stroke="#000" stroke-linecap="round" stroke-linejoin="round" stroke-width="2"/><path d="M1234.3737,132.2576c-10.2449-24.68-8.3571-59.2262-56.2665-41.04-20.7631,7.8819-51.91-5.9668-76.506-14.96-53.2625-19.4746-87.681.3134-117.0365,44.6148-45.3052,68.3741-27.8741,154.8293,50.3276,233.0312" fill="none" stroke="#000" stroke-linecap="round" stroke-linejoin="round" stroke-width="2"/><path d="M1101.3861,82.3873c-71.1975,86.9626-72.1709,172.7186-6.0471,238.7758,27.0726,27.0454,48.529,27.5577,72.5409-.5064" fill="none" stroke="#000" stroke-linecap="round" stroke-linejoin="round" stroke-width="2"/><path d="M1034.8923,65.7639c-76.4275-43.561-154.7456-8.2612-173.8914,88.2386-16.1439,81.3753,11.71,139.469,63.0684,194.36" fill="none" stroke="#000" stroke-linecap="round" stroke-linejoin="round" stroke-width="2"/><path d="M1162.3387,104.5519c-47.1883,56.3842-51.3983,140.4367-11.363,188.6325,25.2369,30.3812,50.1071,29.9321,77.8568,5.3077" fill="none" stroke="#000" stroke-linecap="round" stroke-linejoin="round" stroke-width="2"/><path d="M1456.02,226.4572c-50.42,5.2219-66.489,61.9695-116,73.585-68.1185,15.9808-128.785-8.82-143.6241-73.77-7.7293-33.8326-.19-67.46,32.5455-88.3037,32.9438-20.9768,124.3586-17.6995,153.7127,12.2187,18.31,18.6622,38.5026,14.9,57.0565,19.626,31.5918,8.0462,40.8775,21.8568,27.3919,51.1029" fill="none" stroke="#000" stroke-linecap="round" stroke-linejoin="round" stroke-width="2"/><path d="M1323.0321,115.6342c-16.3313-18.6433-21.3793-36.0329,7.5068-48.3876-49.077-37.0233-64.539-33.5872-101.7064,20.6818" fill="none" stroke="#000" stroke-linecap="round" stroke-linejoin="round" stroke-width="2"/><path d="M1012.3664,1158.6145c35.3859,41.8346,58.8091,98.29,125.0981,102.353" fill="none" stroke="#000" stroke-linecap="round" stroke-linejoin="round" stroke-width="2"/><path d="M1086.288,914.1047c-9.4769-18.9543-18.14-38.3717-28.5993-56.7673-22.1378-38.9295-58.3565-48.187-83.7108-16.0379-16.2044,20.5456-33.81,16.6713-52.13,22.9711-25.3224,8.7074-56.4546,13.2306-68.6969,44.1479" fill="none" stroke="#000" stroke-linecap="round" stroke-linejoin="round" stroke-width="2"/><path d="M1103.3468,783.3205c-51.5193-28.98-58.959-24.9742-73.9215,39.8039" fill="none" stroke="#000" stroke-linecap="round" stroke-linejoin="round" stroke-width="2"/><path d="M1160.21,965.2812q16.91,39.9529,56.8627,56.8628" fill="none" stroke="#000" stroke-linecap="round" stroke-linejoin="round" stroke-width="2"/><path d="M1364.9154,732.1441q-19.9023,17.0589-39.8039,34.1177" fill="none" stroke="#000" stroke-linecap="round" stroke-linejoin="round" stroke-width="2"/></svg>