<svg width="263" height="223" xmlns="http://www.w3.org/2000/svg" viewBox="0 0 1492.6395 1657.0499"><path d="M164.5123,1218.2689C126.6962,1308.14,92.8965,1383.6483,1.5555,1414.4251c-7.5162-36.26,13.9-51.1386,28.0219-66.4254,64.5026-69.8227,96.9687-153.4015,116.99-244.7781,35.5238-162.1253,116.1853-227.52,282.45-238.2655,139.6211-9.0235,279.213-.9719,418.78-.57,63.8651.1839,116.1245-15.6553,157.6574-64.8042,43.0279-50.9179,104.0943-80.61,149.7242-130.19,42.0541-45.6951,140.6878-33.5426,185.5608,14.63,21.8025,23.4055,43.13,41.5966,77.3436,41.9566,30.2145.3178,71.3652-12.2777,74.3228,38.11,2.7529,46.9-18.8954,82.915-65.719,95.301-38.5961,10.21-78.7054,15.7148-119.3421,9.6756-12.2606-1.8222-27.4371-13.6117-37.097.9949-35.4569,53.6146-99.8058,90.9849-93.6387,168.2879,5.207,65.2712-12.0586,126.8935-48.8061,179.228-24.9337,35.51-31.8847,70.8551-32.7154,111.7416-1.047,51.5272-6.927,102.9392-9.7668,154.4533-1.6913,30.6773-8.6744,58.3981,32.2966,78.8482,35.9035,17.92,18.1563,76.5509-22.9889,88.2511-72.7458,20.6864-110.575-11.1666-102.6361-86.4324,5.4056-51.2484,13.94-102.3977,15.5525-153.7645,2.838-90.399.8054-97.12-97.2373-116.5031-100.4187-19.8527-189.1527-56.6475-273.2217-111.4774-27.019-17.6217-55.7007-33.9757-85.7075-45.459-56.4255-21.5933-95.8629-6.2857-122.4524,49.1759-30.8463,64.3406-95.9087,110.81-96.3514,191.263-.3228,58.6773-12.4192,117.1337,37.7981,165.9753,28.8764,28.0852,3.5836,55.0918-23.3627,58.4219-46.0917,5.696-90.2535,14.172-134.3984,28.8272-26.9694,8.9535-44.9793-7.3711-53.984-36.6115-20.6239-66.9717-34.91-128.798,8.62-196.66C198.91,1348.2658,185.2413,1287.2122,164.5123,1218.2689ZM38.3745,1361.7081c7.3581,1.7937,13.2532,1.2394,13.4853-8.4028,9.0907,3.2675,12.5741-.7228,12.336-9.53,23.03-5.9823,31.4877-23.4069,35.0063-44.7294,17.1785-9.3241,4.667-21.7986,3.5089-33.0684,6.4131-4.0741,16.248-4.78,15.7548-15.7067,11.5961,2.8881,13.3589-9.5678,20.3988-13.2817-1.5029-2.5939-8.5145-4.9854-.2916-7.9366q-.3393,4.22-.6787,8.4407-8.9262,7.0887-17.8522,14.1771c-4.5228,6.317-6.5455,15.6178-17.2837,14.5929q-1.1269,16.9593-2.254,33.9185c-20.6367,7.8726-31.1544,23.7366-35.272,44.6583-7.6455-1.0439-10.745,3.4135-12.039,10.0777-5.4165,2.7084-10.8329,5.4168-16.0108,8.0736q.4128,1.2153.8258,2.4307Q38.1914,1363.565,38.3745,1361.7081Zm115.0589-208.1039c23.0267,1.1052,13.6745-12.1845,9.1913-28.4838-4.285,12.5839-7.0737,20.7734-9.81,29.1514.4789,2.6766.9578,5.3529.8919,4.9842C153.7154,1159.4332,153.5743,1156.5187,153.4334,1153.6042ZM323.87,1339.4849c-36.1632-7.0824-43.6747,18.0808-42.63,43.5459,1.9662,47.9178-6.8329,94.6708-9.2209,141.98-1.0248,20.3033-13.4033,47.8858,15.8368,59.9785,26.4671,10.9459,51.6728,6.8692,75.4588-18.58-69.341-66.0069-53.7331-146.9092-39.2159-227.8262l-3.0451-2.8773Zm1014.518-615.3071,1.6165,1.6657c-8.3743-34.2593-27.1937-53.09-71.1365-43.8551,16.3382,56.1287-37.4367,132.9107,42.5044,165.2044,68.167,27.537,137.0548-7.21,154.4288-57.1309C1430.0357,754.2635,1386.4744,734.6859,1338.3879,724.1778Zm-1148.8718,495.46-2.1589-15.6219c-1.5944.896-4.3556,1.5589-4.589,2.727-1.2679,6.3444.64,11.0559,7.9825,11.8332,6.3228,63.9359,30.851,131.7973-5.9123,190.2557-36.2467,57.6369-29.9247,110.0388-11.1264,168.5707,14.3276,44.6117,34.77,49.3858,72.1838,18.6253-76.5365-134.1885-17.1044-231.7872,86.6721-316.7166,4.4274-3.6232,9.029-7.114,13.0037-11.1977C413.614,1198.207,471.5883,1100.94,410.72,1002.821c-3.9364-6.3454-9.7011-17.3785,7.6387-25.2765,28.883,40.2117,36.4415,87.9194,41.8962,135.42,19.0062-.6242,34.0894,2.404,48.15-8.413-5.4233-20.2661-36.5615-20.61-36.44-52.76l152.941,92.5885-1.34-.4572c7.8044,15.3071,25.7373,13.838,37.4773,22.6266l-1.3076-.1047c4.1415,9.3882,9.857,9.8523,16.6154,3.1018l-1.3275.8272c-3.1192-26.4877-6.3575-52.99,7.58-92.702,17.3889,51.9908,5.9153,97.3876,38.5623,131.6085,16.06-23.1168-17.3908-54.4564,19.5976-74.8653,2.6587,40.6952,5.4829,78.7648,38.32,104.7065,19.9385-21.178-15.343-45.36,7.7826-64.1661,45.733,83.9486,45.733,83.9486,88.86,81.6594-3.3724-18.9389-17.8631-37.2347-4-63.3619,19.9348,24.7279,19.7526,56.7374,43.0447,75.5088,34.126-29.9753,33.2766-70.7505,46.4087-105.48,14.2555-37.7009,13.4521-73.8749-3.0914-111.0667-14.61-32.8451-26.56-67.1242-15.1412-115.3266,56.8208,149.5375,57.2693,149.6469,25.7017,278.9354-4.8026,19.67-7.4576,31.9908,10.88,49.1057,34.7135,32.3991,47.4329,76.8674,49.2018,124.5522,2.1473,57.8861-11.5313,113.7847-19.0173,170.47-8.5912,65.0562,14.1449,86.1287,77.2709,72.2435,13.7641-3.0274,27.4538-6.9039,29.7905-22.1274,2.4116-15.7133-2.1992-34.6378-19.6037-36.1536-43.39-3.7793-33.6276-35.2718-32.6681-59.5439,4.0716-103.0128,17.1538-205.6143,13.4791-309.0315-.4006-11.2767-9.1386-27.1319,9.346-33.8634,19.1624,5.9947,3.0364,31.78,23.2377,41.0137,71.9764-131.5811-70.4866-178.3248-112.5243-272.4886,35.7473,31.2789,61.491,56.3724,89.8962,77.9649,30.7582,23.3812,47.5568,55.5983,60.8469,92.8877,41.126-97.4158-59.5143-131.2644-89.1121-208.6852,46.163,23.7847,59.8009,67.1287,99.5036,85.3626,11.95-42.7936,56.82-59.67,66.1929-103.7832-50.9948-37.0123-100.9949-74.3666-109.0809-143.6974-42.7826,18.457-72.9349,45.336-99.4149,75.215-45.48,51.3177-101.0677,70.351-168.6107,67.7095-103.0342-4.0295-206.2407-3.4264-309.3419-6.0491-63.7372-1.6214-123.71,22.8223-185.157,27.6233-113.206,8.8453-197.3761,115.3685-167.5735,220.0024,11.1889,39.2832,29.2821,74.1256,44.6075,110.9045,8.9466,21.47,23.2139,45.5355,1.0216,74.6875C218.9457,1273.6639,223.2476,1237.55,189.5161,1219.6379ZM1259.195,860.1488c-7.7358-54.4-14.9741-106.7515-11.5184-159.3589.3738-5.69.761-11.5442-.1251-17.1211-3.379-21.27-18.1416-31.3451-36.7133-24.215-35.795,13.7427-70.3413,29.1916-67.89,79.2476C1145.7869,796.6652,1184.8925,842.4178,1259.195,860.1488Zm-1002.7058,535.8c-30.5543,47.619-29.3167,90.9606-15.0348,144.9754C261.625,1490.2944,265.22,1447.4274,256.4892,1395.9483Zm708.6717-116.0418c-2.0174-3.1029-3.6516-6.5639-6.14-9.2258-3.9016-4.1733-7.4673-3.0824-7.61,2.5619-.0818,3.2294,1.618,8.04,4.0249,9.3364C957.567,1283.7273,961.7863,1280.9994,965.1609,1279.9065Z"/><path d="M1185.5414,240.3132c-147.4526,38.48-294.88,61.7355-442.0913,35.2209-82.06-14.78-163.8034-19.0764-245.7651-27.622-11.3345-1.1818-21.35-5.3158-32.5031,1.7585-70.2408,44.553-136.2338,21.0989-198.5339-16.8457-83.7031-50.98-178.5015-33.1005-235.9862,48.4788-4.386,6.2245-6.9213,13.7534-11.6871,23.47C-14.497,246.5216-1.7782,185.2029,46.069,146.1611c14.5582-11.879,31.3879-23.7374,49.0907-28.5155C167.2812,98.18,233.4444,75.4145,297.7289,28.8716,345.2637-5.5442,423.7737-13.149,492.0127,27.93c37.96,22.8515,93.6017,22.3731,132.1427,5.5479C736.42-15.5316,846.2672,2.3393,959.99,20.2224c78.7343,12.3811,150.2708,43.3216,224.434,68.8288,16.4609-76.49,61.7678-93.95,148.7645-60.0468,5.4273,18.51-15.6678,29.3056-14.5842,47.7516,22.11,13.2483,39.95,33.8808,70.3637,31.0037a132.0863,132.0863,0,0,1,50.5237,5.48c20.496,6.3963,28.4462,23.4684,26.8414,45.1893-1.8686,25.2948-15.9218,38.6558-40.1145,39.79-45.3017,2.1237-87.3145,10.3112-115.6221,54.0665l27.7042,23.7446C1271.6643,338.2922,1209.9247,325.5691,1185.5414,240.3132Zm-118.1485,6.2c15.3465-17.2219-20.2958-26.6917-7.4517-43.8775,70.7384,38.8239,70.7384,38.8239,118.175,8.2075-28.7977-32.9392,17.2643-86.8691-28.45-112.4837-35.9471-20.1421-77.8076,3.1507-131.417,7.9388L1072.4,68.5379c-33.527-34.6819-60.398-.9507-89.8863,5.6543-4.06-17.404-9.2015-31.4041-29.1193-35.32C845.0315,17.57,736.6394-7.6647,633.7956,58.5284c-13.1862,8.487-26.6606,3.1336-38.7093-.1421-38.3812-10.4347-75.0015-5.2479-109.5894,10.6779-45.8826-75.1585-177.4695-55.0173-236.47,33.1216,32.1377,29.5621,26.6361,63.0556,7.7165,95.901,89.5025,74.1222,151.9981,74.3783,235.1284-.84,3.0363,42.4739,33.7721,35.0365,60.5852,38.0721,37.8039,4.28,79.3838-23.2615,110.9251-3.4555,76.4049,47.9776,158.7759,27.7343,239.0111,34.3211,27.2183,2.2344,19.2383-27.866,33.5506-33.1478,20.7389,5.294,23.92,33.76,48.6412,28.2118,6.3006-18.6067-12.327-42.4741,14.6724-60.1039C1007.38,239.9744,1023.7815,265.8831,1067.3929,246.5136Zm261.9994-69.98c28.1,11.8423,54.8379,14.7127,81.87-.629-.3676-16.7792,6.41-33.8163-7.307-47.3408-16.2949,0-31.4282-.5031-46.5036.2146-7.4182.3532-14.7288,2.966-22.2455,4.59-20.8575-37.8465-61.0071-49.74-108.6471-35.0988-39.0974,12.0161-38.8042,41.2808-36.5027,72.6142,3.5219,47.9472,40.4216,55.533,76.715,59.84C1304.1625,235.1622,1327.4718,217.6036,1329.3923,176.5335ZM22.7137,251.7726c33.6462-52.91,79.9449-60.2,128.7807-62.7263,24.5431-1.27,49.27-3.5094,73.3122-8.3162,15.4207-3.083,26.8087-12.9876,24.5534-32.5891-1.7917-15.5722-9.8477-24.92-23.9385-28.097C134.2477,99.49,14.5667,158.1421,22.7137,251.7726ZM1306.4718,44.08c-68.296-17.3508-80.0031-13.6744-94.47,34.96C1243.5787,60.4626,1286.3467,91.7141,1306.4718,44.08Zm-9.6454,230.5643c-22.5935-31.5873-52.3693-22.4641-79.2395-29.9984C1223.7934,303.8131,1240.5466,310.0105,1296.8264,274.644Z"/><path d="M676.6028,1169.42c-7.01,6.8775-12.7258,6.4134-17.1919-3.1151,3.26-39.577,1.84-78.3993-10.8894-115.8076-5.7066,40.0035-29.732,82.6433,12.5216,116.0526-11.74-8.7886-29.6729-7.3195-37.7726-22.8382,12.5015-46.0992-12.799-83.5717-28.766-123.6606-2.3569,10.0669-4.7137,20.1339-7.8728,33.6276-8.1077-23.895,4.8414-47.6341-11.4334-66.5666-17.6521,8.11-11.4,23.2633-14.21,35.3708-13.7393,59.1909,48.5074,78.22,63.9177,121.8976l-152.941-92.5885c-.1215,32.15,31.0167,32.4937,36.44,52.76-14.06,10.817-29.1437,7.7888-48.15,8.413-5.4547-47.5011-13.0132-95.2088-41.8962-135.42-17.34,7.898-11.5751,18.9311-7.6387,25.2765,60.868,98.1188,2.8937,195.386-65.1487,265.2926-3.9747,4.0837-8.5763,7.5745-13.0037,11.1977-103.7765,84.9294-163.2086,182.5281-86.6721,316.7166-37.414,30.76-57.8562,25.9864-72.1838-18.6253-18.7983-58.5319-25.12-110.9338,11.1264-168.5707,36.7633-58.4584,12.2351-126.32,5.9123-190.2557l-1.2867,1.1081c33.7836,17.8652,29.4817,53.98,42.3548,90.4587,22.1923-29.152,7.925-53.2172-1.0216-74.6875-15.3254-36.7789-33.4186-71.6213-44.6075-110.9045-29.8026-104.6339,54.3675-211.1571,167.5735-220.0024,61.4471-4.801,121.42-29.2447,185.157-27.6233,103.1012,2.6227,206.3077,2.02,309.3419,6.0491,67.543,2.6415,123.131-16.3918,168.6107-67.7095,26.48-29.879,56.6323-56.758,99.4149-75.215,8.086,69.3308,58.0861,106.6851,109.0809,143.6974-9.373,44.113-54.2429,60.99-66.1929,103.7832-39.7027-18.2339-53.3406-61.5779-99.5036-85.3626,29.5978,77.4208,130.2381,111.2694,89.1121,208.6852-13.29-37.2894-30.0887-69.5065-60.8469-92.8877-28.4052-21.5925-54.1489-46.686-89.8962-77.9649,42.0377,94.1638,184.5007,140.9075,112.5243,272.4886-20.2013-9.2339-4.0753-35.019-23.2377-41.0137-18.4846,6.7315-9.7466,22.5867-9.346,33.8634,3.6747,103.4172-9.4075,206.0187-13.4791,309.0315-.9595,24.2721-10.7219,55.7646,32.6681,59.5439,17.4045,1.5158,22.0153,20.44,19.6037,36.1536-2.3367,15.2235-16.0264,19.1-29.7905,22.1274-63.126,13.8852-85.8621-7.1873-77.2709-72.2435,7.486-56.685,21.1646-112.5836,19.0173-170.47-1.7689-47.6848-14.4883-92.1531-49.2018-124.5522-18.3377-17.1149-15.6827-29.4358-10.88-49.1057,31.5676-129.2885,31.1191-129.3979-25.7017-278.9354-11.4187,48.2024.5312,82.4815,15.1412,115.3266,16.5435,37.1918,17.3469,73.3658,3.0914,111.0667-13.1321,34.73-12.2827,75.505-46.4087,105.48-23.2921-18.7714-23.11-50.7809-43.0447-75.5088-13.8636,26.1272.6271,44.423,4,63.3619-43.1269,2.2892-43.1269,2.2892-88.86-81.6594-23.1256,18.8057,12.1559,42.9881-7.7826,64.1661-32.8368-25.9417-35.661-64.0113-38.32-104.7065-36.9884,20.4089-3.5373,51.7485-19.5976,74.8653-32.647-34.2209-21.1734-79.6177-38.5623-131.6085-13.9374,39.7122-10.6991,66.2143-7.58,92.702Zm-382.58,44.5218c-25.7723-55.3608-74.5871-98.2761-80.0966-163.776C199.2589,1125.1272,245.8861,1170.2753,294.0225,1213.942Zm88.1889-53.1306c41.3528-83.1429,32.8147-126.8862-31.6051-146.6037C404.626,1058.6931,380.3208,1111.4942,382.2114,1160.8114Z" fill="#fcfafb"/><path d="M1338.3879,724.1778c48.0865,10.5081,91.6478,30.0857,127.4132,65.8841-17.374,49.9208-86.2618,84.6679-154.4288,57.1309-79.9411-32.2937-26.1662-109.0757-42.5044-165.2044,43.9428-9.2352,62.7622,9.5958,71.13,43.8415-17.3617-4.4788-34.0962-7.9084-34.5325,21.8505C1324.8583,748.4488,1342.8806,752.7744,1338.3879,724.1778Z" fill="#fcfafb"/><path d="M1259.195,860.1488c-74.3025-17.731-113.4081-63.4836-116.2466-121.4474-2.4515-50.056,32.0948-65.5049,67.89-79.2476,18.5717-7.13,33.3343,2.9452,36.7133,24.215.8861,5.5769.4989,11.4315.1251,17.1211C1244.2209,753.3973,1251.4592,805.7491,1259.195,860.1488Z" fill="#fcfafb"/><path d="M324.21,1338.7474c-14.6287,80.7525-30.2366,161.6548,39.1044,227.6617-23.786,25.4494-48.9917,29.5261-75.4588,18.58-29.24-12.0927-16.8616-39.6752-15.8368-59.9785,2.388-47.3092,11.1871-94.0622,9.2209-141.98-1.0448-25.4651,6.4667-50.6283,42.63-43.5459Z" fill="#fcfafb"/><path d="M256.4892,1395.9483c8.7305,51.4791,5.1358,94.3461-15.0348,144.9754C227.1725,1486.9089,225.9349,1443.5673,256.4892,1395.9483Z" fill="#fff"/><path d="M65.2362,1344.8394c4.1138-20.9214,14.6315-36.7854,35.2682-44.658l-1.2413-1.068c-3.58,21.2547-12.0369,38.6793-35.0673,44.6616Z" fill="#fff"/><path d="M152.7623,1154.0834c2.7887-8.19,5.5774-16.3791,9.8624-28.963,4.4832,16.2993,13.8354,29.589-9.1913,28.4838Z" fill="#ed6234"/><path d="M965.1221,1279.9445c-3.3358,1.0549-7.5551,3.7828-9.6865,2.6345-2.4069-1.2967-4.1067-6.107-4.0249-9.3364.1426-5.6443,3.7083-6.7352,7.61-2.5619C961.5093,1273.3426,963.1435,1276.8036,965.1221,1279.9445Z" fill="#fcfafb"/><path d="M153.4334,1153.6042c.1409,2.9145.282,5.829.2734,5.6518.0659.3687-.413-2.3076-.9182-5.0784C152.7623,1154.0834,153.4334,1153.6042,153.4334,1153.6042Z" fill="#fff"/><path d="M118.2877,1250.15c.6713,11.0467-9.1636,11.7528-15.5787,15.8535a1.2787,1.2787,0,0,0,.032.162c10.7556,1.122,12.7783-8.1788,17.3011-14.4958Z" fill="#fff"/><path d="M120.0421,1251.67q8.9261-7.0887,17.8522-14.1771l1.2957-.5038c-7.3653,3.7136-9.1281,16.1695-20.8133,13.2213C118.2877,1250.15,120.0421,1251.67,120.0421,1251.67Z" fill="#fff"/><path d="M190.7507,1218.5762c-7.3428-.7773-9.25-5.4888-7.9825-11.8332.2334-1.1681,2.9946-1.831,4.589-2.727q1.0794,7.811,2.1328,15.645C189.464,1219.6843,190.7507,1218.5762,190.7507,1218.5762Z" fill="#fcfafb"/><path d="M100.5044,1300.1814q1.1269-16.9593,2.2454-33.967c-.0088-.0486-.0427-.184-.0408-.2106,1.16,11.2432,13.6716,23.7177-3.4764,33.0756C99.2631,1299.1134,100.5044,1300.1814,100.5044,1300.1814Z" fill="#fff"/><path d="M137.8943,1237.4929q.3393-4.22.6787-8.4407c-8.2229,2.9512-1.2113,5.3427.4542,7.9368A7.6849,7.6849,0,0,1,137.8943,1237.4929Z" fill="#fff"/><path d="M64.1958,1343.775c.2381,8.8075-3.2453,12.7978-12.3074,9.5807.0286.05,1.2526,1.4761,1.2526,1.4761,1.3464-6.5786,4.4459-11.036,12.0933-9.9923Z" fill="#fff"/><path d="M36.9441,1363.0426c5.4164-2.7084,10.8328-5.4168,16.2231-8.1681-.0262-.0427-1.25-1.4683-1.2788-1.5188-.2607,9.5918-6.1558,10.1461-13.5139,8.3524Z" fill="#fff"/><path d="M38.3746,1361.7081q-.1832,1.8567-.3662,3.7136a18.531,18.531,0,0,0-.945-2.405A17.3108,17.3108,0,0,1,38.3746,1361.7081Z" fill="#fff"/><path d="M675.0234,1170.3744c.4425-.2757.885-.5514,1.4534-.8906C676.6028,1169.42,675.0234,1170.3744,675.0234,1170.3744Z" fill="#fff"/><path d="M323.87,1339.4849l-2.8162-3.7793s3.0451,2.8773,3.1008,2.9595S323.87,1339.4849,323.87,1339.4849Z" fill="#fff"/><path d="M1067.3929,246.5136c-43.6114,19.37-60.013-6.5392-68.1355-45.3692-26.9994,17.63-8.3718,41.4972-14.6724,60.1039-24.7209,5.5478-27.9023-22.9178-48.6412-28.2118-14.3123,5.2818-6.3323,35.3822-33.5506,33.1478-80.2352-6.5868-162.6062,13.6565-239.0111-34.3211-31.5413-19.806-73.1212,7.7354-110.9251,3.4555-26.8131-3.0356-57.5489,4.4018-60.5852-38.0721-83.13,75.2185-145.6259,74.9624-235.1284.84,18.92-32.8454,24.4212-66.3389-7.7165-95.901,59-88.1389,190.5874-108.28,236.47-33.1216,34.5879-15.9258,71.2082-21.1126,109.5894-10.6779,12.0487,3.2757,25.5231,8.6291,38.7093.1421C736.6394-7.6647,845.0315,17.57,953.3943,38.8725c19.9178,3.9156,25.059,17.9157,29.1193,35.32,29.4883-6.605,56.3593-40.3362,89.8863-5.6543l-54.151,37.7608c53.6094-4.7881,95.47-28.0809,131.417-7.9388,45.7146,25.6146-.3474,79.5445,28.45,112.4837-47.4366,30.6164-47.4366,30.6164-118.175-8.2075C1047.0971,219.8219,1082.7394,229.2917,1067.3929,246.5136Z" fill="#fcfafb"/><path d="M1329.3923,176.5335c-1.92,41.07-25.23,58.6287-62.6211,54.1909-36.2934-4.3075-73.1931-11.8933-76.715-59.84-2.3015-31.3334-2.5947-60.5981,36.5027-72.6142,47.64-14.6414,87.79-2.7477,108.6471,35.0988,7.5167-1.6242,14.8273-4.237,22.2455-4.59,15.0754-.7177,30.2087-.2146,46.5036-.2146,13.7167,13.5245,6.9394,30.5616,7.307,47.3408C1384.23,191.2462,1357.4918,188.3758,1329.3923,176.5335Z" fill="#fcfafb"/><path d="M22.7137,251.7726C14.5667,158.1421,134.2477,99.49,225.4215,120.044c14.0908,3.1765,22.1468,12.5248,23.9385,28.097,2.2553,19.6015-9.1327,29.5061-24.5534,32.5891-24.0425,4.8068-48.7691,7.0466-73.3122,8.3162C102.6586,191.5728,56.36,198.863,22.7137,251.7726Z" fill="#fcfafb"/><path d="M1306.4718,44.08c-20.1251,47.6344-62.8931,16.3829-94.47,34.96C1226.4687,30.4053,1238.1758,26.7289,1306.4718,44.08Z" fill="#fcfafb"/><path d="M1296.8264,274.644c-56.28,35.3665-73.033,29.1691-79.2395-29.9984C1244.4571,252.18,1274.2329,243.0567,1296.8264,274.644Z" fill="#fcfafb"/><path d="M624.9061,1144.3807c-15.41-43.6778-77.657-62.7067-63.9177-121.8976,2.81-12.1075-3.4422-27.2612,14.21-35.3708,16.2748,18.9325,3.3257,42.6716,11.4334,66.5666,3.1591-13.4937,5.5159-23.5607,7.8728-33.6276,15.967,40.0889,41.2675,77.5614,28.766,123.6606A12.1151,12.1151,0,0,0,624.9061,1144.3807Z"/><path d="M294.0225,1213.942c-48.1364-43.6667-94.7636-88.8148-80.0966-163.776C219.4354,1115.6659,268.25,1158.5812,294.0225,1213.942Z"/><path d="M382.2114,1160.8114c-1.8906-49.3172,22.4146-102.1183-31.6051-146.6037C415.0261,1033.9252,423.5642,1077.6685,382.2114,1160.8114Z"/><path d="M661.0431,1166.55c-42.2536-33.4093-18.2282-76.0491-12.5216-116.0526,12.7291,37.4083,14.15,76.2306,10.8894,115.8076A9.8026,9.8026,0,0,0,661.0431,1166.55Z"/><path d="M1338.3879,724.1778c4.4927,28.5966-13.53,24.271-32.9223,23.5026.4363-29.7589,17.1708-26.3293,34.5325-21.8505C1340.0044,725.8435,1338.3879,724.1778,1338.3879,724.1778Z"/><path d="M1120.9077,724.429c-46.6315,22.1485-85.9688,54.1444-120.3642,92.0063-38.87,42.7871-86.4725,56.6359-143.6536,58.2963-135.9464,3.9473-271.35-10.2869-407.6771-2.7451-185.36,10.2542-306.795,121.7138-315.1607,305.9377-.5541,12.2047,10.1413,19.9964,22.5047,22.94" fill="none" stroke="#000" stroke-linecap="round" stroke-linejoin="round" stroke-width="2"/><path d="M1086.4666,1166.4231c8.5419,117.1227-8.2029,233.42-11.0407,350.1619-.4753,19.5587-10.39,41.46,27.7378,48.6763,27.853,5.2714,34.9514,41.001,11.4493,65.5868-25.5955,26.7763-62.8806,15.061-90.7069,9.2332-24.1109-5.05-34.6779-34.3968-24.5765-66.4313,10.9767-34.81,11.4222-72.6627,16.6528-108.9682,11.2519-78.0958,1.49-153.8416-61.54-212.1559" fill="none" stroke="#000" stroke-linecap="round" stroke-linejoin="round" stroke-width="2"/><path d="M490.0071,42.8275C438.1662-.2392,318.3055,5.0026,272.2666,54.6661c-30.2182,32.597-60.8621,50.9469-109.3468,53.3693C58.9457,113.23-2.6017,186.8115,16.9521,290.33c38.2716-97.3211,112.3513-95.2409,186.029-92.1206,25.8123,1.0931,47.68-10.43,55.8721-29.7533,10.3867-24.4986-3.1594-47.9972-27.1544-62.4864" fill="none" stroke="#000" stroke-linecap="round" stroke-linejoin="round" stroke-width="2"/><path d="M168.0372,1212.3446c31.0243,76.41,40.12,150.6809-10.7913,224.3435-24.3238,35.1933-6.5169,142.5131,21.9041,177.7656,13.7127,17.0087,32.4121,14.0688,45.863,9.8316,17.972-5.6614,31.373-18.5015,30.0985-44.6164-3.3665-68.9822,25.7987-135.3824,13.1323-207.0627-5.2672-29.807,35.1869-49.3852,60.5185-68.4187" fill="none" stroke="#000" stroke-linecap="round" stroke-linejoin="round" stroke-width="2"/><path d="M1258.6721,678.5075V758.87c0,93.3151,15.2771,107.7882,109.0635,103.3233,71.11-3.3854,98.7293-24.1,116.0321-90.8416-20.7487-18.5977-43.1687-36.8118-75.847-35.356-21.2677.9475-43.4275-9.1924-50.2716-23.7045-26.5076-56.2051-87.9637-40.1894-129.7918-64.6031-27.1818-15.8652-67.056,20.4678-88.749,48.7906-24.8575,32.4549-11.3269,73.3629,6.7739,101.2662,19.8575,30.6109,55.388,51.0547,84.0889,75.9288" fill="none" stroke="#000" stroke-linecap="round" stroke-linejoin="round" stroke-width="2"/><path d="M1000.8834,54.3079c-67.8816-48.1687-146.44-50.1764-223.7525-44.39-50.756,3.7987-106.3085-4.2746-150.775,37.13-9.4409,8.7906-36.8964-.1908-56.1886-2.5979-27.3232-3.4093-60.5688-11.5011-80.16,21.3388" fill="none" stroke="#000" stroke-linecap="round" stroke-linejoin="round" stroke-width="2"/><path d="M948.7021,948.2962c.3975,27.2774-4.3442,55.7727,11.6566,80.2473,49.5958,75.861,7.06,146.7141-12.8145,217.919-5.3777,19.2666-19.6155,44.0588-50.5037,29.0241" fill="none" stroke="#000" stroke-linecap="round" stroke-linejoin="round" stroke-width="2"/><path d="M484.2669,232.2536c73.4918,31.7735,153.2408-2.1458,231.2989,30.3815,68.4343,28.517,151.38,27.5009,227.9158,4.06" fill="none" stroke="#000" stroke-linecap="round" stroke-linejoin="round" stroke-width="2"/><path d="M443.566,1143.4624c-32.5524,52.5267-63.627,104.4719-106.438,151.6282-43.2514,47.6414-10.4576,213.9047,39.2439,269.2863-30.41,42.0262-66.9772,48.6706-110.7516,21.08" fill="none" stroke="#000" stroke-linecap="round" stroke-linejoin="round" stroke-width="2"/><path d="M237.439,197.8125c21.5025,29.9315,56.0744,42.96,86.7462,55.8737,63.564,26.7625,123.29,17.88,165.8219-44.3934" fill="none" stroke="#000" stroke-linecap="round" stroke-linejoin="round" stroke-width="2"/><path d="M403.3847,982.7373c44.9384,40.6309,39.8426,96.657,45.8979,148.7288l91.8665-16.7046" fill="none" stroke="#000" stroke-linecap="round" stroke-linejoin="round" stroke-width="2"/><path d="M1074.9862,919.5952c29.231,26.42,47.0417,63.28,80.1713,86.3771,15.78,11.0014,11.4968,29.4789,11.6343,45.6475.5954,70.0289-14.25,134.32-68.8449,183.6855" fill="none" stroke="#000" stroke-linecap="round" stroke-linejoin="round" stroke-width="2"/><path d="M1000.3638,948.2961c34.4411,32.5277,68.1813,65.8426,103.5461,97.3329,28.0381,24.9664,21.5911,63.6549,39.9585,92.0932" fill="none" stroke="#000" stroke-linecap="round" stroke-linejoin="round" stroke-width="2"/><path d="M162.297,1103.2811c26.5429,27.059,21.5017,55.6583,5.9852,86.2271-20.1373,39.6721-37.1049,80.99-58.055,120.2014-19.7358,36.9379-44.79,69.6966-104.0431,84.265,53.6-68.9507,98.54-126.009,127.412-193.11" fill="#fcfafb" stroke="#000" stroke-linecap="round" stroke-linejoin="round" stroke-width="2"/><path d="M259.88,1378.81c-43.7062,50.6795-48.5961,126.4719-11.48,177.9457" fill="none" stroke="#000" stroke-linecap="round" stroke-linejoin="round" stroke-width="2"/><path d="M1213.27,94.4892c35.7117-24.2466,99.7771,8.2145,113.311-57.9079-89.6353-30.3863-125.6185-13.1769-130.8165,68.1041-54.481-17.3019-110.9321-53.7405-160.44,7.0243" fill="none" stroke="#000" stroke-linecap="round" stroke-linejoin="round" stroke-width="2"/><path d="M213.9586,1051.62c-3.8326,71.0037,39.3377,116.8273,86.1028,160.7251" fill="none" stroke="#000" stroke-linecap="round" stroke-linejoin="round" stroke-width="2"/><path d="M357.4632,1017.1784c48.8385,20.6569,44.91,64.8507,37.5652,102.8172-2.8336,14.6482-6.5523,30.7417-8.8642,46.4275" fill="none" stroke="#000" stroke-linecap="round" stroke-linejoin="round" stroke-width="2"/><path d="M862.5994,1200.8642c24.8109,14.1184,10.6008,45.9734,34.59,61.36-72.2486,21.869-88.4286,8.3858-109.2126-84.32" fill="none" stroke="#000" stroke-linecap="round" stroke-linejoin="round" stroke-width="2"/><path d="M1310.8534,83.0088c22.78,20.8314,44.8592,39.65,80.45,35.1264,48.62-6.1791,61.14,19.1452,45.8344,62.4567" fill="none" stroke="#000" stroke-linecap="round" stroke-linejoin="round" stroke-width="2"/><path d="M1270.1524,856.4532c-40.4451,41.4185-71.4678,89.9038-103.3233,137.7644" fill="none" stroke="#000" stroke-linecap="round" stroke-linejoin="round" stroke-width="2"/><path d="M472.2669,1063.1c86.8628,55.47,168.5249,119.4839,264.0485,160.7252" fill="none" stroke="#000" stroke-linecap="round" stroke-linejoin="round" stroke-width="2"/><path d="M1201.79,237.9938c6.3834,72.9024,27.6232,84.147,97.5831,51.6616" fill="none" stroke="#000" stroke-linecap="round" stroke-linejoin="round" stroke-width="2"/><path d="M1425.657,186.3321c-39.424,12.4169-85.878,8.4435-114.5022,46.15-13.31,17.5338-32.429,14.7086-45.9072,10.2887-72.1719-23.6673-139.2909-3.1483-207.0056,18.0452-43.6366,13.6575-64.86-7.9767-57.3586-57.2638" fill="none" stroke="#000" stroke-linecap="round" stroke-linejoin="round" stroke-width="2"/><path d="M1190.31,111.71c-27.6229,39.7447-7.1674,77.0855,5.74,114.8037" fill="none" stroke="#000" stroke-linecap="round" stroke-linejoin="round" stroke-width="2"/><path d="M190.9979,1189.3839c22.2967,35.1518,53.1441,67.311,40.1813,114.8036" fill="none" stroke="#000" stroke-linecap="round" stroke-linejoin="round" stroke-width="2"/><path d="M678.9135,1086.0606q5.74,54.5317,11.48,109.0635" fill="none" stroke="#000" stroke-linecap="round" stroke-linejoin="round" stroke-width="2"/><path d="M650.2126,1051.62V1160.683" fill="none" stroke="#000" stroke-linecap="round" stroke-linejoin="round" stroke-width="2"/><path d="M575.59,982.7373c-10.286,54.73-8.9709,53.48,28.0664,92.4461,15.2342,16.0276,16.9435,39.9177,12.1149,62.5388" fill="none" stroke="#000" stroke-linecap="round" stroke-linejoin="round" stroke-width="2"/><path d="M736.3154,1131.982c-13.356,74.8407,3.7716,109.0959,57.4018,114.8037" fill="none" stroke="#000" stroke-linecap="round" stroke-linejoin="round" stroke-width="2"/><path d="M937.7414,243.7339c21.0434,13.4094,33.8758,59.6632,68.8822,17.2206" fill="none" stroke="#000" stroke-linecap="round" stroke-linejoin="round" stroke-width="2"/><path d="M989.4031,65.7882c36.405-33.4376,70.8986-32.4684,103.3233,5.74" fill="none" stroke="#000" stroke-linecap="round" stroke-linejoin="round" stroke-width="2"/><line x1="128.7817" y1="1211.5858" x2="146.5678" y2="1103.2216" fill="#ee714a" stroke="#000" stroke-linecap="round" stroke-linejoin="round" stroke-width="2"/></svg>