<svg width="263" height="223" xmlns="http://www.w3.org/2000/svg" viewBox="0 0 1264.11 1222.18"><g id="Layer_2" data-name="Layer 2"><g id="Layer_2-2" data-name="Layer 2"><path d="M569.08,1203.61c-38.48-12.95-118.74-100.38-134.13-161.9s69.27-239.62,118.74-291.43,77-84.19,122-146.8S778,399.48,785.68,380.05s42.46-88.5,50.91-114.41,32.65-91.75,39.24-97.14,115.45-24.83,140.73-30.23,40.68-8.63,50.58,0,25.42,61,36.28,73.4c12.32,14.09,100,18.35,118.74,19.43s28.59,65.84,0,72.32c0,0,3.3,23.74-18.69,25.9s-131.93-5.39-147.33,5.4-70.36,195.37-88,210.48S964.89,781.58,944,792.37s-51.68,24.83-55,37.78-36.29,307.62-26.39,331.37,19.79,30.22,44,21.59,37.38-21.59,46.17-5.4,17.6,25.9,0,30.22" fill="#b2b0a1"/><path d="M569.08,1203.61c-38.48-12.95-118.74-100.38-134.13-161.9s69.27-239.62,118.74-291.43,77-84.19,122-146.8S778,399.48,785.68,380.05s42.46-88.5,50.91-114.41,32.65-91.75,39.24-97.14,115.45-24.83,140.73-30.23,40.68-8.63,50.58,0,25.42,61,36.28,73.4c12.32,14.09,100,18.35,118.74,19.43s28.59,65.84,0,72.32c0,0,3.3,23.74-18.69,25.9s-131.93-5.39-147.33,5.4-70.36,195.37-88,210.48S964.89,781.58,944,792.37s-51.68,24.83-55,37.78-36.29,307.62-26.39,331.37,19.79,30.22,44,21.59,37.38-21.59,46.17-5.4,17.6,25.9,0,30.22" fill="#a99682"/><path d="M844.63,1195.67c-1.1-13-67.06-299-68.16-322.73,0,0-73.67,127.36-120.94,153.27s-8.8,95,0,117.65,14.29,30.22,33,24.82,30.79-5.39,34.08,11.88,4.4,27.46-15.39,25.6" fill="#a99682"/><path d="M1263.25,232c4.7,8.93-10.89,51.54-20.83,40.75S1214,234,1212.11,228.27,1254.46,215.22,1263.25,232Z" fill="#231f20"/><path d="M459.7,1210.67c17.59-25.91-31.89-101.46-31.89-101.46-47.27-3.24-287-81-288.06-68s59.38,76.63,53.88,103.61,15.39,65.85,66,65.85" fill="#262627"/><path d="M669.77,1209.53c36.58-33.46,103.51-111.17,112.58-163,7.71-44-36.32-122.33-49.74-144.88a13.68,13.68,0,0,1-.3-12.89l40.53-77.36c3.93-7.5,12.79-6,15.1,2.55l11.58,42.85c2.53,9.38,12.63,10,15.8.92,16.52-47.06,55.45-145.92,104.16-189.17,3.32-2.94,4.56-8.5,3-13.29-10.28-31.59-44.64-141.89-30.1-162.81,17-24.46,77.76,77.35,86.21,58.65S919,265.48,942.44,229.66s35.3,15.46,58.27-6.13,37.44-71.78,49.77-71.78a5.25,5.25,0,0,1,1.61.25c8.56,2.58,14.76-10.78,8.27-18.45a6.08,6.08,0,0,0-2.22-1.77c-9.14-3.78-105.07-65.3-133.63-41-13.32,11.32-164,224.65-184.67,303a11.56,11.56,0,0,1-2.1,4.24c-24.26,30.46-335,423-352.41,572.34-18.15,155.43,89.61,250.88,99.82,247" fill="#262627"/><path d="M918.58,102.91S991.15-1.42,1003.61,0s22.72,128.09,34.45,136C1038.06,136,936.18,129.54,918.58,102.91Z" fill="#262627"/><path d="M974.16,113.71c5.25,4.29,38.38,11.27,65.46,16.68-10.34-26.13-19.78-129.08-31-130.38C996.26,8.85,965.36,106.51,974.16,113.71Z" fill="#f8c1d9"/><path d="M171.74,1202.84c106.65,14,116.54-6.47,24.19-118.73,0,0-33-45.33-51.67-46.41S20,1138.08,2.43,1197.45s62.67-8.64,169.31,5.39" fill="#a99682"/><path d="M1084.64,217.47s-8-19.7-25-19.43-34.08,3.45-34.08,13.23C1025.54,218.42,1054.79,228.81,1084.64,217.47Z" fill="#231f20"/></g></g></svg>